<?xml version="1.0" standalone="no"?>
<!DOCTYPE svg PUBLIC "-//W3C//DTD SVG 1.1//EN" "http://www.w3.org/Graphics/SVG/1.1/DTD/svg11.dtd" >
<svg xmlns="http://www.w3.org/2000/svg" xmlns:xlink="http://www.w3.org/1999/xlink" version="1.1">
<metadata>
Created by FontForge 20170924 at Wed Jul  8 17:17:20 2020
 By www-data
Copyright \(c\) 2020 by Francesco Canovaro. All rights reserved.
</metadata>
<defs>
<font id="Eastman-Bold" horiz-adv-x="693" >
  <font-face 
    font-family="Eastman"
    font-weight="600"
    font-stretch="normal"
    units-per-em="1000"
    panose-1="0 0 7 0 0 0 0 0 0 0"
    ascent="800"
    descent="-200"
    x-height="553"
    cap-height="700"
    bbox="-843 -241 1536 1140"
    underline-thickness="106"
    underline-position="-200"
    stemh="144"
    stemv="173"
    unicode-range="U+0020-F8FF"
  />
<missing-glyph horiz-adv-x="614" 
 />
    <glyph glyph-name=".notdef" horiz-adv-x="614" 
 />
    <glyph glyph-name="space" unicode=" " horiz-adv-x="308" 
 />
    <glyph glyph-name="uniF8FF" unicode="&#xf8ff;" horiz-adv-x="614" 
 />
    <glyph glyph-name="A" unicode="A" horiz-adv-x="805" 
d="M796 0h-182l-48 118h-330l-49 -118h-178l307 700h172zM402 518l-112 -269h222z" />
    <glyph glyph-name="B" unicode="B" horiz-adv-x="755" 
d="M579 363c84 -25 137 -89 137 -173c0 -118 -101 -190 -267 -190h-373v700h364c154 0 247 -65 247 -177c0 -74 -42 -134 -108 -160zM407 561h-159v-146h159c77 0 111 26 111 74c0 50 -36 72 -111 72zM248 139h178c83 0 119 26 119 75c0 54 -41 77 -122 77h-175v-152z" />
    <glyph glyph-name="C" unicode="C" horiz-adv-x="730" 
d="M428 -12c-215 0 -379 154 -379 362s160 362 373 362c116 0 214 -39 288 -119l-111 -103c-44 48 -99 74 -169 74c-115 0 -204 -85 -204 -213c0 -130 89 -214 203 -214c66 0 125 26 172 75l111 -102c-69 -82 -170 -122 -284 -122z" />
    <glyph glyph-name="D" unicode="D" horiz-adv-x="826" 
d="M387 0h-311v700h311c237 0 389 -137 389 -349c0 -214 -152 -351 -389 -351zM248 553v-406h131c135 0 219 76 219 203c0 128 -84 203 -219 203h-131z" />
    <glyph glyph-name="E" unicode="E" horiz-adv-x="698" 
d="M245 291v-149h411v-142h-580v700h570v-142h-401v-132h355v-135h-355z" />
    <glyph glyph-name="F" unicode="F" horiz-adv-x="658" 
d="M637 700v-143h-394v-168h346v-139h-346v-250h-172v700h566z" />
    <glyph glyph-name="G" unicode="G" horiz-adv-x="780" 
d="M430 -12c-221 0 -381 152 -381 361c0 211 158 363 377 363c105 0 205 -38 282 -118l-110 -103c-49 49 -104 72 -168 72c-116 0 -205 -82 -205 -214c0 -131 86 -214 214 -214c56 0 96 15 128 38v193h155v-271c-76 -68 -182 -107 -292 -107z" />
    <glyph glyph-name="H" unicode="H" horiz-adv-x="801" 
d="M552 422v278h173v-700h-173v275h-303v-275h-173v700h173v-278h303z" />
    <glyph glyph-name="I" unicode="I" horiz-adv-x="324" 
d="M248 0h-172v700h172v-700z" />
    <glyph glyph-name="J" unicode="J" horiz-adv-x="589" 
d="M261 -12c-112 0 -205 51 -255 130l110 99c32 -46 74 -79 135 -79c68 0 113 52 113 125v296h-228v141h394v-437c0 -163 -110 -275 -269 -275z" />
    <glyph glyph-name="K" unicode="K" horiz-adv-x="771" 
d="M756 0h-194l-193 282l-121 -135v-147h-172v700h172v-345l287 345h206l-261 -293z" />
    <glyph glyph-name="L" unicode="L" horiz-adv-x="624" 
d="M607 0h-531v700h170v-554h361v-146z" />
    <glyph glyph-name="M" unicode="M" horiz-adv-x="923" 
d="M462 336l226 364h159v-700h-167v415l-191 -301h-54l-192 301v-415h-167v700h160z" />
    <glyph glyph-name="N" unicode="N" horiz-adv-x="812" 
d="M248 0h-172v700h146l342 -417v417h172v-700h-141l-347 424v-424z" />
    <glyph glyph-name="O" unicode="O" horiz-adv-x="855" 
d="M427 -12c-219 0 -378 151 -378 362c0 210 159 362 379 362c219 0 378 -151 378 -362c0 -210 -159 -362 -379 -362zM428 138c117 0 199 85 199 212s-82 212 -199 212c-118 0 -200 -85 -200 -212s82 -212 200 -212z" />
    <glyph glyph-name="P" unicode="P" horiz-adv-x="709" 
d="M370 700c192 0 311 -96 311 -253c0 -159 -120 -256 -312 -256h-121v-191h-172v700h294zM248 334h117c90 0 144 37 144 113c0 74 -54 110 -144 110h-117v-223z" />
    <glyph glyph-name="Q" unicode="Q" horiz-adv-x="855" 
d="M726 119c34 13 75 22 152 16v-134c-178 0 -302 -13 -450 -13h-1c-219 0 -378 151 -378 362c0 210 159 362 379 362c219 0 378 -151 378 -362c0 -90 -29 -169 -80 -231zM228 350c0 -127 82 -212 200 -212c117 0 199 85 199 212s-82 212 -199 212
c-118 0 -200 -85 -200 -212z" />
    <glyph glyph-name="R" unicode="R" horiz-adv-x="724" 
d="M706 0h-200l-172 216h-86v-216h-172v700h304c194 0 311 -90 311 -243c0 -112 -62 -189 -172 -222zM375 557h-127v-203h127c91 0 144 28 144 100c0 70 -53 103 -144 103z" />
    <glyph glyph-name="S" unicode="S" horiz-adv-x="655" 
d="M337 -12c-125 0 -235 39 -310 97l70 124c77 -49 161 -82 246 -82c68 0 107 27 107 65c0 49 -42 64 -138 84c-160 34 -266 92 -266 224c0 140 123 212 283 212c106 0 196 -28 273 -88l-83 -113c-52 38 -122 62 -191 62c-67 0 -106 -20 -106 -67c0 -40 36 -63 136 -85
c176 -37 268 -86 268 -214c0 -137 -123 -219 -289 -219z" />
    <glyph glyph-name="T" unicode="T" horiz-adv-x="662" 
d="M25 700h612v-147h-220v-553h-173v553h-219v147z" />
    <glyph glyph-name="U" unicode="U" horiz-adv-x="765" 
d="M382 -12c-197 0 -323 119 -323 310v402h173v-386c0 -107 56 -165 150 -165c96 0 153 58 153 165v386h171v-402c0 -191 -124 -310 -324 -310z" />
    <glyph glyph-name="V" unicode="V" horiz-adv-x="783" 
d="M477 0h-171l-297 700h182l200 -502h2l200 502h182z" />
    <glyph glyph-name="W" unicode="W" horiz-adv-x="1116" 
d="M778 212l148 488h181l-226 -700h-180l-142 444l-143 -444h-180l-227 700h182l148 -488l148 488h142z" />
    <glyph glyph-name="X" unicode="X" horiz-adv-x="765" 
d="M489 360l261 -360h-200l-166 231l-167 -231h-202l263 361l-246 339h201l151 -214l150 214h201z" />
    <glyph glyph-name="Y" unicode="Y" horiz-adv-x="723" 
d="M532 700h187l-271 -444v-256h-173v259l-271 441h187l171 -301z" />
    <glyph glyph-name="Z" unicode="Z" horiz-adv-x="700" 
d="M661 0h-620v107l376 446h-365v147h603v-107l-377 -446h383v-147z" />
    <glyph glyph-name="AE" unicode="&#xc6;" horiz-adv-x="1119" 
d="M665 291v-149h411v-142h-580v141h-233l-76 -141h-178l373 700h685v-142h-402v-132h355v-135h-355zM489 558l-155 -287h162v287h-7z" />
    <glyph glyph-name="OE" unicode="&#x152;" horiz-adv-x="1220" 
d="M766 291v-149h412v-142h-580v23c-51 -23 -109 -35 -170 -35c-215 0 -379 154 -379 362s160 362 373 362c65 0 124 -12 176 -37v25h570v-142h-402v-132h356v-135h-356zM429 137c65 0 122 25 169 72v282c-44 47 -99 73 -168 73c-115 0 -204 -85 -204 -213
c0 -130 89 -214 203 -214z" />
    <glyph glyph-name="Eth" unicode="&#xd0;" horiz-adv-x="826" 
d="M76 700h311c237 0 389 -137 389 -349c0 -214 -152 -351 -389 -351h-311v307h-50v92h50v301zM248 147h131c135 0 219 76 219 203c0 128 -84 203 -219 203h-131v-154h184v-92h-184v-160z" />
    <glyph glyph-name="Thorn" unicode="&#xde;" horiz-adv-x="709" 
d="M248 607h122c192 0 311 -97 311 -253c0 -159 -120 -256 -312 -256h-121v-98h-172v700h172v-93zM248 233h117c90 0 144 45 144 120s-54 119 -144 119h-117v-239z" />
    <glyph glyph-name="uni1E9E" unicode="&#x1e9e;" horiz-adv-x="798" 
d="M686 640l-74 -235c98 -38 157 -98 157 -197c0 -138 -102 -220 -259 -220c-89 0 -176 23 -225 62l35 131c47 -30 112 -50 172 -50c66 0 107 31 107 78c0 41 -39 73 -104 87c-18 4 -40 7 -67 12l67 240c-52 15 -101 22 -133 22c-81 0 -130 -47 -130 -112v-458h-173v472
c0 141 119 240 304 240c90 0 209 -23 323 -72z" />
    <glyph glyph-name="Eng" unicode="&#x14a;" horiz-adv-x="803" 
d="M564 700h172v-700h-2v-3c0 -121 -72 -177 -195 -177c-43 0 -89 10 -125 27l37 110c12 -6 32 -12 51 -12c36 0 63 21 63 67v25l-317 387v-424h-172v700h146l342 -417v417z" />
    <glyph glyph-name="uni019D" unicode="&#x19d;" horiz-adv-x="815" 
d="M564 283v417h172v-700h-141l-347 424v-424c-1 -120 -75 -174 -199 -174c-44 0 -91 9 -128 26l38 111c12 -7 33 -12 52 -12c37 0 65 21 65 66v683h146z" />
    <glyph glyph-name="uni018F" unicode="&#x18f;" horiz-adv-x="836" 
d="M390 711c231 0 397 -152 397 -362c0 -209 -158 -361 -386 -361c-206 0 -352 140 -352 337c0 22 3 42 8 61h551c-12 105 -99 182 -215 182c-76 0 -142 -31 -189 -80l-112 100c72 75 169 123 298 123zM401 130c97 0 176 60 200 150h-374c18 -93 85 -150 174 -150z" />
    <glyph glyph-name="a" unicode="a" horiz-adv-x="621" 
d="M290 565c192 0 276 -93 276 -242v-323h-165v64c-32 -39 -93 -76 -182 -76c-116 0 -193 72 -193 176c0 101 67 179 226 179c46 0 105 -3 148 -7c-3 59 -45 93 -128 93c-49 0 -111 -19 -151 -50l-66 114c67 49 155 72 235 72zM275 118c66 0 119 45 125 110v12
c-32 4 -65 6 -107 6c-81 0 -109 -27 -109 -67s34 -61 91 -61z" />
    <glyph glyph-name="b" unicode="b" horiz-adv-x="716" 
d="M413 565c150 0 266 -116 266 -286c0 -171 -118 -291 -264 -291c-71 0 -135 23 -181 73v-61h-165v738h165v-245c46 49 109 72 179 72zM376 130c82 0 138 59 138 148c0 86 -57 145 -138 145c-83 0 -142 -56 -142 -146c0 -91 59 -147 142 -147z" />
    <glyph glyph-name="c" unicode="c" horiz-adv-x="590" 
d="M346 -12c-175 0 -309 119 -309 288c0 170 134 289 309 289c86 0 169 -31 227 -101l-109 -95c-33 41 -72 55 -117 55c-79 0 -142 -52 -142 -147s64 -148 145 -148c42 0 80 13 114 55l109 -95c-57 -69 -141 -101 -227 -101z" />
    <glyph glyph-name="d" unicode="d" horiz-adv-x="717" 
d="M483 492v246h165v-738h-165v62c-46 -50 -110 -74 -181 -74c-147 0 -264 120 -264 291c0 170 115 286 265 286c70 0 134 -23 180 -73zM340 130c83 0 143 56 143 147c0 90 -59 146 -143 146c-81 0 -137 -59 -137 -145c0 -89 55 -148 137 -148z" />
    <glyph glyph-name="e" unicode="e" horiz-adv-x="633" 
d="M605 227h-403c14 -67 72 -105 152 -105c55 0 95 16 128 53l98 -86c-56 -60 -130 -100 -234 -100c-179 0 -309 121 -309 288c0 166 121 287 301 287c162 0 274 -111 274 -261c0 -23 -2 -45 -7 -76zM335 432c-70 0 -119 -40 -132 -104h251c-10 69 -55 104 -119 104z" />
    <glyph glyph-name="f" unicode="f" horiz-adv-x="480" 
d="M367 629c-43 0 -69 -16 -69 -70v-6h167v-136h-167v-417h-166v417h-99v136h99v16c0 124 78 197 201 197c71 0 128 -13 157 -25l-25 -129c-33 12 -62 17 -98 17z" />
    <glyph glyph-name="g" unicode="g" horiz-adv-x="647" 
d="M258 149h118c174 2 244 -59 244 -152c0 -110 -107 -180 -316 -180c-169 0 -260 50 -260 142c0 43 31 76 67 96c-33 20 -49 52 -49 86c0 47 29 81 65 101c-43 32 -65 79 -65 137c0 115 96 187 255 187c46 0 85 -6 116 -20l148 45l31 -111l-75 -11c23 -22 38 -54 38 -90
c0 -117 -96 -190 -256 -190c-34 0 -66 3 -94 9c-7 -7 -11 -16 -11 -26c0 -20 19 -23 44 -23zM318 446c-62 0 -95 -23 -95 -66c0 -47 33 -72 95 -72s95 25 95 71c0 44 -33 67 -95 67zM316 -58c96 0 143 12 143 52c0 32 -38 38 -112 38h-122c-16 -15 -24 -28 -24 -44
c0 -39 46 -46 115 -46z" />
    <glyph glyph-name="h" unicode="h" horiz-adv-x="689" 
d="M415 565c134 0 219 -85 219 -230v-335h-165v307c0 73 -35 113 -105 113c-75 0 -130 -61 -130 -146v-274h-165v738h165v-253c41 47 102 80 181 80z" />
    <glyph glyph-name="i" unicode="i" horiz-adv-x="291" 
d="M231 610h-171v130h171v-130zM228 0h-165v553h165v-553z" />
    <glyph glyph-name="dotlessi" unicode="&#x131;" horiz-adv-x="291" 
d="M228 0h-165v553h165v-553z" />
    <glyph glyph-name="j" unicode="j" horiz-adv-x="302" 
d="M241 610h-171v130h171v-130zM-70 -159l33 119c11 -5 27 -8 44 -8c42 0 66 23 66 63v538h166v-543c0 -129 -94 -189 -206 -189c-35 0 -71 7 -103 20z" />
    <glyph glyph-name="uni0237" unicode="&#x237;" horiz-adv-x="302" 
d="M-70 -159l33 119c11 -5 27 -8 44 -8c42 0 66 23 66 63v538h166v-543c0 -129 -94 -189 -206 -189c-35 0 -71 7 -103 20z" />
    <glyph glyph-name="k" unicode="k" horiz-adv-x="687" 
d="M682 0h-188l-165 214l-95 -99v-115h-165v738h165v-435l219 250h201l-224 -234z" />
    <glyph glyph-name="l" unicode="l" horiz-adv-x="303" 
d="M234 0h-165v738h165v-738z" />
    <glyph glyph-name="m" unicode="m" horiz-adv-x="1048" 
d="M789 565c125 0 204 -85 204 -227v-338h-166v310c0 70 -29 110 -91 110c-68 0 -126 -60 -126 -144v-276h-165v310c0 70 -29 110 -91 110c-69 0 -126 -60 -126 -144v-276h-165v553h165v-69c41 47 104 81 179 81c86 0 149 -40 181 -111c38 62 110 111 201 111z" />
    <glyph glyph-name="n" unicode="n" horiz-adv-x="683" 
d="M410 565c133 0 218 -85 218 -230v-335h-165v307c0 73 -35 113 -105 113c-75 0 -130 -61 -130 -146v-274h-165v553h165v-68c41 47 102 80 182 80z" />
    <glyph glyph-name="o" unicode="o" 
d="M346 -12c-179 0 -309 122 -309 289s131 288 310 288s309 -121 309 -287c0 -167 -130 -290 -310 -290zM347 130c82 0 142 59 142 147c0 89 -60 147 -143 147c-82 0 -142 -58 -142 -145c0 -90 60 -149 143 -149z" />
    <glyph glyph-name="p" unicode="p" horiz-adv-x="711" 
d="M409 565c147 0 264 -120 264 -290c0 -171 -115 -287 -265 -287c-70 0 -134 23 -180 73v-233h-165v725h165v-61c46 50 110 73 181 73zM371 130c81 0 137 59 137 145c0 89 -55 148 -137 148c-83 0 -143 -56 -143 -147c0 -90 59 -146 143 -146z" />
    <glyph glyph-name="q" unicode="q" horiz-adv-x="710" 
d="M482 492v61h165v-725h-165v232c-46 -49 -109 -72 -179 -72c-150 0 -266 116 -266 287c0 170 118 290 265 290c70 0 134 -23 180 -73zM340 130c83 0 142 56 142 146c0 91 -59 147 -142 147c-82 0 -138 -59 -138 -148c0 -86 57 -145 138 -145z" />
    <glyph glyph-name="r" unicode="r" horiz-adv-x="447" 
d="M378 561c19 0 37 -2 51 -4l-6 -158c-20 5 -41 8 -61 8c-83 0 -134 -73 -134 -181v-226h-165v553h165v-75c38 57 94 83 150 83z" />
    <glyph glyph-name="s" unicode="s" horiz-adv-x="549" 
d="M269 -12c-97 0 -186 29 -250 63l55 119c68 -34 135 -50 205 -50c52 0 86 10 86 44c0 29 -27 41 -112 55c-161 26 -217 74 -217 168c0 115 91 178 231 178c77 0 180 -23 237 -57l-56 -119c-55 27 -124 45 -190 45c-44 0 -63 -14 -63 -37s19 -35 102 -50
c167 -31 225 -83 225 -178c0 -116 -103 -181 -253 -181z" />
    <glyph glyph-name="t" unicode="t" horiz-adv-x="525" 
d="M462 151l31 -124c-48 -27 -119 -39 -168 -39c-124 0 -197 67 -197 193v236h-98v136h102l10 140h150v-140h180v-136h-180v-214c0 -46 25 -73 66 -73c29 0 73 7 104 21z" />
    <glyph glyph-name="u" unicode="u" horiz-adv-x="684" 
d="M455 279v274h165v-553h-165v68c-41 -47 -102 -80 -182 -80c-133 0 -218 85 -218 230v335h165v-307c0 -73 35 -113 105 -113c75 0 130 61 130 146z" />
    <glyph glyph-name="v" unicode="v" horiz-adv-x="659" 
d="M415 0h-171l-229 553h177l137 -371h1l136 371h178z" />
    <glyph glyph-name="w" unicode="w" horiz-adv-x="953" 
d="M651 191l108 362h174l-188 -553h-169l-99 336l-100 -336h-168l-189 553h174l108 -362l103 362h142z" />
    <glyph glyph-name="x" unicode="x" horiz-adv-x="666" 
d="M430 285l221 -285h-187l-132 173l-133 -173h-184l219 283l-209 270h193l115 -160l115 160h190z" />
    <glyph glyph-name="y" unicode="y" horiz-adv-x="665" 
d="M336 182l137 371h178l-229 -553l-14 -33c-47 -107 -101 -150 -219 -150c-53 0 -114 18 -144 35l38 112c30 -12 61 -18 86 -18c43 0 62 16 78 55l3 7l-228 545h177z" />
    <glyph glyph-name="z" unicode="z" horiz-adv-x="575" 
d="M543 0h-510v99l284 316h-276v138h497v-99l-286 -315h291v-139z" />
    <glyph glyph-name="ae" unicode="&#xe6;" horiz-adv-x="992" 
d="M964 227h-403c14 -67 72 -105 152 -105c56 0 95 16 129 53l97 -86c-56 -60 -130 -100 -234 -100c-109 0 -200 45 -254 118c-44 -63 -120 -119 -232 -119c-111 0 -200 69 -200 176c0 103 79 172 225 172c46 0 106 -2 149 -6v7c-1 62 -43 99 -129 99
c-48 0 -117 -21 -150 -51l-68 110c67 44 156 70 237 70c98 0 161 -32 200 -79c52 49 126 78 214 78c162 0 275 -111 275 -261c0 -23 -3 -45 -8 -76zM695 432c-70 0 -119 -40 -133 -104h251c-10 69 -55 104 -118 104zM263 115c71 0 128 46 131 116v10c-30 3 -71 5 -109 5
c-68 0 -108 -26 -108 -67c0 -39 33 -64 86 -64z" />
    <glyph glyph-name="oe" unicode="&#x153;" horiz-adv-x="1089" 
d="M1061 227h-403c14 -67 72 -105 152 -105c55 0 95 16 128 53l98 -86c-56 -60 -130 -100 -234 -100c-93 0 -172 33 -228 87c-55 -55 -135 -88 -228 -88c-179 0 -309 122 -309 289s131 288 310 288c92 0 171 -32 226 -85c53 53 129 84 221 84c162 0 274 -111 274 -261
c0 -23 -2 -45 -7 -76zM791 432c-70 0 -119 -40 -132 -104h251c-10 69 -55 104 -119 104zM347 130c82 0 142 59 142 147c0 89 -60 147 -143 147c-82 0 -142 -58 -142 -145c0 -90 60 -149 143 -149z" />
    <glyph glyph-name="eth" unicode="&#xf0;" horiz-adv-x="690" 
d="M518 776l-53 -71c116 -70 187 -201 187 -371c0 -208 -129 -346 -326 -346c-167 0 -289 93 -289 247c0 140 108 243 270 243c71 0 130 -29 173 -79c-11 79 -44 147 -100 193l-72 -96l-61 42l68 91c-34 14 -74 23 -120 24l53 109c53 0 103 -8 148 -24l61 81zM327 107
c63 0 115 36 141 108c-12 82 -73 136 -140 136c-72 0 -128 -49 -128 -123c0 -73 56 -121 127 -121z" />
    <glyph glyph-name="thorn" unicode="&#xfe;" horiz-adv-x="716" 
d="M423 565c147 0 256 -120 256 -290c0 -164 -107 -287 -257 -287c-75 0 -141 32 -188 103v-262h-165v909h165v-276c47 70 113 103 189 103zM376 122c82 0 138 64 138 154c0 92 -56 155 -138 155c-83 0 -142 -64 -142 -155c0 -90 59 -154 142 -154z" />
    <glyph glyph-name="germandbls" unicode="&#xdf;" horiz-adv-x="698" 
d="M507 382c89 -17 154 -80 154 -172c0 -128 -108 -218 -239 -218c-59 0 -99 9 -125 21l2 127c26 -11 60 -18 85 -18c73 0 118 41 118 105c0 59 -51 93 -123 93c-14 0 -50 -2 -63 -5v99c9 1 33 4 41 6c57 14 96 57 96 109s-43 92 -102 92c-69 0 -114 -48 -114 -122v-499
h-165v500c0 145 114 250 279 250c151 0 261 -88 261 -207c0 -73 -44 -133 -105 -161z" />
    <glyph glyph-name="eng" unicode="&#x14b;" horiz-adv-x="683" 
d="M410 565c133 0 218 -85 218 -230v-338c0 -121 -71 -177 -190 -177c-42 0 -87 10 -122 27l36 110c12 -6 32 -12 50 -12c32 0 57 17 61 55v307c0 73 -35 113 -105 113c-75 0 -130 -61 -130 -146v-274h-165v553h165v-68c41 47 102 80 182 80z" />
    <glyph glyph-name="uni0272" unicode="&#x272;" horiz-adv-x="683" 
d="M410 565c133 0 218 -85 218 -230v-335h-165v307c0 73 -35 113 -105 113c-75 0 -130 -61 -130 -146v-59c1 -25 1 -54 1 -87v-125c0 -122 -71 -177 -191 -177c-42 0 -87 9 -122 26l36 111c12 -7 32 -12 50 -12c31 0 56 17 61 52v550h165v-68c41 47 102 80 182 80z" />
    <glyph glyph-name="uni0259" unicode="&#x259;" horiz-adv-x="633" 
d="M287 564c179 0 309 -121 309 -288c0 -166 -121 -287 -301 -287c-162 0 -274 111 -274 261c0 23 2 45 7 76h403c-14 67 -72 105 -152 105c-55 0 -95 -16 -128 -53l-98 86c56 60 130 100 234 100zM298 121c70 0 119 40 132 104h-251c10 -69 55 -104 119 -104z" />
    <glyph glyph-name="zero" unicode="0" horiz-adv-x="734" 
d="M366 -12c-196 0 -317 148 -317 363c0 210 120 361 319 361c196 0 317 -147 317 -362c0 -212 -120 -362 -319 -362zM368 122c97 0 151 99 151 227c0 134 -59 228 -152 228c-97 0 -152 -98 -152 -226c0 -134 59 -229 153 -229z" />
    <glyph glyph-name="one" unicode="1" horiz-adv-x="403" 
d="M16 674l172 26h139v-700h-166v559l-126 -19z" />
    <glyph glyph-name="two" unicode="2" horiz-adv-x="646" 
d="M270 135h318v-135h-535v114c78 56 180 133 250 196c75 70 111 117 111 163c0 69 -51 108 -120 108c-60 0 -120 -32 -166 -80l-88 103c69 69 173 108 271 108c146 0 269 -82 269 -226c0 -85 -44 -151 -135 -230c-50 -41 -112 -83 -175 -121z" />
    <glyph glyph-name="three" unicode="3" horiz-adv-x="653" 
d="M576 592l-182 -160c129 -10 214 -89 214 -210c0 -145 -127 -234 -281 -234c-125 0 -222 42 -287 107l73 104c48 -42 145 -78 202 -78c73 0 123 43 123 101c0 50 -35 91 -96 94c-29 4 -104 3 -139 0l-1 86l161 163h-265v135h469z" />
    <glyph glyph-name="four" unicode="4" horiz-adv-x="696" 
d="M552 262h95v-118h-95v-144h-154v144h-349l-30 89l328 467h205v-438zM398 571l-200 -309h200v309z" />
    <glyph glyph-name="five" unicode="5" horiz-adv-x="660" 
d="M389 433c128 0 222 -92 222 -211c0 -136 -118 -234 -278 -234c-118 0 -221 37 -284 102l74 105c54 -45 124 -74 193 -74c78 0 129 43 129 101c0 63 -56 98 -137 98c-47 0 -143 -22 -185 -37l-36 77l17 340h474v-135h-326l-7 -156c40 17 84 24 144 24z" />
    <glyph glyph-name="six" unicode="6" horiz-adv-x="700" 
d="M356 -13c-197 0 -307 135 -307 328c0 261 108 397 333 397c84 0 157 -19 228 -69l-68 -113c-38 32 -97 49 -149 49c-119 0 -169 -75 -177 -179c0 -3 -1 -11 -1 -24c15 39 80 93 181 93c155 0 255 -89 255 -228c0 -156 -121 -254 -295 -254zM360 121c73 0 126 47 126 119
c0 69 -56 116 -122 116c-69 0 -128 -47 -128 -118c0 -67 45 -117 124 -117z" />
    <glyph glyph-name="seven" unicode="7" horiz-adv-x="598" 
d="M22 700h527l30 -103l-310 -597h-184l301 565h-364v135z" />
    <glyph glyph-name="eight" unicode="8" horiz-adv-x="697" 
d="M511 374c81 -26 137 -94 137 -175c0 -127 -120 -211 -299 -211s-300 84 -300 211c0 81 56 148 136 175c-65 26 -110 82 -110 147c0 114 110 191 274 191c163 0 272 -77 272 -191c0 -64 -45 -121 -110 -147zM349 573c-60 0 -101 -29 -101 -79s41 -79 101 -79
c59 0 100 29 100 79s-41 79 -100 79zM349 128c74 0 125 34 125 91c0 56 -51 91 -125 91c-75 0 -126 -35 -126 -91c0 -57 51 -91 126 -91z" />
    <glyph glyph-name="nine" unicode="9" horiz-adv-x="700" 
d="M344 713c197 0 307 -135 307 -328c0 -261 -108 -397 -333 -397c-84 0 -157 19 -228 69l68 113c38 -32 97 -49 149 -49c119 0 170 75 177 179c0 3 1 11 1 24c-15 -39 -80 -93 -181 -93c-155 0 -255 89 -255 228c0 156 122 254 295 254zM340 579c-73 0 -126 -47 -126 -119
c0 -69 56 -116 122 -116c69 0 128 47 128 118c0 67 -45 117 -124 117z" />
    <glyph glyph-name="a.ss01" horiz-adv-x="710" 
d="M482 492v61h165v-553h-165v60c-46 -49 -109 -72 -179 -72c-150 0 -266 116 -266 287c0 170 118 290 265 290c70 0 134 -23 180 -73zM340 130c83 0 142 56 142 146c0 91 -59 147 -142 147c-82 0 -138 -59 -138 -148c0 -86 57 -145 138 -145z" />
    <glyph glyph-name="g.ss01" horiz-adv-x="712" 
d="M484 485v68h165v-440c0 -189 -116 -296 -313 -296c-107 0 -199 24 -275 73l58 115c53 -37 125 -59 197 -59c105 0 165 56 165 147v17c-43 -53 -105 -77 -184 -77c-151 0 -260 112 -260 262c0 157 109 271 258 271c82 0 145 -25 189 -81zM340 155c83 0 142 54 142 141
c0 88 -59 141 -142 141c-80 0 -137 -60 -137 -142c0 -81 57 -140 137 -140z" />
    <glyph glyph-name="Q.ss02" horiz-adv-x="855" 
d="M806 350c0 -130 -61 -238 -159 -301l69 -128l-143 -65l-73 138c-23 -4 -48 -6 -73 -6c-219 0 -378 151 -378 362c0 210 159 362 379 362c219 0 378 -151 378 -362zM228 350c0 -125 80 -210 196 -212l-23 43l147 50l20 -38c37 38 59 92 59 157c0 127 -82 212 -199 212
c-118 0 -200 -85 -200 -212z" />
    <glyph glyph-name="k.ss02" horiz-adv-x="635" 
d="M443 553h187l-262 -273l262 -280h-186l-210 234v-234h-165v738h165v-413z" />
    <glyph glyph-name="y.ss02" horiz-adv-x="665" 
d="M336 177l140 376h175l-234 -553l-71 -171h-169l77 174l-232 550h174z" />
    <glyph glyph-name="G.ss03" horiz-adv-x="780" 
d="M412 283v130h310v-327c-76 -61 -182 -98 -292 -98c-217 0 -381 152 -381 361c0 211 158 364 377 364c105 0 205 -38 284 -120l-110 -99c-51 50 -106 76 -170 76c-116 0 -209 -89 -209 -221c0 -135 95 -224 218 -224c56 0 96 16 128 38v120h-155z" />
    <glyph glyph-name="J.ss03" horiz-adv-x="568" 
d="M240 -12c-113 0 -206 51 -255 136l112 96c29 -52 71 -85 132 -85c67 0 111 51 111 128v437h169v-437c0 -162 -116 -275 -269 -275z" />
    <glyph glyph-name="Q.ss03" horiz-adv-x="847" 
d="M618 32c45 -33 97 -33 159 -17l2 -126c-128 -37 -247 -2 -332 99h-20c-219 0 -378 151 -378 362c0 210 159 362 379 362c219 0 378 -151 378 -362c0 -142 -73 -258 -188 -318zM228 350c0 -127 82 -212 200 -212c117 0 199 85 199 212s-82 212 -199 212
c-118 0 -200 -85 -200 -212z" />
    <glyph glyph-name="t.ss03" horiz-adv-x="486" 
d="M300 -12c-125 0 -198 67 -198 193v236h-72v74l172 183h65v-121h169v-136h-169v-213c0 -46 24 -73 66 -73c28 0 59 6 91 20l30 -125c-47 -26 -106 -38 -154 -38z" />
    <glyph glyph-name="g.ss04" horiz-adv-x="674" 
d="M347 100c267 0 307 -216 300 -272h-165c6 31 -20 141 -139 141c-64 0 -121 -41 -131 -114l-168 10c9 97 61 150 97 173c-37 17 -58 45 -58 82c0 33 18 64 46 86c-38 37 -59 88 -59 145c0 124 102 215 256 215c40 0 78 -8 109 -22l155 47l31 -111l-82 -13
c28 -24 45 -69 45 -117c0 -125 -102 -217 -256 -217c-36 0 -70 5 -100 14c-3 -5 -5 -10 -5 -16c0 -24 17 -38 46 -43c14 3 40 12 78 12zM327 434c-56 0 -95 -35 -95 -82c0 -50 39 -87 95 -87s96 36 96 86c0 47 -40 83 -96 83z" />
    <glyph glyph-name="G.ss05" horiz-adv-x="770" 
d="M547 165v114h165v-450h-165v178c-36 -12 -74 -19 -113 -19c-221 0 -385 154 -385 362s160 362 379 362c110 0 208 -39 282 -119l-110 -99c-44 48 -100 76 -170 76c-115 0 -208 -91 -208 -219c0 -130 93 -219 207 -219c42 0 82 12 118 33z" />
    <glyph glyph-name="Q.ss05" horiz-adv-x="855" 
d="M806 350c0 -183 -121 -322 -298 -355v-166h-161v166c-177 32 -298 171 -298 355c0 210 159 362 379 362c219 0 378 -151 378 -362zM428 138c117 0 199 85 199 212s-82 212 -199 212c-118 0 -200 -85 -200 -212s82 -212 200 -212z" />
    <glyph glyph-name="e.ss05" horiz-adv-x="590" 
d="M350 122c45 0 83 14 121 56l102 -89c-57 -69 -141 -101 -227 -101c-175 0 -309 119 -309 288c0 170 134 289 309 289c86 0 169 -31 227 -101l-102 -88c-38 40 -76 55 -124 55c-69 0 -123 -32 -143 -94h218v-106h-222c17 -72 74 -109 150 -109z" />
    <glyph glyph-name="f.ss05" horiz-adv-x="470" 
d="M357 629c-43 0 -69 -16 -69 -70v-6h167v-136h-167v-588h-166v588h-89v136h89v16c0 124 78 197 201 197c71 0 128 -13 157 -25l-25 -129c-33 12 -62 17 -98 17z" />
    <glyph glyph-name="g.ss05" horiz-adv-x="640" 
d="M430 138v132h147v-441h-147v174c-28 -10 -59 -15 -93 -15c-170 0 -300 116 -300 289c0 167 130 288 309 288c86 0 169 -30 227 -101l-105 -92c-26 37 -72 57 -118 57c-86 0 -149 -55 -149 -152c0 -100 63 -155 149 -155c29 0 55 5 80 16z" />
    <glyph glyph-name="j.ss05" horiz-adv-x="291" 
d="M230 610h-170v130h170v-130zM228 -171h-164v724h164v-724z" />
    <glyph glyph-name="t.ss05" horiz-adv-x="457" 
d="M278 553h147v-136h-147v-417h-164v417h-84v136h84v100l164 40v-140z" />
    <glyph glyph-name="y.ss05" horiz-adv-x="659" 
d="M330 235l136 318h178l-232 -465v-259h-165v259l-232 465h177l137 -318h1z" />
    <glyph glyph-name="A.ss06" horiz-adv-x="766" 
d="M383 713c191 0 324 -123 324 -313v-400h-170v173h-305v-173h-173v400c0 190 133 313 324 313zM232 400v-80h305v80c0 103 -64 164 -154 164c-89 0 -151 -61 -151 -164z" />
    <glyph glyph-name="E.ss06" horiz-adv-x="676" 
d="M562 185l96 -101c-76 -69 -178 -96 -306 -96c-190 0 -303 72 -303 201c0 82 48 148 131 169c-79 19 -123 75 -123 158c0 108 112 196 298 196c118 0 217 -26 293 -96l-96 -101c-50 37 -102 54 -180 54c-79 0 -133 -25 -133 -79c0 -52 57 -69 147 -69h136v-124h-143
c-89 0 -147 -26 -147 -83c0 -54 56 -83 146 -83c82 0 134 17 184 54z" />
    <glyph glyph-name="a.ss06" horiz-adv-x="719" 
d="M347 565c180 0 309 -122 309 -299v-266h-151l-3 60c-42 -46 -105 -72 -177 -72c-162 0 -288 115 -288 284c0 171 130 293 310 293zM347 129c83 0 142 58 142 146c0 89 -60 148 -143 148s-142 -59 -142 -147c0 -89 60 -147 143 -147z" />
    <glyph glyph-name="g.ss06" horiz-adv-x="653" 
d="M519 196c40 -38 70 -95 70 -156c0 -134 -104 -223 -267 -223c-148 0 -235 81 -263 157l126 81c26 -45 65 -96 130 -96c62 0 104 31 104 87c0 28 -12 50 -35 80c-20 -4 -42 -6 -65 -6c-151 0 -257 92 -257 224c0 130 105 221 255 221h285l2 -119l-66 4
c23 -26 37 -65 37 -108c0 -58 -20 -108 -56 -146zM318 253c58 0 92 33 92 91c0 57 -36 88 -92 88s-91 -31 -91 -87c0 -58 35 -92 91 -92z" />
    <glyph glyph-name="A.ss07" horiz-adv-x="806" 
d="M797 0h-183l-59 145h-307l-60 -145h-179l307 700h174zM401 515l-120 -289h241l-117 289h-4z" />
    <glyph glyph-name="B.ss07" horiz-adv-x="752" 
d="M567 363c95 -24 146 -83 146 -172c0 -119 -100 -191 -266 -191h-371v700h360c154 0 247 -65 247 -177c0 -78 -39 -133 -116 -160zM403 567h-152v-174h158c62 0 102 25 102 84c0 55 -41 90 -108 90zM251 133h172c73 0 118 35 118 94c0 62 -46 90 -114 90h-176v-184z" />
    <glyph glyph-name="E.ss07" horiz-adv-x="682" 
d="M246 310v-166h393v-144h-563v700h554v-143h-384v-159h340v-88h-340z" />
    <glyph glyph-name="F.ss07" horiz-adv-x="632" 
d="M610 700v-143h-365v-179h327v-88h-327v-290h-174v700h539z" />
    <glyph glyph-name="G.ss07" horiz-adv-x="840" 
d="M782 367v-75h-59v-207c-77 -62 -182 -99 -293 -99c-221 0 -381 153 -381 363c0 211 159 364 377 364c105 0 206 -38 283 -118l-112 -101c-48 48 -103 74 -166 74c-116 0 -208 -88 -208 -219s89 -220 216 -220c56 0 95 14 128 37v201h215z" />
    <glyph glyph-name="H.ss07" horiz-adv-x="802" 
d="M551 393v307h174v-700h-174v306h-300v-306h-175v700h175v-307h300z" />
    <glyph glyph-name="I.ss07" horiz-adv-x="427" 
d="M374 700v-75h-75v-550h75v-75h-324v75h75v550h-75v75h324z" />
    <glyph glyph-name="J.ss07" horiz-adv-x="588" 
d="M261 -13c-113 1 -207 51 -255 136l111 96c31 -52 72 -85 133 -85c67 0 111 51 111 128v363h-182v75h350v-438c0 -163 -110 -275 -268 -275z" />
    <glyph glyph-name="K.ss07" horiz-adv-x="757" 
d="M741 0h-208l-159 301h-123v-301h-175v700h175v-312h122l146 313h210l-197 -359z" />
    <glyph glyph-name="M.ss07" horiz-adv-x="925" 
d="M464 166l221 534h164v-700h-164l-1 448l-197 -448h-47l-199 448v-448h-165v700h165z" />
    <glyph glyph-name="N.ss07" horiz-adv-x="815" 
d="M250 0h-174v700h152l336 -483v483h174v-700h-147l-340 473z" />
    <glyph glyph-name="P.ss07" horiz-adv-x="711" 
d="M371 700c192 0 311 -74 311 -231c0 -162 -120 -217 -312 -217h-119v-252h-175v700h295zM251 340h114c90 0 143 32 143 106s-53 118 -142 118h-115v-224z" />
    <glyph glyph-name="Q.ss07" horiz-adv-x="855" 
d="M688 80h190v-88h-390c-20 -3 -40 -4 -61 -4c-219 0 -378 151 -378 362c0 210 159 362 379 362c219 0 378 -151 378 -362c0 -111 -44 -205 -118 -270zM228 350c0 -127 82 -212 200 -212c117 0 199 85 199 212s-82 212 -199 212c-118 0 -200 -85 -200 -212z" />
    <glyph glyph-name="R.ss07" horiz-adv-x="726" 
d="M708 0h-198l-179 273h-80v-273h-175v700h305c194 0 311 -66 311 -219c0 -127 -76 -185 -208 -202zM376 564h-125v-204h124c92 0 143 26 143 96c0 69 -51 108 -142 108z" />
    <glyph glyph-name="V.ss07" horiz-adv-x="786" 
d="M479 0h-173l-297 700h184l197 -569h5l198 569h184z" />
    <glyph glyph-name="W.ss07" horiz-adv-x="1099" 
d="M731 150l176 551h184l-233 -701h-176l-134 346l-131 -346h-174l-234 700h183l177 -550l125 335l-83 215h106l30 -76l28 76h107l-81 -215z" />
    <glyph glyph-name="X.ss07" horiz-adv-x="767" 
d="M501 360l251 -360h-202l-165 307l-166 -307h-204l253 361l-236 339h203l150 -288l149 288h203z" />
    <glyph glyph-name="Y.ss07" horiz-adv-x="724" 
d="M531 700h189l-272 -447v-253h-174v258l-270 442h188l171 -366z" />
    <glyph glyph-name="Z.ss07" horiz-adv-x="701" 
d="M662 0h-621v109l437 448h-426v143h603v-109l-437 -448h444v-143z" />
    <glyph glyph-name="f.ss07" horiz-adv-x="423" 
d="M273 568v-30h143v-82h-143v-456h-168v456h-72v82h72v31c0 125 78 198 203 198c47 0 96 -8 125 -22l-32 -111c-17 7 -39 12 -60 12c-42 0 -68 -25 -68 -78z" />
    <glyph glyph-name="g.ss07" horiz-adv-x="744" 
d="M729 554v-81h-82v-365c0 -196 -112 -293 -314 -293c-110 0 -203 24 -280 74l56 107c56 -39 128 -62 203 -62c111 0 166 55 166 153v4c-46 -49 -107 -73 -178 -73c-158 0 -266 120 -266 275c0 159 116 273 264 273c69 0 134 -20 182 -70v58h249zM338 147
c82 0 140 46 140 148c0 87 -58 148 -140 148c-79 0 -136 -63 -136 -149c0 -84 57 -147 136 -147z" />
    <glyph glyph-name="i.ss07" horiz-adv-x="334" 
d="M104 610v130h171v-130h-171zM33 553h238v-553h-165v472h-73v81z" />
    <glyph glyph-name="k.ss07" horiz-adv-x="643" 
d="M453 554h185l-181 -278l177 -276h-189l-130 231h-81v-231h-165v738h165v-426h77z" />
    <glyph glyph-name="q.ss07" horiz-adv-x="785" 
d="M728 554v-81h-81v-657h-165v245c-46 -50 -109 -73 -179 -73c-150 0 -266 117 -266 287s118 291 265 291c70 0 134 -23 180 -73v61h246zM340 131c83 0 142 55 142 146c0 90 -59 147 -142 147c-82 0 -138 -59 -138 -148c0 -86 57 -145 138 -145z" />
    <glyph glyph-name="t.ss07" horiz-adv-x="461" 
d="M397 149l32 -122c-37 -24 -86 -39 -129 -39c-133 0 -198 64 -198 194v290h-72v82h75l10 145h153v-145h143v-82h-143v-272c0 -47 23 -72 66 -72c24 0 47 8 63 21z" />
    <glyph glyph-name="x.ss07" horiz-adv-x="660" 
d="M644 554l-136 -282l131 -272h-177l-93 231h-77l-95 -231h-176l132 272l-138 282h178c14 -49 74 -172 103 -245h69c29 73 88 196 101 245h178z" />
    <glyph glyph-name="y.ss07" horiz-adv-x="668" 
d="M476 554h177l-192 -453l-33 -83l-23 -50c-50 -117 -67 -151 -67 -151h-171s68 144 90 193l31 74h-51l-215 470h176l146 -401h2z" />
    <glyph glyph-name="c.ss09" horiz-adv-x="570" 
d="M340 -12c-173 0 -303 121 -303 289c0 167 130 288 309 288c76 0 151 -25 207 -74l-75 -116c-33 32 -73 49 -127 49c-82 0 -146 -58 -146 -147c0 -92 62 -148 147 -148c55 0 93 18 126 50l75 -115c-55 -51 -130 -76 -213 -76z" />
    <glyph glyph-name="e.ss09" horiz-adv-x="638" 
d="M490 175l83 -94c-49 -52 -123 -92 -227 -92c-179 0 -309 121 -309 288c0 166 124 287 304 287c173 0 231 -105 231 -176c0 -100 -75 -173 -359 -188c23 -51 72 -78 141 -78c55 0 99 16 136 53zM337 436c-63 0 -121 -42 -135 -123c128 6 214 19 214 70c0 33 -28 53 -79 53
z" />
    <glyph glyph-name="f.ss10" horiz-adv-x="504" 
d="M383 429c-56 0 -95 -23 -95 -77v-2h184v-133h-184v-217h-166v217h-89v133h89v22c0 124 98 197 221 197c67 0 120 -8 149 -15l-20 -135c-31 8 -57 10 -89 10z" />
    <glyph glyph-name="q.ss10" horiz-adv-x="607" 
d="M570 338c0 -83 -38 -151 -101 -192l76 -146h-182l-48 100h-9c-159 0 -269 98 -269 238c0 133 110 227 267 227c156 0 266 -94 266 -227zM208 335c0 -59 37 -94 95 -94c61 0 97 34 97 94c0 58 -37 90 -97 90c-58 0 -95 -32 -95 -90z" />
    <glyph glyph-name="t.ss10" horiz-adv-x="503" 
d="M310 -12c-125 0 -198 67 -198 193v236h-82v40l207 159h40v-63h176v-136h-176v-214c0 -46 31 -73 72 -73c29 0 60 7 91 21l31 -124c-48 -27 -106 -39 -161 -39z" />
    <glyph glyph-name="y.ss10" horiz-adv-x="667" 
d="M447 462v91h165v-296c0 -239 -179 -269 -303 -269c-113 0 -207 32 -249 63l51 119c44 -21 112 -44 173 -44c63 0 163 12 163 132v2c-40 -45 -100 -73 -175 -73c-123 0 -211 75 -211 221v145h164v-124c0 -73 36 -112 99 -112c68 0 123 60 123 145z" />
    <glyph glyph-name="i.ss11" horiz-adv-x="428" 
d="M31 616h246v-27h-246v27zM388 149l32 -125c-38 -20 -88 -36 -133 -36c-112 0 -177 51 -177 184v245h-80v136h245v-369c0 -36 21 -54 45 -54c21 0 41 7 68 19z" />
    <glyph glyph-name="j.ss11" horiz-adv-x="498" 
d="M473 584h-335v21h335v-21zM213 -12c-87 0 -168 41 -207 101l88 98c26 -35 62 -60 101 -60c49 0 83 33 83 84v206h-172v136h337v-348c0 -131 -76 -217 -230 -217z" />
    <glyph glyph-name="g.ss12" horiz-adv-x="605" 
d="M514 267c26 -22 47 -55 47 -102c0 -109 -100 -177 -264 -177c-120 0 -215 41 -253 64l53 116c50 -28 124 -52 195 -52c64 0 98 19 98 56c0 5 -1 9 -1 14c-29 -9 -61 -13 -95 -13c-151 0 -257 82 -257 200c0 113 105 192 255 192h282l5 -124l-62 9c19 -22 30 -51 30 -84
c0 -36 -12 -70 -33 -99zM293 288c58 0 92 29 92 79c0 51 -36 77 -92 77s-91 -26 -91 -76s35 -80 91 -80z" />
    <glyph glyph-name="Aacute" unicode="&#xc1;" horiz-adv-x="805" 
d="M434 880l141 -30l-113 -107l-116 7zM796 0h-182l-48 118h-330l-49 -118h-178l307 700h172zM402 518l-112 -269h222z" />
    <glyph glyph-name="Abreve" unicode="&#x102;" horiz-adv-x="805" 
d="M398 740c-102 0 -167 57 -167 146l116 2c0 -42 15 -61 51 -61s52 19 52 61l116 -2c0 -89 -65 -146 -168 -146zM796 0h-182l-48 118h-330l-49 -118h-178l307 700h172zM402 518l-112 -269h222z" />
    <glyph glyph-name="uni1EAE" unicode="&#x1eae;" horiz-adv-x="805" 
d="M434 1041l141 -30l-113 -107l-116 7zM398 740c-102 0 -167 57 -167 146l116 2c0 -42 15 -61 51 -61s52 19 52 61l116 -2c0 -89 -65 -146 -168 -146zM796 0h-182l-48 118h-330l-49 -118h-178l307 700h172zM402 518l-112 -269h222z" />
    <glyph glyph-name="uni1EB6" unicode="&#x1eb6;" horiz-adv-x="805" 
d="M398 740c-102 0 -167 57 -167 146l116 2c0 -42 15 -61 51 -61s52 19 52 61l116 -2c0 -89 -65 -146 -168 -146zM488 700l308 -700h-182l-48 118h-330l-49 -118h-178l307 700h172zM402 518l-112 -269h222zM479 -173h-171v130h171v-130z" />
    <glyph glyph-name="uni1EB0" unicode="&#x1eb0;" horiz-adv-x="805" 
d="M370 1041l88 -130l-116 -7l-113 107zM398 827c36 0 52 19 52 61l116 -2c0 -89 -65 -146 -168 -146c-102 0 -167 57 -167 146l116 2c0 -42 15 -61 51 -61zM796 0h-182l-48 118h-330l-49 -118h-178l307 700h172zM402 518l-112 -269h222z" />
    <glyph glyph-name="uni1EB2" unicode="&#x1eb2;" horiz-adv-x="805" 
d="M384 978c0 19 -22 37 -55 17l-6 57c90 47 146 5 146 -41c0 -48 -34 -90 -57 -111l-56 16c13 18 28 39 28 62zM398 740c-102 0 -167 57 -167 146l116 2c0 -42 15 -61 51 -61s52 19 52 61l116 -2c0 -89 -65 -146 -168 -146zM796 0h-182l-48 118h-330l-49 -118h-178l307 700
h172zM402 518l-112 -269h222z" />
    <glyph glyph-name="uni1EB4" unicode="&#x1eb4;" horiz-adv-x="805" 
d="M340 943c-25 0 -42 -17 -42 -43l-75 19c0 71 41 116 100 116c55 0 100 -32 133 -32c25 0 43 16 43 41l75 -17c0 -73 -41 -116 -101 -116c-55 0 -98 32 -133 32zM398 827c36 0 52 19 52 61l116 -2c0 -89 -65 -146 -168 -146c-102 0 -167 57 -167 146l116 2
c0 -42 15 -61 51 -61zM796 0h-182l-48 118h-330l-49 -118h-178l307 700h172zM402 518l-112 -269h222z" />
    <glyph glyph-name="uni01CD" unicode="&#x1cd;" horiz-adv-x="805" 
d="M331 744l-108 129l133 7l48 -76l47 76l133 -7l-107 -129h-146zM796 0h-182l-48 118h-330l-49 -118h-178l307 700h172zM402 518l-112 -269h222z" />
    <glyph glyph-name="Acircumflex" unicode="&#xc2;" horiz-adv-x="805" 
d="M451 746l-47 77l-48 -77l-133 6l108 132h146l107 -132zM796 0h-182l-48 118h-330l-49 -118h-178l307 700h172zM402 518l-112 -269h222z" />
    <glyph glyph-name="uni1EA4" unicode="&#x1ea4;" horiz-adv-x="805" 
d="M619 930l123 -26l-99 -94l-101 6zM451 746l-47 77l-48 -77l-133 6l108 132h146l107 -132zM796 0h-182l-48 118h-330l-49 -118h-178l307 700h172zM402 518l-112 -269h222z" />
    <glyph glyph-name="uni1EAC" unicode="&#x1eac;" horiz-adv-x="805" 
d="M451 746l-47 77l-48 -77l-133 6l108 132h146l107 -132zM488 700l308 -700h-182l-48 118h-330l-49 -118h-178l307 700h172zM402 518l-112 -269h222zM479 -173h-171v130h171v-130z" />
    <glyph glyph-name="uni1EA6" unicode="&#x1ea6;" horiz-adv-x="805" 
d="M200 932l77 -114l-101 -6l-99 94zM404 823l-48 -77l-133 6l108 132h146l107 -132l-133 -6zM796 0h-182l-48 118h-330l-49 -118h-178l307 700h172zM402 518l-112 -269h222z" />
    <glyph glyph-name="uni1EA8" unicode="&#x1ea8;" horiz-adv-x="805" 
d="M595 857c0 21 -24 39 -57 18l-7 60c94 48 153 5 153 -43c0 -50 -36 -94 -60 -116l-59 17c14 19 30 41 30 64zM451 746l-47 77l-48 -77l-133 6l108 132h146l107 -132zM796 0h-182l-48 118h-330l-49 -118h-178l307 700h172zM402 518l-112 -269h222z" />
    <glyph glyph-name="uni1EAA" unicode="&#x1eaa;" horiz-adv-x="805" 
d="M340 961c-25 0 -42 -17 -42 -43l-75 19c0 71 41 116 100 116c55 0 100 -32 133 -32c25 0 43 16 43 41l75 -17c0 -73 -41 -116 -101 -116c-55 0 -98 32 -133 32zM451 746l-47 77l-48 -77l-133 6l108 132h146l107 -132zM796 0h-182l-48 118h-330l-49 -118h-178l307 700h172
zM402 518l-112 -269h222z" />
    <glyph glyph-name="Adieresis" unicode="&#xc4;" horiz-adv-x="805" 
d="M261 878h128v-124h-128v124zM429 878h127v-124h-127v124zM796 0h-182l-48 118h-330l-49 -118h-178l307 700h172zM402 518l-112 -269h222z" />
    <glyph glyph-name="uni1EA0" unicode="&#x1ea0;" horiz-adv-x="805" 
d="M488 700l308 -700h-182l-48 118h-330l-49 -118h-178l307 700h172zM402 518l-112 -269h222zM479 -173h-171v130h171v-130z" />
    <glyph glyph-name="Agrave" unicode="&#xc0;" horiz-adv-x="805" 
d="M370 880l88 -130l-116 -7l-113 107zM796 0h-182l-48 118h-330l-49 -118h-178l307 700h172zM402 518l-112 -269h222z" />
    <glyph glyph-name="uni1EA2" unicode="&#x1ea2;" horiz-adv-x="805" 
d="M387 830c0 24 -26 44 -65 21l-8 68c108 55 175 6 175 -49c0 -57 -41 -107 -69 -132l-66 19c15 22 33 46 33 73zM796 0h-182l-48 118h-330l-49 -118h-178l307 700h172zM402 518l-112 -269h222z" />
    <glyph glyph-name="Amacron" unicode="&#x100;" horiz-adv-x="805" 
d="M224 860h347v-94h-347v94zM796 0h-182l-48 118h-330l-49 -118h-178l307 700h172zM402 518l-112 -269h222z" />
    <glyph glyph-name="Aogonek" unicode="&#x104;" horiz-adv-x="805" 
d="M822 -105l7 -93c-162 -35 -239 15 -239 86c0 46 35 86 79 112h-55l-48 118h-330l-49 -118h-178l307 700h172l308 -700h1c-40 -24 -62 -50 -62 -73c0 -32 30 -43 87 -32zM402 518l-112 -269h222z" />
    <glyph glyph-name="Aring" unicode="&#xc5;" horiz-adv-x="805" 
d="M796 0h-182l-48 118h-330l-49 -118h-178l295 673c-23 22 -36 52 -36 87c0 72 56 123 135 123c78 0 135 -51 135 -123c0 -35 -14 -66 -38 -88zM403 813c-31 0 -55 -23 -55 -53c0 -31 24 -52 55 -52c30 0 54 21 54 52c0 30 -24 53 -54 53zM402 518l-112 -269h222z" />
    <glyph glyph-name="Aringacute" unicode="&#x1fa;" horiz-adv-x="805" 
d="M423 1046l141 -30l-113 -107l-116 7zM796 0h-182l-48 118h-330l-49 -118h-178l297 678c-24 22 -38 53 -38 89c0 72 56 123 135 123c78 0 135 -51 135 -123c0 -36 -15 -68 -40 -90zM403 820c-31 0 -55 -22 -55 -53s24 -52 55 -52c30 0 54 21 54 52s-24 53 -54 53zM402 518
l-112 -269h222z" />
    <glyph glyph-name="Atilde" unicode="&#xc3;" horiz-adv-x="805" 
d="M340 782c-25 0 -42 -17 -42 -43l-75 19c0 71 41 116 100 116c55 0 100 -32 133 -32c25 0 43 16 43 41l75 -17c0 -73 -41 -116 -101 -116c-55 0 -98 32 -133 32zM796 0h-182l-48 118h-330l-49 -118h-178l307 700h172zM402 518l-112 -269h222z" />
    <glyph glyph-name="AEacute" unicode="&#x1fc;" horiz-adv-x="1119" 
d="M730 880l141 -30l-113 -107l-116 7zM665 291v-149h411v-142h-580v141h-233l-76 -141h-178l373 700h685v-142h-402v-132h355v-135h-355zM489 558l-155 -287h162v287h-7z" />
    <glyph glyph-name="Cacute" unicode="&#x106;" horiz-adv-x="730" 
d="M602 849l-113 -107l-116 7l88 130zM428 -12c-215 0 -379 154 -379 362s160 362 373 362c116 0 214 -39 288 -119l-111 -103c-44 48 -99 74 -169 74c-115 0 -204 -85 -204 -213c0 -130 89 -214 203 -214c66 0 125 26 172 75l111 -102c-69 -82 -170 -122 -284 -122z" />
    <glyph glyph-name="Ccaron" unicode="&#x10c;" horiz-adv-x="730" 
d="M358 743l-108 129l133 7l48 -76l47 76l133 -7l-107 -129h-146zM601 212l111 -102c-69 -82 -170 -122 -284 -122c-215 0 -379 154 -379 362s160 362 373 362c116 0 214 -39 288 -119l-111 -103c-44 48 -99 74 -169 74c-115 0 -204 -85 -204 -213c0 -130 89 -214 203 -214
c66 0 125 26 172 75z" />
    <glyph glyph-name="Ccedilla" unicode="&#xc7;" horiz-adv-x="730" 
d="M601 212l111 -102c-60 -71 -144 -111 -239 -120l-8 -26c45 -8 72 -35 72 -69c0 -48 -49 -77 -130 -77c-28 0 -50 2 -70 6l15 70c12 -3 27 -5 38 -5c18 0 29 5 29 16c0 13 -12 23 -53 20l18 65c-193 20 -335 166 -335 360c0 208 160 362 373 362c116 0 214 -39 288 -119
l-111 -103c-44 48 -99 74 -169 74c-115 0 -204 -85 -204 -213c0 -130 89 -214 203 -214c66 0 125 26 172 75z" />
    <glyph glyph-name="Ccircumflex" unicode="&#x108;" horiz-adv-x="730" 
d="M478 745l-47 77l-48 -77l-133 6l108 132h146l107 -132zM601 212l111 -102c-69 -82 -170 -122 -284 -122c-215 0 -379 154 -379 362s160 362 373 362c116 0 214 -39 288 -119l-111 -103c-44 48 -99 74 -169 74c-115 0 -204 -85 -204 -213c0 -130 89 -214 203 -214
c66 0 125 26 172 75z" />
    <glyph glyph-name="Cdotaccent" unicode="&#x10a;" horiz-adv-x="730" 
d="M514 752h-171v126h171v-126zM428 -12c-215 0 -379 154 -379 362s160 362 373 362c116 0 214 -39 288 -119l-111 -103c-44 48 -99 74 -169 74c-115 0 -204 -85 -204 -213c0 -130 89 -214 203 -214c66 0 125 26 172 75l111 -102c-69 -82 -170 -122 -284 -122z" />
    <glyph glyph-name="Dcaron" unicode="&#x10e;" horiz-adv-x="826" 
d="M252 744l-108 129l133 7l48 -76l47 76l133 -7l-107 -129h-146zM76 700h311c237 0 389 -137 389 -349c0 -214 -152 -351 -389 -351h-311v700zM248 147h131c135 0 219 76 219 203c0 128 -84 203 -219 203h-131v-406z" />
    <glyph glyph-name="Dcroat" unicode="&#x110;" horiz-adv-x="826" 
d="M76 700h311c237 0 389 -137 389 -349c0 -214 -152 -351 -389 -351h-311v307h-50v92h50v301zM248 147h131c135 0 219 76 219 203c0 128 -84 203 -219 203h-131v-154h184v-92h-184v-160z" />
    <glyph glyph-name="uni1E0C" unicode="&#x1e0c;" horiz-adv-x="826" 
d="M387 0h-311v700h311c237 0 389 -137 389 -349c0 -214 -152 -351 -389 -351zM248 553v-406h131c135 0 219 76 219 203c0 128 -84 203 -219 203h-131zM256 -173v130h171v-130h-171z" />
    <glyph glyph-name="uni1E0E" unicode="&#x1e0e;" horiz-adv-x="826" 
d="M387 0h-311v700h311c237 0 389 -137 389 -349c0 -214 -152 -351 -389 -351zM248 553v-406h131c135 0 219 76 219 203c0 128 -84 203 -219 203h-131zM522 -136h-347v95h347v-95z" />
    <glyph glyph-name="Eacute" unicode="&#xc9;" horiz-adv-x="698" 
d="M379 880l141 -30l-113 -107l-116 7zM245 291v-149h411v-142h-580v700h570v-142h-401v-132h355v-135h-355z" />
    <glyph glyph-name="Ebreve" unicode="&#x114;" horiz-adv-x="698" 
d="M343 740c-102 0 -167 57 -167 146l116 2c0 -42 15 -61 51 -61s52 19 52 61l116 -2c0 -89 -65 -146 -168 -146zM245 291v-149h411v-142h-580v700h570v-142h-401v-132h355v-135h-355z" />
    <glyph glyph-name="Ecaron" unicode="&#x11a;" horiz-adv-x="698" 
d="M276 744l-108 129l133 7l48 -76l47 76l133 -7l-107 -129h-146zM245 291v-149h411v-142h-580v700h570v-142h-401v-132h355v-135h-355z" />
    <glyph glyph-name="Ecircumflex" unicode="&#xca;" horiz-adv-x="698" 
d="M396 746l-47 77l-48 -77l-133 6l108 132h146l107 -132zM245 291v-149h411v-142h-580v700h570v-142h-401v-132h355v-135h-355z" />
    <glyph glyph-name="uni1EBE" unicode="&#x1ebe;" horiz-adv-x="698" 
d="M566 917l123 -26l-99 -94l-101 6zM396 746l-47 77l-48 -77l-133 6l108 132h146l107 -132zM600 291h-355v-149h411v-142h-580v700h570v-142h-401v-132h355v-135z" />
    <glyph glyph-name="uni1EC6" unicode="&#x1ec6;" horiz-adv-x="698" 
d="M396 746l-47 77l-48 -77l-133 6l108 132h146l107 -132zM245 291v-149h411v-142h-580v700h570v-142h-401v-132h355v-135h-355zM424 -173h-171v130h171v-130z" />
    <glyph glyph-name="uni1EC0" unicode="&#x1ec0;" horiz-adv-x="698" 
d="M168 752l46 56l-79 -5l-99 93l123 27l67 -100l50 61h146l107 -132l-133 -6l-47 77l-48 -77zM245 291v-149h411v-142h-580v700h570v-142h-401v-132h355v-135h-355z" />
    <glyph glyph-name="uni1EC2" unicode="&#x1ec2;" horiz-adv-x="698" 
d="M534 860c0 19 -22 36 -54 16l-6 56c89 46 144 5 144 -40c0 -46 -34 -88 -57 -109l-55 16c13 18 28 38 28 61zM396 746l-47 77l-48 -77l-133 6l108 132h146l107 -132zM245 291v-149h411v-142h-580v700h570v-142h-401v-132h355v-135h-355z" />
    <glyph glyph-name="uni1EC4" unicode="&#x1ec4;" horiz-adv-x="698" 
d="M284 961c-25 0 -42 -17 -42 -43l-75 19c0 71 41 116 100 116c55 0 100 -32 133 -32c25 0 43 16 43 41l75 -17c0 -73 -41 -116 -101 -116c-55 0 -98 32 -133 32zM422 884l107 -132l-133 -6l-47 77l-48 -77l-133 6l108 132h146zM245 291v-149h411v-142h-580v700h570v-142
h-401v-132h355v-135h-355z" />
    <glyph glyph-name="Edieresis" unicode="&#xcb;" horiz-adv-x="698" 
d="M206 878h128v-124h-128v124zM374 878h127v-124h-127v124zM245 291v-149h411v-142h-580v700h570v-142h-401v-132h355v-135h-355z" />
    <glyph glyph-name="Edotaccent" unicode="&#x116;" horiz-adv-x="698" 
d="M262 879h171v-126h-171v126zM245 291v-149h411v-142h-580v700h570v-142h-401v-132h355v-135h-355z" />
    <glyph glyph-name="uni1EB8" unicode="&#x1eb8;" horiz-adv-x="698" 
d="M245 291v-149h411v-142h-580v700h570v-142h-401v-132h355v-135h-355zM424 -173h-171v130h171v-130z" />
    <glyph glyph-name="Egrave" unicode="&#xc8;" horiz-adv-x="698" 
d="M314 880l88 -130l-116 -7l-113 107zM245 291v-149h411v-142h-580v700h570v-142h-401v-132h355v-135h-355z" />
    <glyph glyph-name="uni1EBA" unicode="&#x1eba;" horiz-adv-x="698" 
d="M332 830c0 24 -26 44 -65 21l-8 68c108 55 175 6 175 -49c0 -57 -41 -107 -69 -132l-66 19c15 22 33 46 33 73zM245 291v-149h411v-142h-580v700h570v-142h-401v-132h355v-135h-355z" />
    <glyph glyph-name="Emacron" unicode="&#x112;" horiz-adv-x="698" 
d="M169 860h347v-94h-347v94zM245 291v-149h411v-142h-580v700h570v-142h-401v-132h355v-135h-355z" />
    <glyph glyph-name="Eogonek" unicode="&#x118;" horiz-adv-x="698" 
d="M682 -105l7 -93c-162 -35 -239 15 -239 86c0 46 35 86 79 112h-453v700h570v-142h-401v-132h355v-135h-355v-149h411v-142h1c-40 -24 -62 -50 -62 -73c0 -32 30 -43 87 -32z" />
    <glyph glyph-name="uni1EBC" unicode="&#x1ebc;" horiz-adv-x="698" 
d="M284 782c-25 0 -42 -17 -42 -43l-75 19c0 71 41 116 100 116c55 0 100 -32 133 -32c25 0 43 16 43 41l75 -17c0 -73 -41 -116 -101 -116c-55 0 -98 32 -133 32zM245 291v-149h411v-142h-580v700h570v-142h-401v-132h355v-135h-355z" />
    <glyph glyph-name="Gbreve" unicode="&#x11e;" horiz-adv-x="780" 
d="M436 740c-102 0 -167 57 -167 146l116 2c0 -42 15 -61 51 -61s52 19 52 61l116 -2c0 -89 -65 -146 -168 -146zM567 173v193h155v-271c-76 -68 -182 -107 -292 -107c-221 0 -381 152 -381 361c0 211 158 363 377 363c105 0 205 -38 282 -118l-110 -103
c-49 49 -104 72 -168 72c-116 0 -205 -82 -205 -214c0 -131 86 -214 214 -214c56 0 96 15 128 38z" />
    <glyph glyph-name="Gcaron" unicode="&#x1e6;" horiz-adv-x="780" 
d="M370 744l-108 129l133 7l48 -76l47 76l133 -7l-107 -129h-146zM567 173v193h155v-271c-76 -68 -182 -107 -292 -107c-221 0 -381 152 -381 361c0 211 158 363 377 363c105 0 205 -38 282 -118l-110 -103c-49 49 -104 72 -168 72c-116 0 -205 -82 -205 -214
c0 -131 86 -214 214 -214c56 0 96 15 128 38z" />
    <glyph glyph-name="Gcircumflex" unicode="&#x11c;" horiz-adv-x="780" 
d="M490 746l-47 77l-48 -77l-133 6l108 132h146l107 -132zM567 173v193h155v-271c-76 -68 -182 -107 -292 -107c-221 0 -381 152 -381 361c0 211 158 363 377 363c105 0 205 -38 282 -118l-110 -103c-49 49 -104 72 -168 72c-116 0 -205 -82 -205 -214
c0 -131 86 -214 214 -214c56 0 96 15 128 38z" />
    <glyph glyph-name="uni0122" unicode="&#x122;" horiz-adv-x="780" 
d="M430 -12c-221 0 -381 152 -381 361c0 211 158 363 377 363c105 0 205 -38 282 -118l-110 -103c-49 49 -104 72 -168 72c-116 0 -205 -82 -205 -214c0 -131 86 -214 214 -214c56 0 96 15 128 38v193h155v-271c-76 -68 -182 -107 -292 -107zM355 -240l-25 49
c41 15 53 37 52 65h-56v90h131c32 -123 -24 -178 -102 -204z" />
    <glyph glyph-name="Gdotaccent" unicode="&#x120;" horiz-adv-x="780" 
d="M526 753h-171v126h171v-126zM430 -12c-221 0 -381 152 -381 361c0 211 158 363 377 363c105 0 205 -38 282 -118l-110 -103c-49 49 -104 72 -168 72c-116 0 -205 -82 -205 -214c0 -131 86 -214 214 -214c56 0 96 15 128 38v193h155v-271c-76 -68 -182 -107 -292 -107z
" />
    <glyph glyph-name="uni1E20" unicode="&#x1e20;" horiz-adv-x="780" 
d="M610 766h-347v94h347v-94zM430 -12c-221 0 -381 152 -381 361c0 211 158 363 377 363c105 0 205 -38 282 -118l-110 -103c-49 49 -104 72 -168 72c-116 0 -205 -82 -205 -214c0 -131 86 -214 214 -214c56 0 96 15 128 38v193h155v-271c-76 -68 -182 -107 -292 -107z" />
    <glyph glyph-name="Hbar" unicode="&#x126;" horiz-adv-x="801" 
d="M725 606h43v-91h-43v-515h-173v275h-303v-275h-173v515h-34v91h34v94h173v-94h303v94h173v-94zM249 422h303v93h-303v-93z" />
    <glyph glyph-name="uni1E2A" unicode="&#x1e2a;" horiz-adv-x="801" 
d="M552 422v278h173v-700h-173v275h-303v-275h-173v700h173v-278h303zM403 -80c30 0 43 15 43 46l98 -1c0 -68 -55 -112 -141 -112s-141 44 -141 112l98 1c0 -31 13 -46 43 -46z" />
    <glyph glyph-name="Hcircumflex" unicode="&#x124;" horiz-adv-x="801" 
d="M449 746l-47 77l-48 -77l-133 6l108 132h146l107 -132zM552 422v278h173v-700h-173v275h-303v-275h-173v700h173v-278h303z" />
    <glyph glyph-name="uni1E24" unicode="&#x1e24;" horiz-adv-x="801" 
d="M552 422v278h173v-700h-173v275h-303v-275h-173v700h173v-278h303zM477 -173h-171v130h171v-130z" />
    <glyph glyph-name="IJ" unicode="&#x132;" horiz-adv-x="913" 
d="M248 0h-172v700h172v-700zM585 -12c-112 0 -205 51 -255 130l110 99c32 -46 74 -79 135 -79c68 0 113 52 113 125v296h-228v141h394v-437c0 -163 -110 -275 -269 -275z" />
    <glyph glyph-name="Iacute" unicode="&#xcd;" horiz-adv-x="324" 
d="M335 850l-113 -107l-116 7l88 130zM248 0h-172v700h172v-700z" />
    <glyph glyph-name="Ibreve" unicode="&#x12c;" horiz-adv-x="324" 
d="M210 888l116 -2c0 -89 -65 -146 -168 -146c-102 0 -167 57 -167 146l116 2c0 -42 15 -61 51 -61s52 19 52 61zM248 0h-172v700h172v-700z" />
    <glyph glyph-name="uni01CF" unicode="&#x1cf;" horiz-adv-x="324" 
d="M91 744l-108 129l133 7l48 -76l47 76l133 -7l-107 -129h-146zM248 0h-172v700h172v-700z" />
    <glyph glyph-name="Icircumflex" unicode="&#xce;" horiz-adv-x="324" 
d="M211 746l-47 77l-48 -77l-133 6l108 132h146l107 -132zM248 0h-172v700h172v-700z" />
    <glyph glyph-name="Idieresis" unicode="&#xcf;" horiz-adv-x="324" 
d="M149 754h-128v124h128v-124zM316 754h-127v124h127v-124zM248 0h-172v700h172v-700z" />
    <glyph glyph-name="Idotaccent" unicode="&#x130;" horiz-adv-x="324" 
d="M248 753h-171v126h171v-126zM248 0h-172v700h172v-700z" />
    <glyph glyph-name="uni1ECA" unicode="&#x1eca;" horiz-adv-x="324" 
d="M248 0h-172v700h172v-700zM68 -173v130h171v-130h-171z" />
    <glyph glyph-name="Igrave" unicode="&#xcc;" horiz-adv-x="324" 
d="M218 750l-116 -7l-113 107l141 30zM248 0h-172v700h172v-700z" />
    <glyph glyph-name="uni1EC8" unicode="&#x1ec8;" horiz-adv-x="324" 
d="M180 738l-66 19c15 22 33 46 33 73c0 24 -26 44 -65 21l-8 68c108 55 175 6 175 -49c0 -57 -41 -107 -69 -132zM248 0h-172v700h172v-700z" />
    <glyph glyph-name="Imacron" unicode="&#x12a;" horiz-adv-x="324" 
d="M331 766h-347v94h347v-94zM248 0h-172v700h172v-700z" />
    <glyph glyph-name="Iogonek" unicode="&#x12e;" horiz-adv-x="324" 
d="M253 -105l7 -93c-162 -35 -239 15 -239 86c0 46 35 86 79 112h-24v700h172v-700h-20c-40 -24 -62 -50 -62 -73c0 -32 30 -43 87 -32z" />
    <glyph glyph-name="Itilde" unicode="&#x128;" horiz-adv-x="324" 
d="M58 739l-76 19c0 71 42 116 101 116c55 0 100 -32 133 -32c25 0 43 16 43 41l75 -17c0 -73 -41 -116 -101 -116c-55 0 -98 32 -133 32c-25 0 -42 -17 -42 -43zM248 0h-172v700h172v-700z" />
    <glyph glyph-name="Jcircumflex" unicode="&#x134;" horiz-adv-x="589" 
d="M388 746l-47 77l-48 -77l-133 6l108 132h146l107 -132zM136 559v141h394v-437c0 -163 -110 -275 -269 -275c-112 0 -205 51 -255 130l110 99c32 -46 74 -79 135 -79c68 0 113 52 113 125v296h-228z" />
    <glyph glyph-name="uni0136" unicode="&#x136;" horiz-adv-x="771" 
d="M741 700l-261 -293l276 -407h-194l-193 282l-121 -135v-147h-172v700h172v-345l287 345h206zM315 -126v90h131c32 -123 -24 -178 -102 -204l-25 49c41 15 53 37 52 65h-56z" />
    <glyph glyph-name="Lacute" unicode="&#x139;" horiz-adv-x="624" 
d="M487 850l-113 -107l-116 7l88 130zM607 0h-531v700h170v-554h361v-146z" />
    <glyph glyph-name="Lcaron" unicode="&#x13d;" horiz-adv-x="624" 
d="M607 0h-531v700h170v-554h361v-146zM451 475v225h123l-39 -225h-84z" />
    <glyph glyph-name="uni013B" unicode="&#x13b;" horiz-adv-x="624" 
d="M607 0h-531v700h170v-554h361v-146zM273 -240l-25 49c41 15 53 37 52 65h-56v90h131c32 -123 -24 -178 -102 -204z" />
    <glyph glyph-name="Ldot" unicode="&#x13f;" horiz-adv-x="624" 
d="M607 0h-531v700h170v-554h361v-146zM369 306v129h150v-129h-150z" />
    <glyph glyph-name="uni1E36" unicode="&#x1e36;" horiz-adv-x="624" 
d="M607 0h-531v700h170v-554h361v-146zM220 -173v130h171v-130h-171z" />
    <glyph glyph-name="uni1E38" unicode="&#x1e38;" horiz-adv-x="624" 
d="M483 766h-347v94h347v-94zM607 0h-531v700h170v-554h361v-146zM220 -173v130h171v-130h-171z" />
    <glyph glyph-name="uni1E3A" unicode="&#x1e3a;" horiz-adv-x="624" 
d="M607 0h-531v700h170v-554h361v-146zM487 -136h-347v95h347v-95z" />
    <glyph glyph-name="Lslash" unicode="&#x141;" horiz-adv-x="624" 
d="M246 350v-204h361v-146h-531v265l-50 -25l-36 71l86 43v346h170v-262l56 28l35 -71z" />
    <glyph glyph-name="uni1E42" unicode="&#x1e42;" horiz-adv-x="923" 
d="M462 336l226 364h159v-700h-167v415l-191 -301h-54l-192 301v-415h-167v700h160zM539 -173h-171v130h171v-130z" />
    <glyph glyph-name="Nacute" unicode="&#x143;" horiz-adv-x="812" 
d="M580 850l-113 -107l-116 7l88 130zM248 0h-172v700h146l342 -417v417h172v-700h-141l-347 424v-424z" />
    <glyph glyph-name="Ncaron" unicode="&#x147;" horiz-adv-x="812" 
d="M335 744l-108 129l133 7l48 -76l47 76l133 -7l-107 -129h-146zM564 283v417h172v-700h-141l-347 424v-424h-172v700h146z" />
    <glyph glyph-name="uni0145" unicode="&#x145;" horiz-adv-x="812" 
d="M248 0h-172v700h146l342 -417v417h172v-700h-141l-347 424v-424zM366 -240l-25 49c41 15 53 37 52 65h-56v90h131c32 -123 -24 -178 -102 -204z" />
    <glyph glyph-name="uni1E44" unicode="&#x1e44;" horiz-adv-x="812" 
d="M492 753h-171v126h171v-126zM248 0h-172v700h146l342 -417v417h172v-700h-141l-347 424v-424z" />
    <glyph glyph-name="uni1E46" unicode="&#x1e46;" horiz-adv-x="812" 
d="M248 0h-172v700h146l342 -417v417h172v-700h-141l-347 424v-424zM312 -173v130h171v-130h-171z" />
    <glyph glyph-name="uni1E48" unicode="&#x1e48;" horiz-adv-x="812" 
d="M248 0h-172v700h146l342 -417v417h172v-700h-141l-347 424v-424zM579 -136h-347v95h347v-95z" />
    <glyph glyph-name="Ntilde" unicode="&#xd1;" horiz-adv-x="812" 
d="M302 739l-75 19c0 71 41 116 100 116c55 0 100 -32 133 -32c25 0 43 16 43 41l75 -17c0 -73 -41 -116 -101 -116c-55 0 -98 32 -133 32c-25 0 -42 -17 -42 -43zM248 0h-172v700h146l342 -417v417h172v-700h-141l-347 424v-424z" />
    <glyph glyph-name="Oacute" unicode="&#xd3;" horiz-adv-x="855" 
d="M601 850l-113 -107l-116 7l88 130zM427 -12c-219 0 -378 151 -378 362c0 210 159 362 379 362c219 0 378 -151 378 -362c0 -210 -159 -362 -379 -362zM428 138c117 0 199 85 199 212s-82 212 -199 212c-118 0 -200 -85 -200 -212s82 -212 200 -212z" />
    <glyph glyph-name="Obreve" unicode="&#x14e;" horiz-adv-x="855" 
d="M423 740c-102 0 -167 57 -167 146l116 2c0 -42 15 -61 51 -61s52 19 52 61l116 -2c0 -89 -65 -146 -168 -146zM428 712c219 0 378 -151 378 -362c0 -210 -159 -362 -379 -362c-219 0 -378 151 -378 362c0 210 159 362 379 362zM428 138c117 0 199 85 199 212
s-82 212 -199 212c-118 0 -200 -85 -200 -212s82 -212 200 -212z" />
    <glyph glyph-name="uni01D1" unicode="&#x1d1;" horiz-adv-x="855" 
d="M357 744l-108 129l133 7l48 -76l47 76l133 -7l-107 -129h-146zM428 712c219 0 378 -151 378 -362c0 -210 -159 -362 -379 -362c-219 0 -378 151 -378 362c0 210 159 362 379 362zM428 138c117 0 199 85 199 212s-82 212 -199 212c-118 0 -200 -85 -200 -212
s82 -212 200 -212z" />
    <glyph glyph-name="Ocircumflex" unicode="&#xd4;" horiz-adv-x="855" 
d="M477 746l-47 77l-48 -77l-133 6l108 132h146l107 -132zM428 712c219 0 378 -151 378 -362c0 -210 -159 -362 -379 -362c-219 0 -378 151 -378 362c0 210 159 362 379 362zM428 138c117 0 199 85 199 212s-82 212 -199 212c-118 0 -200 -85 -200 -212s82 -212 200 -212z
" />
    <glyph glyph-name="uni1ED0" unicode="&#x1ed0;" horiz-adv-x="855" 
d="M460 1059l141 -30l-113 -107l-116 7zM477 746l-47 77l-48 -77l-133 6l108 132h146l107 -132zM428 712c219 0 378 -151 378 -362c0 -210 -159 -362 -379 -362c-219 0 -378 151 -378 362c0 210 159 362 379 362zM428 138c117 0 199 85 199 212s-82 212 -199 212
c-118 0 -200 -85 -200 -212s82 -212 200 -212z" />
    <glyph glyph-name="uni1ED8" unicode="&#x1ed8;" horiz-adv-x="855" 
d="M477 746l-47 77l-48 -77l-133 6l108 132h146l107 -132zM428 712c219 0 378 -151 378 -362c0 -210 -159 -362 -379 -362c-219 0 -378 151 -378 362c0 210 159 362 379 362zM428 138c117 0 199 85 199 212s-82 212 -199 212c-118 0 -200 -85 -200 -212s82 -212 200 -212z
M504 -173h-171v130h171v-130z" />
    <glyph glyph-name="uni1ED2" unicode="&#x1ed2;" horiz-adv-x="855" 
d="M395 1059l88 -130l-116 -7l-113 107zM477 746l-47 77l-48 -77l-133 6l108 132h146l107 -132zM428 712c219 0 378 -151 378 -362c0 -210 -159 -362 -379 -362c-219 0 -378 151 -378 362c0 210 159 362 379 362zM428 138c117 0 199 85 199 212s-82 212 -199 212
c-118 0 -200 -85 -200 -212s82 -212 200 -212z" />
    <glyph glyph-name="uni1ED4" unicode="&#x1ed4;" horiz-adv-x="855" 
d="M413 1009c0 24 -26 44 -65 21l-8 68c108 55 175 6 175 -49c0 -57 -41 -107 -69 -132l-66 19c15 22 33 46 33 73zM477 746l-47 77l-48 -77l-133 6l108 132h146l107 -132zM428 712c219 0 378 -151 378 -362c0 -210 -159 -362 -379 -362c-219 0 -378 151 -378 362
c0 210 159 362 379 362zM428 138c117 0 199 85 199 212s-82 212 -199 212c-118 0 -200 -85 -200 -212s82 -212 200 -212z" />
    <glyph glyph-name="uni1ED6" unicode="&#x1ed6;" horiz-adv-x="855" 
d="M365 961c-25 0 -42 -17 -42 -43l-75 19c0 71 41 116 100 116c55 0 100 -32 133 -32c25 0 43 16 43 41l75 -17c0 -73 -41 -116 -101 -116c-55 0 -98 32 -133 32zM503 884l107 -132l-133 -6l-47 77l-48 -77l-133 6l108 132h146zM428 712c219 0 378 -151 378 -362
c0 -210 -159 -362 -379 -362c-219 0 -378 151 -378 362c0 210 159 362 379 362zM428 138c117 0 199 85 199 212s-82 212 -199 212c-118 0 -200 -85 -200 -212s82 -212 200 -212z" />
    <glyph glyph-name="Odieresis" unicode="&#xd6;" horiz-adv-x="855" 
d="M415 754h-128v124h128v-124zM582 754h-127v124h127v-124zM427 -12c-219 0 -378 151 -378 362c0 210 159 362 379 362c219 0 378 -151 378 -362c0 -210 -159 -362 -379 -362zM428 138c117 0 199 85 199 212s-82 212 -199 212c-118 0 -200 -85 -200 -212s82 -212 200 -212z
" />
    <glyph glyph-name="uni1ECC" unicode="&#x1ecc;" horiz-adv-x="855" 
d="M427 -12c-219 0 -378 151 -378 362c0 210 159 362 379 362c219 0 378 -151 378 -362c0 -210 -159 -362 -379 -362zM428 138c117 0 199 85 199 212s-82 212 -199 212c-118 0 -200 -85 -200 -212s82 -212 200 -212zM333 -173v130h171v-130h-171z" />
    <glyph glyph-name="Ograve" unicode="&#xd2;" horiz-adv-x="855" 
d="M483 750l-116 -7l-113 107l141 30zM427 -12c-219 0 -378 151 -378 362c0 210 159 362 379 362c219 0 378 -151 378 -362c0 -210 -159 -362 -379 -362zM428 138c117 0 199 85 199 212s-82 212 -199 212c-118 0 -200 -85 -200 -212s82 -212 200 -212z" />
    <glyph glyph-name="uni1ECE" unicode="&#x1ece;" horiz-adv-x="855" 
d="M446 738l-66 19c15 22 33 46 33 73c0 24 -26 44 -65 21l-8 68c108 55 175 6 175 -49c0 -57 -41 -107 -69 -132zM427 -12c-219 0 -378 151 -378 362c0 210 159 362 379 362c219 0 378 -151 378 -362c0 -210 -159 -362 -379 -362zM428 138c117 0 199 85 199 212
s-82 212 -199 212c-118 0 -200 -85 -200 -212s82 -212 200 -212z" />
    <glyph glyph-name="Ohorn" unicode="&#x1a0;" horiz-adv-x="855" 
d="M653 766l142 7c36 -103 -2 -171 -73 -187c53 -62 84 -143 84 -236c0 -210 -159 -362 -379 -362c-219 0 -378 151 -378 362c0 210 159 362 379 362c62 0 120 -12 170 -35c51 4 75 26 55 89zM428 138c117 0 199 85 199 212s-82 212 -199 212c-118 0 -200 -85 -200 -212
s82 -212 200 -212z" />
    <glyph glyph-name="uni1EDA" unicode="&#x1eda;" horiz-adv-x="855" 
d="M460 880l141 -30l-113 -107l-116 7zM653 766l142 7c36 -103 -2 -171 -73 -187c53 -62 84 -143 84 -236c0 -210 -159 -362 -379 -362c-219 0 -378 151 -378 362c0 210 159 362 379 362c62 0 120 -12 170 -35c51 4 75 26 55 89zM428 138c117 0 199 85 199 212
s-82 212 -199 212c-118 0 -200 -85 -200 -212s82 -212 200 -212z" />
    <glyph glyph-name="uni1EE2" unicode="&#x1ee2;" horiz-adv-x="855" 
d="M653 766l142 7c36 -103 -2 -171 -73 -187c53 -62 84 -143 84 -236c0 -210 -159 -362 -379 -362c-219 0 -378 151 -378 362c0 210 159 362 379 362c62 0 120 -12 170 -35c51 4 75 26 55 89zM428 138c117 0 199 85 199 212s-82 212 -199 212c-118 0 -200 -85 -200 -212
s82 -212 200 -212zM504 -173h-171v130h171v-130z" />
    <glyph glyph-name="uni1EDC" unicode="&#x1edc;" horiz-adv-x="855" 
d="M395 880l88 -130l-116 -7l-113 107zM653 766l142 7c36 -103 -2 -171 -73 -187c53 -62 84 -143 84 -236c0 -210 -159 -362 -379 -362c-219 0 -378 151 -378 362c0 210 159 362 379 362c62 0 120 -12 170 -35c51 4 75 26 55 89zM428 138c117 0 199 85 199 212
s-82 212 -199 212c-118 0 -200 -85 -200 -212s82 -212 200 -212z" />
    <glyph glyph-name="uni1EDE" unicode="&#x1ede;" horiz-adv-x="855" 
d="M413 830c0 24 -26 44 -65 21l-8 68c108 55 175 6 175 -49c0 -57 -41 -107 -69 -132l-66 19c15 22 33 46 33 73zM653 766l142 7c36 -103 -2 -171 -73 -187c53 -62 84 -143 84 -236c0 -210 -159 -362 -379 -362c-219 0 -378 151 -378 362c0 210 159 362 379 362
c62 0 120 -12 170 -35c51 4 75 26 55 89zM428 138c117 0 199 85 199 212s-82 212 -199 212c-118 0 -200 -85 -200 -212s82 -212 200 -212z" />
    <glyph glyph-name="uni1EE0" unicode="&#x1ee0;" horiz-adv-x="855" 
d="M365 782c-25 0 -42 -17 -42 -43l-75 19c0 71 41 116 100 116c55 0 100 -32 133 -32c25 0 43 16 43 41l75 -17c0 -73 -41 -116 -101 -116c-55 0 -98 32 -133 32zM653 766l142 7c36 -103 -2 -171 -73 -187c53 -62 84 -143 84 -236c0 -210 -159 -362 -379 -362
c-219 0 -378 151 -378 362c0 210 159 362 379 362c62 0 120 -12 170 -35c51 4 75 26 55 89zM428 138c117 0 199 85 199 212s-82 212 -199 212c-118 0 -200 -85 -200 -212s82 -212 200 -212z" />
    <glyph glyph-name="Ohungarumlaut" unicode="&#x150;" horiz-adv-x="855" 
d="M453 849l-96 -107l-112 7l70 131zM659 849l-97 -107l-112 7l70 131zM427 -12c-219 0 -378 151 -378 362c0 210 159 362 379 362c219 0 378 -151 378 -362c0 -210 -159 -362 -379 -362zM428 138c117 0 199 85 199 212s-82 212 -199 212c-118 0 -200 -85 -200 -212
s82 -212 200 -212z" />
    <glyph glyph-name="Omacron" unicode="&#x14c;" horiz-adv-x="855" 
d="M596 766h-347v94h347v-94zM427 -12c-219 0 -378 151 -378 362c0 210 159 362 379 362c219 0 378 -151 378 -362c0 -210 -159 -362 -379 -362zM428 138c117 0 199 85 199 212s-82 212 -199 212c-118 0 -200 -85 -200 -212s82 -212 200 -212z" />
    <glyph glyph-name="uni01EA" unicode="&#x1ea;" horiz-adv-x="855" 
d="M620 34c-37 -24 -58 -49 -58 -71c0 -32 30 -43 87 -32l7 -93c-162 -35 -239 15 -239 86c0 23 9 45 23 64h-13c-219 0 -378 151 -378 362c0 210 159 362 379 362c219 0 378 -151 378 -362c0 -141 -72 -256 -186 -316zM228 350c0 -127 82 -212 200 -212
c117 0 199 85 199 212s-82 212 -199 212c-118 0 -200 -85 -200 -212z" />
    <glyph glyph-name="Oslash" unicode="&#xd8;" horiz-adv-x="855" 
d="M746 729l61 -61l-84 -84c53 -61 83 -142 83 -234c0 -210 -159 -362 -379 -362c-89 0 -168 25 -231 69l-72 -72l-61 61l69 69c-53 62 -83 143 -83 235c0 210 159 362 379 362c89 0 169 -25 232 -69zM228 350c0 -43 9 -81 26 -113l290 290c-32 23 -71 35 -116 35
c-118 0 -200 -85 -200 -212zM627 350c0 43 -9 81 -26 112l-289 -289c31 -23 71 -35 116 -35c117 0 199 85 199 212z" />
    <glyph glyph-name="Otilde" unicode="&#xd5;" horiz-adv-x="855" 
d="M323 739l-75 19c0 71 41 116 100 116c55 0 100 -32 133 -32c25 0 43 16 43 41l75 -17c0 -73 -41 -116 -101 -116c-55 0 -98 32 -133 32c-25 0 -42 -17 -42 -43zM427 -12c-219 0 -378 151 -378 362c0 210 159 362 379 362c219 0 378 -151 378 -362
c0 -210 -159 -362 -379 -362zM428 138c117 0 199 85 199 212s-82 212 -199 212c-118 0 -200 -85 -200 -212s82 -212 200 -212z" />
    <glyph glyph-name="Racute" unicode="&#x154;" horiz-adv-x="724" 
d="M403 880l141 -30l-113 -107l-116 7zM706 0h-200l-172 216h-86v-216h-172v700h304c194 0 311 -90 311 -243c0 -112 -62 -189 -172 -222zM375 557h-127v-203h127c91 0 144 28 144 100c0 70 -53 103 -144 103z" />
    <glyph glyph-name="Rcaron" unicode="&#x158;" horiz-adv-x="724" 
d="M300 744l-108 129l133 7l48 -76l47 76l133 -7l-107 -129h-146zM706 0h-200l-172 216h-86v-216h-172v700h304c194 0 311 -90 311 -243c0 -112 -62 -189 -172 -222zM375 557h-127v-203h127c91 0 144 28 144 100c0 70 -53 103 -144 103z" />
    <glyph glyph-name="uni0156" unicode="&#x156;" horiz-adv-x="724" 
d="M519 235l187 -235h-200l-172 216h-86v-216h-172v700h304c194 0 311 -90 311 -243c0 -112 -62 -189 -172 -222zM375 557h-127v-203h127c91 0 144 28 144 100c0 70 -53 103 -144 103zM301 -126v90h131c32 -123 -24 -178 -102 -204l-25 49c41 15 53 37 52 65h-56z" />
    <glyph glyph-name="uni1E5A" unicode="&#x1e5a;" horiz-adv-x="724" 
d="M519 235l187 -235h-200l-172 216h-86v-216h-172v700h304c194 0 311 -90 311 -243c0 -112 -62 -189 -172 -222zM375 557h-127v-203h127c91 0 144 28 144 100c0 70 -53 103 -144 103zM448 -173h-171v130h171v-130z" />
    <glyph glyph-name="uni1E5C" unicode="&#x1e5c;" horiz-adv-x="724" 
d="M193 860h347v-94h-347v94zM519 235l187 -235h-200l-172 216h-86v-216h-172v700h304c194 0 311 -90 311 -243c0 -112 -62 -189 -172 -222zM375 557h-127v-203h127c91 0 144 28 144 100c0 70 -53 103 -144 103zM448 -173h-171v130h171v-130z" />
    <glyph glyph-name="uni1E5E" unicode="&#x1e5e;" horiz-adv-x="724" 
d="M334 216h-86v-216h-172v700h304c194 0 311 -90 311 -243c0 -112 -62 -189 -172 -222l187 -235h-200zM375 557h-127v-203h127c91 0 144 28 144 100c0 70 -53 103 -144 103zM544 -136h-347v95h347v-95z" />
    <glyph glyph-name="Sacute" unicode="&#x15a;" horiz-adv-x="655" 
d="M503 850l-113 -107l-116 7l88 130zM337 -12c-125 0 -235 39 -310 97l70 124c77 -49 161 -82 246 -82c68 0 107 27 107 65c0 49 -42 64 -138 84c-160 34 -266 92 -266 224c0 140 123 212 283 212c106 0 196 -28 273 -88l-83 -113c-52 38 -122 62 -191 62
c-67 0 -106 -20 -106 -67c0 -40 36 -63 136 -85c176 -37 268 -86 268 -214c0 -137 -123 -219 -289 -219z" />
    <glyph glyph-name="Scaron" unicode="&#x160;" horiz-adv-x="655" 
d="M259 744l-108 129l133 7l48 -76l47 76l133 -7l-107 -129h-146zM358 421c176 -37 268 -86 268 -214c0 -137 -123 -219 -289 -219c-125 0 -235 39 -310 97l70 124c77 -49 161 -82 246 -82c68 0 107 27 107 65c0 49 -42 64 -138 84c-160 34 -266 92 -266 224
c0 140 123 212 283 212c106 0 196 -28 273 -88l-83 -113c-52 38 -122 62 -191 62c-67 0 -106 -20 -106 -67c0 -40 36 -63 136 -85z" />
    <glyph glyph-name="Scedilla" unicode="&#x15e;" horiz-adv-x="655" 
d="M626 207c0 -128 -108 -208 -257 -218l-7 -22c45 -8 72 -35 72 -69c0 -48 -49 -77 -130 -77c-28 0 -50 2 -70 6l15 70c12 -3 27 -5 38 -5c18 0 29 5 29 16c0 13 -12 23 -53 20l17 63c-101 9 -190 45 -253 94l70 124c77 -49 161 -82 246 -82c68 0 107 27 107 65
c0 49 -42 64 -138 84c-160 34 -266 92 -266 224c0 140 123 212 283 212c106 0 196 -28 273 -88l-83 -113c-52 38 -122 62 -191 62c-67 0 -106 -20 -106 -67c0 -40 36 -63 136 -85c176 -37 268 -86 268 -214z" />
    <glyph glyph-name="Scircumflex" unicode="&#x15c;" horiz-adv-x="655" 
d="M379 746l-47 77l-48 -77l-133 6l108 132h146l107 -132zM358 421c176 -37 268 -86 268 -214c0 -137 -123 -219 -289 -219c-125 0 -235 39 -310 97l70 124c77 -49 161 -82 246 -82c68 0 107 27 107 65c0 49 -42 64 -138 84c-160 34 -266 92 -266 224c0 140 123 212 283 212
c106 0 196 -28 273 -88l-83 -113c-52 38 -122 62 -191 62c-67 0 -106 -20 -106 -67c0 -40 36 -63 136 -85z" />
    <glyph glyph-name="uni0218" unicode="&#x218;" horiz-adv-x="655" 
d="M337 -12c-125 0 -235 39 -310 97l70 124c77 -49 161 -82 246 -82c68 0 107 27 107 65c0 49 -42 64 -138 84c-160 34 -266 92 -266 224c0 140 123 212 283 212c106 0 196 -28 273 -88l-83 -113c-52 38 -122 62 -191 62c-67 0 -106 -20 -106 -67c0 -40 36 -63 136 -85
c176 -37 268 -86 268 -214c0 -137 -123 -219 -289 -219zM289 -240l-25 49c41 15 53 37 52 65h-56v90h131c32 -123 -24 -178 -102 -204z" />
    <glyph glyph-name="uni1E60" unicode="&#x1e60;" horiz-adv-x="655" 
d="M415 753h-171v126h171v-126zM337 -12c-125 0 -235 39 -310 97l70 124c77 -49 161 -82 246 -82c68 0 107 27 107 65c0 49 -42 64 -138 84c-160 34 -266 92 -266 224c0 140 123 212 283 212c106 0 196 -28 273 -88l-83 -113c-52 38 -122 62 -191 62
c-67 0 -106 -20 -106 -67c0 -40 36 -63 136 -85c176 -37 268 -86 268 -214c0 -137 -123 -219 -289 -219z" />
    <glyph glyph-name="uni1E62" unicode="&#x1e62;" horiz-adv-x="655" 
d="M337 -12c-125 0 -235 39 -310 97l70 124c77 -49 161 -82 246 -82c68 0 107 27 107 65c0 49 -42 64 -138 84c-160 34 -266 92 -266 224c0 140 123 212 283 212c106 0 196 -28 273 -88l-83 -113c-52 38 -122 62 -191 62c-67 0 -106 -20 -106 -67c0 -40 36 -63 136 -85
c176 -37 268 -86 268 -214c0 -137 -123 -219 -289 -219zM236 -173v130h171v-130h-171z" />
    <glyph glyph-name="Tbar" unicode="&#x166;" horiz-adv-x="662" 
d="M637 700v-147h-220v-154h119v-92h-119v-307h-173v307h-114v92h114v154h-219v147h612z" />
    <glyph glyph-name="Tcaron" unicode="&#x164;" horiz-adv-x="662" 
d="M260 744l-108 129l133 7l48 -76l47 76l133 -7l-107 -129h-146zM25 700h612v-147h-220v-553h-173v553h-219v147z" />
    <glyph glyph-name="uni0162" unicode="&#x162;" horiz-adv-x="662" 
d="M417 553v-553h-44l-10 -33c45 -8 72 -35 72 -69c0 -48 -49 -77 -130 -77c-28 0 -50 2 -70 6l15 70c12 -3 27 -5 38 -5c18 0 29 5 29 16c0 13 -12 23 -53 20l20 72h-40v553h-219v147h612v-147h-220z" />
    <glyph glyph-name="uni021A" unicode="&#x21a;" horiz-adv-x="662" 
d="M25 700h612v-147h-220v-553h-173v553h-219v147zM261 -126v90h131c32 -123 -24 -178 -102 -204l-25 49c41 15 53 37 52 65h-56z" />
    <glyph glyph-name="uni1E6C" unicode="&#x1e6c;" horiz-adv-x="662" 
d="M25 700h612v-147h-220v-553h-173v553h-219v147zM408 -173h-171v130h171v-130z" />
    <glyph glyph-name="uni1E6E" unicode="&#x1e6e;" horiz-adv-x="662" 
d="M25 553v147h612v-147h-220v-553h-173v553h-219zM504 -136h-347v95h347v-95z" />
    <glyph glyph-name="Uacute" unicode="&#xda;" horiz-adv-x="765" 
d="M556 850l-113 -107l-116 7l88 130zM382 -12c-197 0 -323 119 -323 310v402h173v-386c0 -107 56 -165 150 -165c96 0 153 58 153 165v386h171v-402c0 -191 -124 -310 -324 -310z" />
    <glyph glyph-name="Ubreve" unicode="&#x16c;" horiz-adv-x="765" 
d="M379 740c-102 0 -167 57 -167 146l116 2c0 -42 15 -61 51 -61s52 19 52 61l116 -2c0 -89 -65 -146 -168 -146zM535 314v386h171v-402c0 -191 -124 -310 -324 -310c-197 0 -323 119 -323 310v402h173v-386c0 -107 56 -165 150 -165c96 0 153 58 153 165z" />
    <glyph glyph-name="uni01D3" unicode="&#x1d3;" horiz-adv-x="765" 
d="M312 744l-108 129l133 7l48 -76l47 76l133 -7l-107 -129h-146zM535 314v386h171v-402c0 -191 -124 -310 -324 -310c-197 0 -323 119 -323 310v402h173v-386c0 -107 56 -165 150 -165c96 0 153 58 153 165z" />
    <glyph glyph-name="Ucircumflex" unicode="&#xdb;" horiz-adv-x="765" 
d="M432 746l-47 77l-48 -77l-133 6l108 132h146l107 -132zM535 314v386h171v-402c0 -191 -124 -310 -324 -310c-197 0 -323 119 -323 310v402h173v-386c0 -107 56 -165 150 -165c96 0 153 58 153 165z" />
    <glyph glyph-name="Udieresis" unicode="&#xdc;" horiz-adv-x="765" 
d="M370 754h-128v124h128v-124zM537 754h-127v124h127v-124zM382 -12c-197 0 -323 119 -323 310v402h173v-386c0 -107 56 -165 150 -165c96 0 153 58 153 165v386h171v-402c0 -191 -124 -310 -324 -310z" />
    <glyph glyph-name="uni01D7" unicode="&#x1d7;" horiz-adv-x="765" 
d="M556 1028l-113 -107l-116 7l88 131zM373 754h-127v125h127v-125zM541 754h-128v125h128v-125zM382 -12c-197 0 -323 119 -323 310v402h173v-386c0 -107 56 -165 150 -165c96 0 153 58 153 165v386h171v-402c0 -191 -124 -310 -324 -310z" />
    <glyph glyph-name="uni01D9" unicode="&#x1d9;" horiz-adv-x="765" 
d="M312 922l-107 130l132 7l48 -76l48 76l132 -7l-107 -130h-146zM373 754h-127v125h127v-125zM541 754h-128v125h128v-125zM535 314v386h171v-402c0 -191 -124 -310 -324 -310c-197 0 -323 119 -323 310v402h173v-386c0 -107 56 -165 150 -165c96 0 153 58 153 165z" />
    <glyph glyph-name="uni01DB" unicode="&#x1db;" horiz-adv-x="765" 
d="M439 929l-116 -7l-113 107l141 30zM370 754h-128v124h128v-124zM537 754h-127v124h127v-124zM382 -12c-197 0 -323 119 -323 310v402h173v-386c0 -107 56 -165 150 -165c96 0 153 58 153 165v386h171v-402c0 -191 -124 -310 -324 -310z" />
    <glyph glyph-name="uni01DB" unicode="&#x1dc;" horiz-adv-x="765" 
d="M439 929l-116 -7l-113 107l141 30zM370 754h-128v124h128v-124zM537 754h-127v124h127v-124zM382 -12c-197 0 -323 119 -323 310v402h173v-386c0 -107 56 -165 150 -165c96 0 153 58 153 165v386h171v-402c0 -191 -124 -310 -324 -310z" />
    <glyph glyph-name="uni01D5" unicode="&#x1d5;" horiz-adv-x="765" 
d="M552 945h-347v94h347v-94zM373 754h-127v125h127v-125zM541 754h-128v125h128v-125zM382 -12c-197 0 -323 119 -323 310v402h173v-386c0 -107 56 -165 150 -165c96 0 153 58 153 165v386h171v-402c0 -191 -124 -310 -324 -310z" />
    <glyph glyph-name="uni1EE4" unicode="&#x1ee4;" horiz-adv-x="765" 
d="M382 -12c-197 0 -323 119 -323 310v402h173v-386c0 -107 56 -165 150 -165c96 0 153 58 153 165v386h171v-402c0 -191 -124 -310 -324 -310zM289 -173v130h171v-130h-171z" />
    <glyph glyph-name="Ugrave" unicode="&#xd9;" horiz-adv-x="765" 
d="M439 750l-116 -7l-113 107l141 30zM382 -12c-197 0 -323 119 -323 310v402h173v-386c0 -107 56 -165 150 -165c96 0 153 58 153 165v386h171v-402c0 -191 -124 -310 -324 -310z" />
    <glyph glyph-name="uni1EE6" unicode="&#x1ee6;" horiz-adv-x="765" 
d="M402 738l-66 19c15 22 33 46 33 73c0 24 -26 44 -65 21l-8 68c108 55 175 6 175 -49c0 -57 -41 -107 -69 -132zM382 -12c-197 0 -323 119 -323 310v402h173v-386c0 -107 56 -165 150 -165c96 0 153 58 153 165v386h171v-402c0 -191 -124 -310 -324 -310z" />
    <glyph glyph-name="Uhorn" unicode="&#x1af;" horiz-adv-x="827" 
d="M715 785l129 7c44 -124 -33 -194 -138 -167v-327c0 -191 -124 -310 -324 -310c-197 0 -323 119 -323 310v402h173v-386c0 -107 56 -165 150 -165c96 0 153 58 153 165v386h121l2 5c51 1 77 20 57 80z" />
    <glyph glyph-name="uni1EE8" unicode="&#x1ee8;" horiz-adv-x="827" 
d="M415 880l141 -30l-113 -107l-116 7zM715 785l129 7c44 -124 -33 -194 -138 -167v-327c0 -191 -124 -310 -324 -310c-197 0 -323 119 -323 310v402h173v-386c0 -107 56 -165 150 -165c96 0 153 58 153 165v386h121l2 5c51 1 77 20 57 80z" />
    <glyph glyph-name="uni1EF0" unicode="&#x1ef0;" horiz-adv-x="827" 
d="M715 785l129 7c44 -124 -33 -194 -138 -167v-327c0 -191 -124 -310 -324 -310c-197 0 -323 119 -323 310v402h173v-386c0 -107 56 -165 150 -165c96 0 153 58 153 165v386h121l2 5c51 1 77 20 57 80zM460 -173h-171v130h171v-130z" />
    <glyph glyph-name="uni1EEA" unicode="&#x1eea;" horiz-adv-x="827" 
d="M351 880l88 -130l-116 -7l-113 107zM715 785l129 7c44 -124 -33 -194 -138 -167v-327c0 -191 -124 -310 -324 -310c-197 0 -323 119 -323 310v402h173v-386c0 -107 56 -165 150 -165c96 0 153 58 153 165v386h121l2 5c51 1 77 20 57 80z" />
    <glyph glyph-name="uni1EEC" unicode="&#x1eec;" horiz-adv-x="827" 
d="M369 830c0 24 -26 44 -65 21l-8 68c108 55 175 6 175 -49c0 -57 -41 -107 -69 -132l-66 19c15 22 33 46 33 73zM715 785l129 7c44 -124 -33 -194 -138 -167v-327c0 -191 -124 -310 -324 -310c-197 0 -323 119 -323 310v402h173v-386c0 -107 56 -165 150 -165
c96 0 153 58 153 165v386h121l2 5c51 1 77 20 57 80z" />
    <glyph glyph-name="uni1EEE" unicode="&#x1eee;" horiz-adv-x="827" 
d="M321 782c-25 0 -42 -17 -42 -43l-75 19c0 71 41 116 100 116c55 0 100 -32 133 -32c25 0 43 16 43 41l75 -17c0 -73 -41 -116 -101 -116c-55 0 -98 32 -133 32zM715 785l129 7c44 -124 -33 -194 -138 -167v-327c0 -191 -124 -310 -324 -310c-197 0 -323 119 -323 310v402
h173v-386c0 -107 56 -165 150 -165c96 0 153 58 153 165v386h121l2 5c51 1 77 20 57 80z" />
    <glyph glyph-name="Uhungarumlaut" unicode="&#x170;" horiz-adv-x="765" 
d="M408 849l-96 -107l-112 7l70 131zM614 849l-97 -107l-112 7l70 131zM382 -12c-197 0 -323 119 -323 310v402h173v-386c0 -107 56 -165 150 -165c96 0 153 58 153 165v386h171v-402c0 -191 -124 -310 -324 -310z" />
    <glyph glyph-name="Umacron" unicode="&#x16a;" horiz-adv-x="765" 
d="M552 766h-347v94h347v-94zM382 -12c-197 0 -323 119 -323 310v402h173v-386c0 -107 56 -165 150 -165c96 0 153 58 153 165v386h171v-402c0 -191 -124 -310 -324 -310z" />
    <glyph glyph-name="Uogonek" unicode="&#x172;" horiz-adv-x="765" 
d="M535 314v386h171v-402c0 -123 -51 -216 -141 -266c-30 -22 -47 -44 -47 -64c0 -32 30 -43 87 -32l7 -93c-162 -35 -239 15 -239 86c0 21 7 41 20 59h-11c-197 0 -323 119 -323 310v402h173v-386c0 -107 56 -165 150 -165c96 0 153 58 153 165z" />
    <glyph glyph-name="Uring" unicode="&#x16e;" horiz-adv-x="765" 
d="M384 737c-79 0 -135 53 -135 124s56 123 135 123s136 -52 136 -123s-57 -124 -136 -124zM384 808c31 0 54 22 54 53c0 30 -23 53 -54 53s-54 -23 -54 -53c0 -31 23 -53 54 -53zM382 -12c-197 0 -323 119 -323 310v402h173v-386c0 -107 56 -165 150 -165
c96 0 153 58 153 165v386h171v-402c0 -191 -124 -310 -324 -310z" />
    <glyph glyph-name="Utilde" unicode="&#x168;" horiz-adv-x="765" 
d="M279 739l-75 19c0 71 41 116 100 116c55 0 100 -32 133 -32c25 0 43 16 43 41l75 -17c0 -73 -41 -116 -101 -116c-55 0 -98 32 -133 32c-25 0 -42 -17 -42 -43zM382 -12c-197 0 -323 119 -323 310v402h173v-386c0 -107 56 -165 150 -165c96 0 153 58 153 165v386h171
v-402c0 -191 -124 -310 -324 -310z" />
    <glyph glyph-name="Wacute" unicode="&#x1e82;" horiz-adv-x="1116" 
d="M591 880l141 -30l-113 -107l-116 7zM778 212l148 488h181l-226 -700h-180l-142 444l-143 -444h-180l-227 700h182l148 -488l148 488h142z" />
    <glyph glyph-name="Wcircumflex" unicode="&#x174;" horiz-adv-x="1116" 
d="M608 746l-47 77l-48 -77l-133 6l108 132h146l107 -132zM778 212l148 488h181l-226 -700h-180l-142 444l-143 -444h-180l-227 700h182l148 -488l148 488h142z" />
    <glyph glyph-name="Wdieresis" unicode="&#x1e84;" horiz-adv-x="1116" 
d="M418 878h128v-124h-128v124zM586 878h127v-124h-127v124zM778 212l148 488h181l-226 -700h-180l-142 444l-143 -444h-180l-227 700h182l148 -488l148 488h142z" />
    <glyph glyph-name="Wgrave" unicode="&#x1e80;" horiz-adv-x="1116" 
d="M526 880l88 -130l-116 -7l-113 107zM778 212l148 488h181l-226 -700h-180l-142 444l-143 -444h-180l-227 700h182l148 -488l148 488h142z" />
    <glyph glyph-name="Yacute" unicode="&#xdd;" horiz-adv-x="723" 
d="M394 880l141 -30l-113 -107l-116 7zM532 700h187l-271 -444v-256h-173v259l-271 441h187l171 -301z" />
    <glyph glyph-name="Ycircumflex" unicode="&#x176;" horiz-adv-x="723" 
d="M411 746l-47 77l-48 -77l-133 6l108 132h146l107 -132zM532 700h187l-271 -444v-256h-173v259l-271 441h187l171 -301z" />
    <glyph glyph-name="Ydieresis" unicode="&#x178;" horiz-adv-x="723" 
d="M221 878h128v-124h-128v124zM389 878h127v-124h-127v124zM532 700h187l-271 -444v-256h-173v259l-271 441h187l171 -301z" />
    <glyph glyph-name="uni1E8E" unicode="&#x1e8e;" horiz-adv-x="723" 
d="M276 879h171v-126h-171v126zM532 700h187l-271 -444v-256h-173v259l-271 441h187l171 -301z" />
    <glyph glyph-name="uni1EF4" unicode="&#x1ef4;" horiz-adv-x="723" 
d="M532 700h187l-271 -444v-256h-173v259l-271 441h187l171 -301zM439 -173h-171v130h171v-130z" />
    <glyph glyph-name="Ygrave" unicode="&#x1ef2;" horiz-adv-x="723" 
d="M329 880l88 -130l-116 -7l-113 107zM532 700h187l-271 -444v-256h-173v259l-271 441h187l171 -301z" />
    <glyph glyph-name="uni1EF6" unicode="&#x1ef6;" horiz-adv-x="723" 
d="M347 830c0 24 -26 44 -65 21l-8 68c108 55 175 6 175 -49c0 -57 -41 -107 -69 -132l-66 19c15 22 33 46 33 73zM532 700h187l-271 -444v-256h-173v259l-271 441h187l171 -301z" />
    <glyph glyph-name="uni0232" unicode="&#x232;" horiz-adv-x="723" 
d="M184 860h347v-94h-347v94zM532 700h187l-271 -444v-256h-173v259l-271 441h187l171 -301z" />
    <glyph glyph-name="uni1EF8" unicode="&#x1ef8;" horiz-adv-x="723" 
d="M299 782c-25 0 -42 -17 -42 -43l-75 19c0 71 41 116 100 116c55 0 100 -32 133 -32c25 0 43 16 43 41l75 -17c0 -73 -41 -116 -101 -116c-55 0 -98 32 -133 32zM532 700h187l-271 -444v-256h-173v259l-271 441h187l171 -301z" />
    <glyph glyph-name="Zacute" unicode="&#x179;" horiz-adv-x="700" 
d="M521 850l-113 -107l-116 7l88 130zM661 0h-620v107l376 446h-365v147h603v-107l-377 -446h383v-147z" />
    <glyph glyph-name="Zcaron" unicode="&#x17d;" horiz-adv-x="700" 
d="M277 744l-108 129l133 7l48 -76l47 76l133 -7l-107 -129h-146zM655 593l-377 -446h383v-147h-620v107l376 446h-365v147h603v-107z" />
    <glyph glyph-name="Zdotaccent" unicode="&#x17b;" horiz-adv-x="700" 
d="M433 753h-171v126h171v-126zM661 0h-620v107l376 446h-365v147h603v-107l-377 -446h383v-147z" />
    <glyph glyph-name="uni1E92" unicode="&#x1e92;" horiz-adv-x="700" 
d="M661 0h-620v107l376 446h-365v147h603v-107l-377 -446h383v-147zM254 -173v130h171v-130h-171z" />
    <glyph glyph-name="Gbreve.ss03" horiz-adv-x="780" 
d="M423 740c-102 0 -167 57 -167 146l116 2c0 -42 15 -61 51 -61s52 19 52 61l116 -2c0 -89 -65 -146 -168 -146zM412 283v130h310v-327c-76 -61 -182 -98 -292 -98c-217 0 -381 152 -381 361c0 211 158 364 377 364c105 0 205 -38 284 -120l-110 -99
c-51 50 -106 76 -170 76c-116 0 -209 -89 -209 -221c0 -135 95 -224 218 -224c56 0 96 16 128 38v120h-155z" />
    <glyph glyph-name="Gcaron.ss03" horiz-adv-x="780" 
d="M357 744l-108 129l133 7l48 -76l47 76l133 -7l-107 -129h-146zM412 283v130h310v-327c-76 -61 -182 -98 -292 -98c-217 0 -381 152 -381 361c0 211 158 364 377 364c105 0 205 -38 284 -120l-110 -99c-51 50 -106 76 -170 76c-116 0 -209 -89 -209 -221
c0 -135 95 -224 218 -224c56 0 96 16 128 38v120h-155z" />
    <glyph glyph-name="Gcircumflex.ss03" horiz-adv-x="780" 
d="M477 746l-47 77l-48 -77l-133 6l108 132h146l107 -132zM412 283v130h310v-327c-76 -61 -182 -98 -292 -98c-217 0 -381 152 -381 361c0 211 158 364 377 364c105 0 205 -38 284 -120l-110 -99c-51 50 -106 76 -170 76c-116 0 -209 -89 -209 -221c0 -135 95 -224 218 -224
c56 0 96 16 128 38v120h-155z" />
    <glyph glyph-name="uni0122.ss03" horiz-adv-x="780" 
d="M412 283v130h310v-327c-76 -61 -182 -98 -292 -98c-217 0 -381 152 -381 361c0 211 158 364 377 364c105 0 205 -38 284 -120l-110 -99c-51 50 -106 76 -170 76c-116 0 -209 -89 -209 -221c0 -135 95 -224 218 -224c56 0 96 16 128 38v120h-155zM361 -126v90h131
c32 -123 -24 -178 -102 -204l-25 49c41 15 53 37 52 65h-56z" />
    <glyph glyph-name="Gdotaccent.ss03" horiz-adv-x="780" 
d="M342 879h171v-126h-171v126zM412 283v130h310v-327c-76 -61 -182 -98 -292 -98c-217 0 -381 152 -381 361c0 211 158 364 377 364c105 0 205 -38 284 -120l-110 -99c-51 50 -106 76 -170 76c-116 0 -209 -89 -209 -221c0 -135 95 -224 218 -224c56 0 96 16 128 38v120
h-155z" />
    <glyph glyph-name="uni1E20.ss03" horiz-adv-x="780" 
d="M249 860h347v-94h-347v94zM412 283v130h310v-327c-76 -61 -182 -98 -292 -98c-217 0 -381 152 -381 361c0 211 158 364 377 364c105 0 205 -38 284 -120l-110 -99c-51 50 -106 76 -170 76c-116 0 -209 -89 -209 -221c0 -135 95 -224 218 -224c56 0 96 16 128 38v120h-155
z" />
    <glyph glyph-name="Jcircumflex.ss03" horiz-adv-x="568" 
d="M470 746l-47 77l-48 -77l-133 6l108 132h146l107 -132zM340 263v437h169v-437c0 -162 -116 -275 -269 -275c-113 0 -206 51 -255 136l112 96c29 -52 71 -85 132 -85c67 0 111 51 111 128z" />
    <glyph glyph-name="Gbreve.ss05" horiz-adv-x="770" 
d="M431 740c-102 0 -167 57 -167 146l116 2c0 -42 15 -61 51 -61s52 19 52 61l116 -2c0 -89 -65 -146 -168 -146zM547 165v114h165v-450h-165v178c-36 -12 -74 -19 -113 -19c-221 0 -385 154 -385 362s160 362 379 362c110 0 208 -39 282 -119l-110 -99
c-44 48 -100 76 -170 76c-115 0 -208 -91 -208 -219c0 -130 93 -219 207 -219c42 0 82 12 118 33z" />
    <glyph glyph-name="Gcaron.ss05" horiz-adv-x="770" 
d="M364 744l-108 129l133 7l48 -76l47 76l133 -7l-107 -129h-146zM547 165v114h165v-450h-165v178c-36 -12 -74 -19 -113 -19c-221 0 -385 154 -385 362s160 362 379 362c110 0 208 -39 282 -119l-110 -99c-44 48 -100 76 -170 76c-115 0 -208 -91 -208 -219
c0 -130 93 -219 207 -219c42 0 82 12 118 33z" />
    <glyph glyph-name="Gcircumflex.ss05" horiz-adv-x="770" 
d="M484 746l-47 77l-48 -77l-133 6l108 132h146l107 -132zM547 165v114h165v-450h-165v178c-36 -12 -74 -19 -113 -19c-221 0 -385 154 -385 362s160 362 379 362c110 0 208 -39 282 -119l-110 -99c-44 48 -100 76 -170 76c-115 0 -208 -91 -208 -219
c0 -130 93 -219 207 -219c42 0 82 12 118 33z" />
    <glyph glyph-name="uni0122.ss05" horiz-adv-x="770" 
d="M547 165v114h165v-450h-165v178c-36 -12 -74 -19 -113 -19c-221 0 -385 154 -385 362s160 362 379 362c110 0 208 -39 282 -119l-110 -99c-44 48 -100 76 -170 76c-115 0 -208 -91 -208 -219c0 -130 93 -219 207 -219c42 0 82 12 118 33zM337 -126v90h131
c32 -123 -24 -178 -102 -204l-25 49c41 15 53 37 52 65h-56z" />
    <glyph glyph-name="Gdotaccent.ss05" horiz-adv-x="770" 
d="M350 879h171v-126h-171v126zM547 165v114h165v-450h-165v178c-36 -12 -74 -19 -113 -19c-221 0 -385 154 -385 362s160 362 379 362c110 0 208 -39 282 -119l-110 -99c-44 48 -100 76 -170 76c-115 0 -208 -91 -208 -219c0 -130 93 -219 207 -219c42 0 82 12 118 33z" />
    <glyph glyph-name="uni1E20.ss05" horiz-adv-x="770" 
d="M257 860h347v-94h-347v94zM547 165v114h165v-450h-165v178c-36 -12 -74 -19 -113 -19c-221 0 -385 154 -385 362s160 362 379 362c110 0 208 -39 282 -119l-110 -99c-44 48 -100 76 -170 76c-115 0 -208 -91 -208 -219c0 -130 93 -219 207 -219c42 0 82 12 118 33z" />
    <glyph glyph-name="Aacute.ss06" horiz-adv-x="766" 
d="M415 880l141 -30l-113 -107l-116 7zM383 713c191 0 324 -123 324 -313v-400h-170v173h-305v-173h-173v400c0 190 133 313 324 313zM232 400v-80h305v80c0 103 -64 164 -154 164c-89 0 -151 -61 -151 -164z" />
    <glyph glyph-name="Abreve.ss06" horiz-adv-x="766" 
d="M378 740c-102 0 -167 57 -167 146l116 2c0 -42 15 -61 51 -61s52 19 52 61l116 -2c0 -89 -65 -146 -168 -146zM383 713c191 0 324 -123 324 -313v-400h-170v173h-305v-173h-173v400c0 190 133 313 324 313zM232 400v-80h305v80c0 103 -64 164 -154 164
c-89 0 -151 -61 -151 -164z" />
    <glyph glyph-name="uni1EAE.ss06" horiz-adv-x="766" 
d="M415 1041l141 -30l-113 -107l-116 7zM378 740c-102 0 -167 57 -167 146l116 2c0 -42 15 -61 51 -61s52 19 52 61l116 -2c0 -89 -65 -146 -168 -146zM383 713c191 0 324 -123 324 -313v-400h-170v173h-305v-173h-173v400c0 190 133 313 324 313zM232 400v-80h305v80
c0 103 -64 164 -154 164c-89 0 -151 -61 -151 -164z" />
    <glyph glyph-name="uni1EB6.ss06" horiz-adv-x="766" 
d="M378 740c-102 0 -167 57 -167 146l116 2c0 -42 15 -61 51 -61s52 19 52 61l116 -2c0 -89 -65 -146 -168 -146zM383 713c191 0 324 -123 324 -313v-400h-170v173h-305v-173h-173v400c0 190 133 313 324 313zM232 400v-80h305v80c0 103 -64 164 -154 164
c-89 0 -151 -61 -151 -164zM459 -173h-171v130h171v-130z" />
    <glyph glyph-name="uni1EB0.ss06" horiz-adv-x="766" 
d="M350 1041l88 -130l-116 -7l-113 107zM378 827c36 0 52 19 52 61l116 -2c0 -89 -65 -146 -168 -146c-102 0 -167 57 -167 146l116 2c0 -42 15 -61 51 -61zM383 713c191 0 324 -123 324 -313v-400h-170v173h-305v-173h-173v400c0 190 133 313 324 313zM232 400v-80h305v80
c0 103 -64 164 -154 164c-89 0 -151 -61 -151 -164z" />
    <glyph glyph-name="uni1EB2.ss06" horiz-adv-x="766" 
d="M368 991c0 24 -26 44 -65 21l-8 68c108 55 175 6 175 -49c0 -57 -41 -107 -69 -132l-66 19c15 22 33 46 33 73zM378 740c-102 0 -167 57 -167 146l116 2c0 -42 15 -61 51 -61s52 19 52 61l116 -2c0 -89 -65 -146 -168 -146zM383 713c191 0 324 -123 324 -313v-400h-170
v173h-305v-173h-173v400c0 190 133 313 324 313zM232 400v-80h305v80c0 103 -64 164 -154 164c-89 0 -151 -61 -151 -164z" />
    <glyph glyph-name="uni1EB4.ss06" horiz-adv-x="766" 
d="M320 943c-25 0 -42 -17 -42 -43l-75 19c0 71 41 116 100 116c55 0 100 -32 133 -32c25 0 43 16 43 41l75 -17c0 -73 -41 -116 -101 -116c-55 0 -98 32 -133 32zM378 827c36 0 52 19 52 61l116 -2c0 -89 -65 -146 -168 -146c-102 0 -167 57 -167 146l116 2
c0 -42 15 -61 51 -61zM383 713c191 0 324 -123 324 -313v-400h-170v173h-305v-173h-173v400c0 190 133 313 324 313zM232 400v-80h305v80c0 103 -64 164 -154 164c-89 0 -151 -61 -151 -164z" />
    <glyph glyph-name="uni01CD.ss06" horiz-adv-x="766" 
d="M312 744l-108 129l133 7l48 -76l47 76l133 -7l-107 -129h-146zM383 713c191 0 324 -123 324 -313v-400h-170v173h-305v-173h-173v400c0 190 133 313 324 313zM232 400v-80h305v80c0 103 -64 164 -154 164c-89 0 -151 -61 -151 -164z" />
    <glyph glyph-name="Acircumflex.ss06" horiz-adv-x="766" 
d="M432 746l-47 77l-48 -77l-133 6l108 132h146l107 -132zM383 713c191 0 324 -123 324 -313v-400h-170v173h-305v-173h-173v400c0 190 133 313 324 313zM232 400v-80h305v80c0 103 -64 164 -154 164c-89 0 -151 -61 -151 -164z" />
    <glyph glyph-name="uni1EA4.ss06" horiz-adv-x="766" 
d="M415 1059l141 -30l-113 -107l-116 7zM432 746l-47 77l-48 -77l-133 6l108 132h146l107 -132zM383 713c191 0 324 -123 324 -313v-400h-170v173h-305v-173h-173v400c0 190 133 313 324 313zM232 400v-80h305v80c0 103 -64 164 -154 164c-89 0 -151 -61 -151 -164z" />
    <glyph glyph-name="uni1EAC.ss06" horiz-adv-x="766" 
d="M432 746l-47 77l-48 -77l-133 6l108 132h146l107 -132zM383 713c191 0 324 -123 324 -313v-400h-170v173h-305v-173h-173v400c0 190 133 313 324 313zM232 400v-80h305v80c0 103 -64 164 -154 164c-89 0 -151 -61 -151 -164zM459 -173h-171v130h171v-130z" />
    <glyph glyph-name="uni1EA6.ss06" horiz-adv-x="766" 
d="M350 1059l88 -130l-116 -7l-113 107zM432 746l-47 77l-48 -77l-133 6l108 132h146l107 -132zM383 713c191 0 324 -123 324 -313v-400h-170v173h-305v-173h-173v400c0 190 133 313 324 313zM232 400v-80h305v80c0 103 -64 164 -154 164c-89 0 -151 -61 -151 -164z" />
    <glyph glyph-name="uni1EA8.ss06" horiz-adv-x="766" 
d="M368 1009c0 24 -26 44 -65 21l-8 68c108 55 175 6 175 -49c0 -57 -41 -107 -69 -132l-66 19c15 22 33 46 33 73zM432 746l-47 77l-48 -77l-133 6l108 132h146l107 -132zM383 713c191 0 324 -123 324 -313v-400h-170v173h-305v-173h-173v400c0 190 133 313 324 313z
M232 400v-80h305v80c0 103 -64 164 -154 164c-89 0 -151 -61 -151 -164z" />
    <glyph glyph-name="uni1EAA.ss06" horiz-adv-x="766" 
d="M320 961c-25 0 -42 -17 -42 -43l-75 19c0 71 41 116 100 116c55 0 100 -32 133 -32c25 0 43 16 43 41l75 -17c0 -73 -41 -116 -101 -116c-55 0 -98 32 -133 32zM458 884l107 -132l-133 -6l-47 77l-48 -77l-133 6l108 132h146zM383 713c191 0 324 -123 324 -313v-400h-170
v173h-305v-173h-173v400c0 190 133 313 324 313zM232 400v-80h305v80c0 103 -64 164 -154 164c-89 0 -151 -61 -151 -164z" />
    <glyph glyph-name="Adieresis.ss06" horiz-adv-x="766" 
d="M242 878h128v-124h-128v124zM410 878h127v-124h-127v124zM383 713c191 0 324 -123 324 -313v-400h-170v173h-305v-173h-173v400c0 190 133 313 324 313zM232 400v-80h305v80c0 103 -64 164 -154 164c-89 0 -151 -61 -151 -164z" />
    <glyph glyph-name="uni1EA0.ss06" horiz-adv-x="766" 
d="M383 713c191 0 324 -123 324 -313v-400h-170v173h-305v-173h-173v400c0 190 133 313 324 313zM232 400v-80h305v80c0 103 -64 164 -154 164c-89 0 -151 -61 -151 -164zM459 -173h-171v130h171v-130z" />
    <glyph glyph-name="Agrave.ss06" horiz-adv-x="766" 
d="M350 880l88 -130l-116 -7l-113 107zM383 713c191 0 324 -123 324 -313v-400h-170v173h-305v-173h-173v400c0 190 133 313 324 313zM232 400v-80h305v80c0 103 -64 164 -154 164c-89 0 -151 -61 -151 -164z" />
    <glyph glyph-name="uni1EA2.ss06" horiz-adv-x="766" 
d="M368 830c0 24 -26 44 -65 21l-8 68c108 55 175 6 175 -49c0 -57 -41 -107 -69 -132l-66 19c15 22 33 46 33 73zM383 713c191 0 324 -123 324 -313v-400h-170v173h-305v-173h-173v400c0 190 133 313 324 313zM232 400v-80h305v80c0 103 -64 164 -154 164
c-89 0 -151 -61 -151 -164z" />
    <glyph glyph-name="Amacron.ss06" horiz-adv-x="766" 
d="M204 860h347v-94h-347v94zM383 713c191 0 324 -123 324 -313v-400h-170v173h-305v-173h-173v400c0 190 133 313 324 313zM232 400v-80h305v80c0 103 -64 164 -154 164c-89 0 -151 -61 -151 -164z" />
    <glyph glyph-name="Aogonek.ss06" horiz-adv-x="766" 
d="M733 -105l7 -93c-162 -35 -239 15 -239 86c0 46 35 86 79 112h-43v173h-305v-173h-173v400c0 190 133 313 324 313s324 -123 324 -313v-400h1c-40 -24 -62 -50 -62 -73c0 -32 30 -43 87 -32zM232 400v-80h305v80c0 103 -64 164 -154 164c-89 0 -151 -61 -151 -164z" />
    <glyph glyph-name="Aring.ss06" horiz-adv-x="766" 
d="M383 737c-79 0 -135 53 -135 124s56 123 135 123s136 -52 136 -123s-57 -124 -136 -124zM383 914c-31 0 -54 -23 -54 -53c0 -31 23 -53 54 -53s54 22 54 53c0 30 -23 53 -54 53zM383 713c191 0 324 -123 324 -313v-400h-170v173h-305v-173h-173v400
c0 190 133 313 324 313zM232 400v-80h305v80c0 103 -64 164 -154 164c-89 0 -151 -61 -151 -164z" />
    <glyph glyph-name="Aringacute.ss06" horiz-adv-x="766" 
d="M403 1140l141 -30l-113 -107l-116 7zM383 737c-79 0 -135 53 -135 124s56 123 135 123s136 -52 136 -123s-57 -124 -136 -124zM383 914c-31 0 -54 -23 -54 -53c0 -31 23 -53 54 -53s54 22 54 53c0 30 -23 53 -54 53zM383 713c191 0 324 -123 324 -313v-400h-170v173h-305
v-173h-173v400c0 190 133 313 324 313zM232 400v-80h305v80c0 103 -64 164 -154 164c-89 0 -151 -61 -151 -164z" />
    <glyph glyph-name="Atilde.ss06" horiz-adv-x="766" 
d="M320 782c-25 0 -42 -17 -42 -43l-75 19c0 71 41 116 100 116c55 0 100 -32 133 -32c25 0 43 16 43 41l75 -17c0 -73 -41 -116 -101 -116c-55 0 -98 32 -133 32zM383 713c191 0 324 -123 324 -313v-400h-170v173h-305v-173h-173v400c0 190 133 313 324 313zM232 400v-80
h305v80c0 103 -64 164 -154 164c-89 0 -151 -61 -151 -164z" />
    <glyph glyph-name="Eacute.ss06" horiz-adv-x="676" 
d="M382 880l141 -30l-113 -107l-116 7zM562 185l96 -101c-76 -69 -178 -96 -306 -96c-190 0 -303 72 -303 201c0 82 48 148 131 169c-79 19 -123 75 -123 158c0 108 112 196 298 196c118 0 217 -26 293 -96l-96 -101c-50 37 -102 54 -180 54c-79 0 -133 -25 -133 -79
c0 -52 57 -69 147 -69h136v-124h-143c-89 0 -147 -26 -147 -83c0 -54 56 -83 146 -83c82 0 134 17 184 54z" />
    <glyph glyph-name="Ebreve.ss06" horiz-adv-x="676" 
d="M346 740c-102 0 -167 57 -167 146l116 2c0 -42 15 -61 51 -61s52 19 52 61l116 -2c0 -89 -65 -146 -168 -146zM562 185l96 -101c-76 -69 -178 -96 -306 -96c-190 0 -303 72 -303 201c0 82 48 148 131 169c-79 19 -123 75 -123 158c0 108 112 196 298 196
c118 0 217 -26 293 -96l-96 -101c-50 37 -102 54 -180 54c-79 0 -133 -25 -133 -79c0 -52 57 -69 147 -69h136v-124h-143c-89 0 -147 -26 -147 -83c0 -54 56 -83 146 -83c82 0 134 17 184 54z" />
    <glyph glyph-name="Ecaron.ss06" horiz-adv-x="676" 
d="M279 744l-108 129l133 7l48 -76l47 76l133 -7l-107 -129h-146zM562 185l96 -101c-76 -69 -178 -96 -306 -96c-190 0 -303 72 -303 201c0 82 48 148 131 169c-79 19 -123 75 -123 158c0 108 112 196 298 196c118 0 217 -26 293 -96l-96 -101c-50 37 -102 54 -180 54
c-79 0 -133 -25 -133 -79c0 -52 57 -69 147 -69h136v-124h-143c-89 0 -147 -26 -147 -83c0 -54 56 -83 146 -83c82 0 134 17 184 54z" />
    <glyph glyph-name="Ecircumflex.ss06" horiz-adv-x="676" 
d="M399 746l-47 77l-48 -77l-133 6l108 132h146l107 -132zM562 185l96 -101c-76 -69 -178 -96 -306 -96c-190 0 -303 72 -303 201c0 82 48 148 131 169c-79 19 -123 75 -123 158c0 108 112 196 298 196c118 0 217 -26 293 -96l-96 -101c-50 37 -102 54 -180 54
c-79 0 -133 -25 -133 -79c0 -52 57 -69 147 -69h136v-124h-143c-89 0 -147 -26 -147 -83c0 -54 56 -83 146 -83c82 0 134 17 184 54z" />
    <glyph glyph-name="uni1EBE.ss06" horiz-adv-x="676" 
d="M382 1059l141 -30l-113 -107l-116 7zM399 746l-47 77l-48 -77l-133 6l108 132h146l107 -132zM562 185l96 -101c-76 -69 -178 -96 -306 -96c-190 0 -303 72 -303 201c0 82 48 148 131 169c-79 19 -123 75 -123 158c0 108 112 196 298 196c118 0 217 -26 293 -96l-96 -101
c-50 37 -102 54 -180 54c-79 0 -133 -25 -133 -79c0 -52 57 -69 147 -69h136v-124h-143c-89 0 -147 -26 -147 -83c0 -54 56 -83 146 -83c82 0 134 17 184 54z" />
    <glyph glyph-name="uni1EC6.ss06" horiz-adv-x="676" 
d="M399 746l-47 77l-48 -77l-133 6l108 132h146l107 -132zM562 185l96 -101c-76 -69 -178 -96 -306 -96c-190 0 -303 72 -303 201c0 82 48 148 131 169c-79 19 -123 75 -123 158c0 108 112 196 298 196c118 0 217 -26 293 -96l-96 -101c-50 37 -102 54 -180 54
c-79 0 -133 -25 -133 -79c0 -52 57 -69 147 -69h136v-124h-143c-89 0 -147 -26 -147 -83c0 -54 56 -83 146 -83c82 0 134 17 184 54zM427 -173h-171v130h171v-130z" />
    <glyph glyph-name="uni1EC0.ss06" horiz-adv-x="676" 
d="M318 1059l88 -130l-116 -7l-113 107zM399 746l-47 77l-48 -77l-133 6l108 132h146l107 -132zM562 185l96 -101c-76 -69 -178 -96 -306 -96c-190 0 -303 72 -303 201c0 82 48 148 131 169c-79 19 -123 75 -123 158c0 108 112 196 298 196c118 0 217 -26 293 -96l-96 -101
c-50 37 -102 54 -180 54c-79 0 -133 -25 -133 -79c0 -52 57 -69 147 -69h136v-124h-143c-89 0 -147 -26 -147 -83c0 -54 56 -83 146 -83c82 0 134 17 184 54z" />
    <glyph glyph-name="uni1EC2.ss06" horiz-adv-x="676" 
d="M336 1009c0 24 -26 44 -65 21l-8 68c108 55 175 6 175 -49c0 -57 -41 -107 -69 -132l-66 19c15 22 33 46 33 73zM399 746l-47 77l-48 -77l-133 6l108 132h146l107 -132zM562 185l96 -101c-76 -69 -178 -96 -306 -96c-190 0 -303 72 -303 201c0 82 48 148 131 169
c-79 19 -123 75 -123 158c0 108 112 196 298 196c118 0 217 -26 293 -96l-96 -101c-50 37 -102 54 -180 54c-79 0 -133 -25 -133 -79c0 -52 57 -69 147 -69h136v-124h-143c-89 0 -147 -26 -147 -83c0 -54 56 -83 146 -83c82 0 134 17 184 54z" />
    <glyph glyph-name="uni1EC4.ss06" horiz-adv-x="676" 
d="M288 961c-25 0 -42 -17 -42 -43l-75 19c0 71 41 116 100 116c55 0 100 -32 133 -32c25 0 43 16 43 41l75 -17c0 -73 -41 -116 -101 -116c-55 0 -98 32 -133 32zM399 746l-47 77l-48 -77l-133 6l108 132h146l107 -132zM562 185l96 -101c-76 -69 -178 -96 -306 -96
c-190 0 -303 72 -303 201c0 82 48 148 131 169c-79 19 -123 75 -123 158c0 108 112 196 298 196c118 0 217 -26 293 -96l-96 -101c-50 37 -102 54 -180 54c-79 0 -133 -25 -133 -79c0 -52 57 -69 147 -69h136v-124h-143c-89 0 -147 -26 -147 -83c0 -54 56 -83 146 -83
c82 0 134 17 184 54z" />
    <glyph glyph-name="Edieresis.ss06" horiz-adv-x="676" 
d="M209 878h128v-124h-128v124zM377 878h127v-124h-127v124zM562 185l96 -101c-76 -69 -178 -96 -306 -96c-190 0 -303 72 -303 201c0 82 48 148 131 169c-79 19 -123 75 -123 158c0 108 112 196 298 196c118 0 217 -26 293 -96l-96 -101c-50 37 -102 54 -180 54
c-79 0 -133 -25 -133 -79c0 -52 57 -69 147 -69h136v-124h-143c-89 0 -147 -26 -147 -83c0 -54 56 -83 146 -83c82 0 134 17 184 54z" />
    <glyph glyph-name="Edotaccent.ss06" horiz-adv-x="676" 
d="M265 879h171v-126h-171v126zM562 185l96 -101c-76 -69 -178 -96 -306 -96c-190 0 -303 72 -303 201c0 82 48 148 131 169c-79 19 -123 75 -123 158c0 108 112 196 298 196c118 0 217 -26 293 -96l-96 -101c-50 37 -102 54 -180 54c-79 0 -133 -25 -133 -79
c0 -52 57 -69 147 -69h136v-124h-143c-89 0 -147 -26 -147 -83c0 -54 56 -83 146 -83c82 0 134 17 184 54z" />
    <glyph glyph-name="uni1EB8.ss06" horiz-adv-x="676" 
d="M562 185l96 -101c-76 -69 -178 -96 -306 -96c-190 0 -303 72 -303 201c0 82 48 148 131 169c-79 19 -123 75 -123 158c0 108 112 196 298 196c118 0 217 -26 293 -96l-96 -101c-50 37 -102 54 -180 54c-79 0 -133 -25 -133 -79c0 -52 57 -69 147 -69h136v-124h-143
c-89 0 -147 -26 -147 -83c0 -54 56 -83 146 -83c82 0 134 17 184 54zM427 -173h-171v130h171v-130z" />
    <glyph glyph-name="Egrave.ss06" horiz-adv-x="676" 
d="M318 880l88 -130l-116 -7l-113 107zM562 185l96 -101c-76 -69 -178 -96 -306 -96c-190 0 -303 72 -303 201c0 82 48 148 131 169c-79 19 -123 75 -123 158c0 108 112 196 298 196c118 0 217 -26 293 -96l-96 -101c-50 37 -102 54 -180 54c-79 0 -133 -25 -133 -79
c0 -52 57 -69 147 -69h136v-124h-143c-89 0 -147 -26 -147 -83c0 -54 56 -83 146 -83c82 0 134 17 184 54z" />
    <glyph glyph-name="uni1EBA.ss06" horiz-adv-x="676" 
d="M336 830c0 24 -26 44 -65 21l-8 68c108 55 175 6 175 -49c0 -57 -41 -107 -69 -132l-66 19c15 22 33 46 33 73zM562 185l96 -101c-76 -69 -178 -96 -306 -96c-190 0 -303 72 -303 201c0 82 48 148 131 169c-79 19 -123 75 -123 158c0 108 112 196 298 196
c118 0 217 -26 293 -96l-96 -101c-50 37 -102 54 -180 54c-79 0 -133 -25 -133 -79c0 -52 57 -69 147 -69h136v-124h-143c-89 0 -147 -26 -147 -83c0 -54 56 -83 146 -83c82 0 134 17 184 54z" />
    <glyph glyph-name="Emacron.ss06" horiz-adv-x="676" 
d="M172 860h347v-94h-347v94zM562 185l96 -101c-76 -69 -178 -96 -306 -96c-190 0 -303 72 -303 201c0 82 48 148 131 169c-79 19 -123 75 -123 158c0 108 112 196 298 196c118 0 217 -26 293 -96l-96 -101c-50 37 -102 54 -180 54c-79 0 -133 -25 -133 -79
c0 -52 57 -69 147 -69h136v-124h-143c-89 0 -147 -26 -147 -83c0 -54 56 -83 146 -83c82 0 134 17 184 54z" />
    <glyph glyph-name="Eogonek.ss06" horiz-adv-x="676" 
d="M476 -55c0 -32 30 -43 87 -32l7 -93c-162 -35 -239 15 -239 86c0 31 16 59 39 82h-18c-190 0 -303 72 -303 201c0 82 48 148 131 169c-79 19 -123 75 -123 158c0 108 112 196 298 196c118 0 217 -26 293 -96l-96 -101c-50 37 -102 54 -180 54c-79 0 -133 -25 -133 -79
c0 -52 57 -69 147 -69h136v-124h-143c-89 0 -147 -26 -147 -83c0 -54 56 -83 146 -83c82 0 134 17 184 54l96 -101c-37 -34 -81 -58 -131 -73c-33 -22 -51 -45 -51 -66z" />
    <glyph glyph-name="uni1EBC.ss06" horiz-adv-x="676" 
d="M288 782c-25 0 -42 -17 -42 -43l-75 19c0 71 41 116 100 116c55 0 100 -32 133 -32c25 0 43 16 43 41l75 -17c0 -73 -41 -116 -101 -116c-55 0 -98 32 -133 32zM562 185l96 -101c-76 -69 -178 -96 -306 -96c-190 0 -303 72 -303 201c0 82 48 148 131 169
c-79 19 -123 75 -123 158c0 108 112 196 298 196c118 0 217 -26 293 -96l-96 -101c-50 37 -102 54 -180 54c-79 0 -133 -25 -133 -79c0 -52 57 -69 147 -69h136v-124h-143c-89 0 -147 -26 -147 -83c0 -54 56 -83 146 -83c82 0 134 17 184 54z" />
    <glyph glyph-name="Adieresis.titl" horiz-adv-x="805" 
d="M600 702h127v-129h-127v129zM796 0h-182l-48 118h-330l-49 -118h-178l307 700h172zM79 700h127v-130h-127v130zM402 518l-112 -269h222z" />
    <glyph glyph-name="Odieresis.titl" horiz-adv-x="855" 
d="M699 710h127v-130h-99c50 -61 79 -140 79 -230c0 -210 -159 -362 -379 -362c-219 0 -378 151 -378 362c0 90 29 169 79 230h-99v130h127v-100c67 64 162 102 272 102c109 0 204 -38 271 -102v100zM428 138c117 0 199 85 199 212s-82 212 -199 212
c-118 0 -200 -85 -200 -212s82 -212 200 -212z" />
    <glyph glyph-name="Udieresis.titl" horiz-adv-x="765" 
d="M446 585h-121v116h121v-116zM382 -12c-197 0 -323 119 -323 310v402h173v-386c0 -107 56 -165 150 -165c96 0 153 58 153 165v386h171v-402c0 -191 -124 -310 -324 -310zM446 422h-121v116h121v-116z" />
    <glyph glyph-name="aacute" unicode="&#xe1;" horiz-adv-x="621" 
d="M326 761l154 -29l-125 -133l-118 8zM290 565c192 0 276 -93 276 -242v-323h-165v64c-32 -39 -93 -76 -182 -76c-116 0 -193 72 -193 176c0 101 67 179 226 179c46 0 105 -3 148 -7c-3 59 -45 93 -128 93c-49 0 -111 -19 -151 -50l-66 114c67 49 155 72 235 72zM275 118
c66 0 119 45 125 110v12c-32 4 -65 6 -107 6c-81 0 -109 -27 -109 -67s34 -61 91 -61z" />
    <glyph glyph-name="abreve" unicode="&#x103;" horiz-adv-x="621" 
d="M297 591c-102 0 -167 57 -167 146l116 2c0 -42 15 -61 51 -61s52 19 52 61l116 -2c0 -89 -65 -146 -168 -146zM290 565c192 0 276 -93 276 -242v-323h-165v64c-32 -39 -93 -76 -182 -76c-116 0 -193 72 -193 176c0 101 67 179 226 179c46 0 105 -3 148 -7
c-3 59 -45 93 -128 93c-49 0 -111 -19 -151 -50l-66 114c67 49 155 72 235 72zM275 118c66 0 119 45 125 110v12c-32 4 -65 6 -107 6c-81 0 -109 -27 -109 -67s34 -61 91 -61z" />
    <glyph glyph-name="uni1EAF" unicode="&#x1eaf;" horiz-adv-x="629" 
d="M333 950l154 -29l-126 -133l-117 8zM304 592c-103 0 -167 56 -167 145l116 2c0 -41 15 -60 51 -60s51 19 51 60l116 -2c0 -89 -65 -145 -167 -145zM290 565c192 0 276 -93 276 -242v-323h-165v64c-32 -39 -93 -76 -182 -76c-116 0 -193 72 -193 176c0 101 67 179 226 179
c46 0 105 -3 148 -7c-3 59 -45 93 -128 93c-49 0 -111 -19 -151 -50l-66 114c67 49 155 72 235 72zM275 118c66 0 119 45 125 110v12c-32 4 -65 6 -107 6c-81 0 -109 -27 -109 -67s34 -61 91 -61z" />
    <glyph glyph-name="uni1EB7" unicode="&#x1eb7;" horiz-adv-x="621" 
d="M297 591c-102 0 -167 57 -167 146l116 2c0 -42 15 -61 51 -61s52 19 52 61l116 -2c0 -89 -65 -146 -168 -146zM290 565c192 0 276 -93 276 -242v-323h-165v64c-32 -39 -93 -76 -182 -76c-116 0 -193 72 -193 176c0 101 67 179 226 179c46 0 105 -3 148 -7
c-3 59 -45 93 -128 93c-49 0 -111 -19 -151 -50l-66 114c67 49 155 72 235 72zM275 118c66 0 119 45 125 110v12c-32 4 -65 6 -107 6c-81 0 -109 -27 -109 -67s34 -61 91 -61zM376 -173h-171v130h171v-130z" />
    <glyph glyph-name="uni1EB1" unicode="&#x1eb1;" horiz-adv-x="629" 
d="M275 950l89 -154l-117 -8l-126 133zM304 679c36 0 51 19 51 60l116 -2c0 -89 -65 -145 -167 -145c-103 0 -167 56 -167 145l116 2c0 -41 15 -60 51 -60zM290 565c192 0 276 -93 276 -242v-323h-165v64c-32 -39 -93 -76 -182 -76c-116 0 -193 72 -193 176
c0 101 67 179 226 179c46 0 105 -3 148 -7c-3 59 -45 93 -128 93c-49 0 -111 -19 -151 -50l-66 114c67 49 155 72 235 72zM275 118c66 0 119 45 125 110v12c-32 4 -65 6 -107 6c-81 0 -109 -27 -109 -67s34 -61 91 -61z" />
    <glyph glyph-name="uni1EB3" unicode="&#x1eb3;" horiz-adv-x="629" 
d="M290 873c0 24 -27 44 -66 21l-8 68c108 55 175 6 175 -49c0 -57 -41 -107 -69 -133l-66 20c15 22 34 46 34 73zM304 592c-103 0 -167 56 -167 145l116 2c0 -41 15 -60 51 -60s51 19 51 60l116 -2c0 -89 -65 -145 -167 -145zM290 565c192 0 276 -93 276 -242v-323h-165v64
c-32 -39 -93 -76 -182 -76c-116 0 -193 72 -193 176c0 101 67 179 226 179c46 0 105 -3 148 -7c-3 59 -45 93 -128 93c-49 0 -111 -19 -151 -50l-66 114c67 49 155 72 235 72zM275 118c66 0 119 45 125 110v12c-32 4 -65 6 -107 6c-81 0 -109 -27 -109 -67s34 -61 91 -61z
" />
    <glyph glyph-name="uni1EB5" unicode="&#x1eb5;" horiz-adv-x="629" 
d="M249 826c-25 0 -43 -17 -43 -43l-75 19c0 71 42 116 101 116c55 0 99 -32 133 -32c25 0 43 16 43 41l75 -17c0 -73 -41 -116 -101 -116c-55 0 -99 32 -133 32zM304 679c36 0 51 19 51 60l116 -2c0 -89 -65 -145 -167 -145c-103 0 -167 56 -167 145l116 2
c0 -41 15 -60 51 -60zM290 565c192 0 276 -93 276 -242v-323h-165v64c-32 -39 -93 -76 -182 -76c-116 0 -193 72 -193 176c0 101 67 179 226 179c46 0 105 -3 148 -7c-3 59 -45 93 -128 93c-49 0 -111 -19 -151 -50l-66 114c67 49 155 72 235 72zM275 118
c66 0 119 45 125 110v12c-32 4 -65 6 -107 6c-81 0 -109 -27 -109 -67s34 -61 91 -61z" />
    <glyph glyph-name="uni01CE" unicode="&#x1ce;" horiz-adv-x="621" 
d="M227 598l-103 145l127 8l46 -85l46 85l127 -8l-103 -145h-140zM290 565c192 0 276 -93 276 -242v-323h-165v64c-32 -39 -93 -76 -182 -76c-116 0 -193 72 -193 176c0 101 67 179 226 179c46 0 105 -3 148 -7c-3 59 -45 93 -128 93c-49 0 -111 -19 -151 -50l-66 114
c67 49 155 72 235 72zM275 118c66 0 119 45 125 110v12c-32 4 -65 6 -107 6c-81 0 -109 -27 -109 -67s34 -61 91 -61z" />
    <glyph glyph-name="acircumflex" unicode="&#xe2;" horiz-adv-x="621" 
d="M343 598l-46 85l-46 -85l-127 8l103 145h140l103 -145zM290 565c192 0 276 -93 276 -242v-323h-165v64c-32 -39 -93 -76 -182 -76c-116 0 -193 72 -193 176c0 101 67 179 226 179c46 0 105 -3 148 -7c-3 59 -45 93 -128 93c-49 0 -111 -19 -151 -50l-66 114
c67 49 155 72 235 72zM275 118c66 0 119 45 125 110v12c-32 4 -65 6 -107 6c-81 0 -109 -27 -109 -67s34 -61 91 -61z" />
    <glyph glyph-name="uni1EA5" unicode="&#x1ea5;" horiz-adv-x="621" 
d="M326 958l154 -29l-125 -133l-118 8zM343 598l-46 85l-46 -85l-127 8l103 145h140l103 -145zM290 565c192 0 276 -93 276 -242v-323h-165v64c-32 -39 -93 -76 -182 -76c-116 0 -193 72 -193 176c0 101 67 179 226 179c46 0 105 -3 148 -7c-3 59 -45 93 -128 93
c-49 0 -111 -19 -151 -50l-66 114c67 49 155 72 235 72zM275 118c66 0 119 45 125 110v12c-32 4 -65 6 -107 6c-81 0 -109 -27 -109 -67s34 -61 91 -61z" />
    <glyph glyph-name="uni1EAD" unicode="&#x1ead;" horiz-adv-x="621" 
d="M343 598l-46 85l-46 -85l-127 8l103 145h140l103 -145zM290 565c192 0 276 -93 276 -242v-323h-165v64c-32 -39 -93 -76 -182 -76c-116 0 -193 72 -193 176c0 101 67 179 226 179c46 0 105 -3 148 -7c-3 59 -45 93 -128 93c-49 0 -111 -19 -151 -50l-66 114
c67 49 155 72 235 72zM275 118c66 0 119 45 125 110v12c-32 4 -65 6 -107 6c-81 0 -109 -27 -109 -67s34 -61 91 -61zM376 -173h-171v130h171v-130z" />
    <glyph glyph-name="uni1EA7" unicode="&#x1ea7;" horiz-adv-x="621" 
d="M268 958l89 -154l-117 -8l-126 133zM227 751h140l103 -145l-127 -8l-46 85l-46 -85l-127 8zM290 565c192 0 276 -93 276 -242v-323h-165v64c-32 -39 -93 -76 -182 -76c-116 0 -193 72 -193 176c0 101 67 179 226 179c46 0 105 -3 148 -7c-3 59 -45 93 -128 93
c-49 0 -111 -19 -151 -50l-66 114c67 49 155 72 235 72zM275 118c66 0 119 45 125 110v12c-32 4 -65 6 -107 6c-81 0 -109 -27 -109 -67s34 -61 91 -61z" />
    <glyph glyph-name="uni1EA9" unicode="&#x1ea9;" horiz-adv-x="621" 
d="M282 881c0 24 -26 44 -65 21l-8 68c108 55 175 6 175 -49c0 -57 -41 -107 -69 -132l-66 19c15 22 33 46 33 73zM343 598l-46 85l-46 -85l-127 8l103 145h140l103 -145zM290 565c192 0 276 -93 276 -242v-323h-165v64c-32 -39 -93 -76 -182 -76c-116 0 -193 72 -193 176
c0 101 67 179 226 179c46 0 105 -3 148 -7c-3 59 -45 93 -128 93c-49 0 -111 -19 -151 -50l-66 114c67 49 155 72 235 72zM275 118c66 0 119 45 125 110v12c-32 4 -65 6 -107 6c-81 0 -109 -27 -109 -67s34 -61 91 -61z" />
    <glyph glyph-name="uni1EAB" unicode="&#x1eab;" horiz-adv-x="621" 
d="M239 834c-25 0 -42 -17 -42 -42l-75 18c0 71 41 116 100 116c55 0 100 -32 133 -32c25 0 43 16 43 41l75 -17c0 -72 -41 -116 -101 -116c-55 0 -98 32 -133 32zM367 751l103 -145l-127 -8l-46 85l-46 -85l-127 8l103 145h140zM290 565c192 0 276 -93 276 -242v-323h-165
v64c-32 -39 -93 -76 -182 -76c-116 0 -193 72 -193 176c0 101 67 179 226 179c46 0 105 -3 148 -7c-3 59 -45 93 -128 93c-49 0 -111 -19 -151 -50l-66 114c67 49 155 72 235 72zM275 118c66 0 119 45 125 110v12c-32 4 -65 6 -107 6c-81 0 -109 -27 -109 -67s34 -61 91 -61
z" />
    <glyph glyph-name="adieresis" unicode="&#xe4;" horiz-adv-x="621" 
d="M155 741h110v-130h-110v130zM329 741h110v-130h-110v130zM290 565c192 0 276 -93 276 -242v-323h-165v64c-32 -39 -93 -76 -182 -76c-116 0 -193 72 -193 176c0 101 67 179 226 179c46 0 105 -3 148 -7c-3 59 -45 93 -128 93c-49 0 -111 -19 -151 -50l-66 114
c67 49 155 72 235 72zM275 118c66 0 119 45 125 110v12c-32 4 -65 6 -107 6c-81 0 -109 -27 -109 -67s34 -61 91 -61z" />
    <glyph glyph-name="uni1EA1" unicode="&#x1ea1;" horiz-adv-x="621" 
d="M290 565c192 0 276 -93 276 -242v-323h-165v64c-32 -39 -93 -76 -182 -76c-116 0 -193 72 -193 176c0 101 67 179 226 179c46 0 105 -3 148 -7c-3 59 -45 93 -128 93c-49 0 -111 -19 -151 -50l-66 114c67 49 155 72 235 72zM275 118c66 0 119 45 125 110v12
c-32 4 -65 6 -107 6c-81 0 -109 -27 -109 -67s34 -61 91 -61zM376 -173h-171v130h171v-130z" />
    <glyph glyph-name="agrave" unicode="&#xe0;" horiz-adv-x="621" 
d="M268 761l89 -154l-117 -8l-126 133zM290 565c192 0 276 -93 276 -242v-323h-165v64c-32 -39 -93 -76 -182 -76c-116 0 -193 72 -193 176c0 101 67 179 226 179c46 0 105 -3 148 -7c-3 59 -45 93 -128 93c-49 0 -111 -19 -151 -50l-66 114c67 49 155 72 235 72zM275 118
c66 0 119 45 125 110v12c-32 4 -65 6 -107 6c-81 0 -109 -27 -109 -67s34 -61 91 -61z" />
    <glyph glyph-name="uni1EA3" unicode="&#x1ea3;" horiz-adv-x="621" 
d="M282 684c0 24 -26 44 -65 21l-8 68c108 55 175 6 175 -49c0 -57 -41 -107 -69 -132l-66 19c15 22 33 46 33 73zM290 565c192 0 276 -93 276 -242v-323h-165v64c-32 -39 -93 -76 -182 -76c-116 0 -193 72 -193 176c0 101 67 179 226 179c46 0 105 -3 148 -7
c-3 59 -45 93 -128 93c-49 0 -111 -19 -151 -50l-66 114c67 49 155 72 235 72zM275 118c66 0 119 45 125 110v12c-32 4 -65 6 -107 6c-81 0 -109 -27 -109 -67s34 -61 91 -61z" />
    <glyph glyph-name="amacron" unicode="&#x101;" horiz-adv-x="621" 
d="M133 719h347v-95h-347v95zM290 565c192 0 276 -93 276 -242v-323h-165v64c-32 -39 -93 -76 -182 -76c-116 0 -193 72 -193 176c0 101 67 179 226 179c46 0 105 -3 148 -7c-3 59 -45 93 -128 93c-49 0 -111 -19 -151 -50l-66 114c67 49 155 72 235 72zM275 118
c66 0 119 45 125 110v12c-32 4 -65 6 -107 6c-81 0 -109 -27 -109 -67s34 -61 91 -61z" />
    <glyph glyph-name="aogonek" unicode="&#x105;" horiz-adv-x="621" 
d="M591 -105l7 -93c-162 -35 -239 15 -239 86c0 46 35 86 79 112h-37v64c-32 -39 -93 -76 -182 -76c-116 0 -193 72 -193 176c0 101 67 179 226 179c46 0 105 -3 148 -7c-3 59 -45 93 -128 93c-49 0 -111 -19 -151 -50l-66 114c67 49 155 72 235 72c192 0 276 -93 276 -242
v-323c-40 -24 -62 -50 -62 -73c0 -32 30 -43 87 -32zM275 118c66 0 119 45 125 110v12c-32 4 -65 6 -107 6c-81 0 -109 -27 -109 -67s34 -61 91 -61z" />
    <glyph glyph-name="aring" unicode="&#xe5;" horiz-adv-x="629" 
d="M304 592c-79 0 -135 52 -135 123c0 72 56 123 135 123c78 0 135 -51 135 -123c0 -71 -57 -123 -135 -123zM304 768c-31 0 -54 -23 -54 -53c0 -31 23 -52 54 -52c30 0 54 21 54 52c0 30 -24 53 -54 53zM290 565c192 0 276 -93 276 -242v-323h-165v64
c-32 -39 -93 -76 -182 -76c-116 0 -193 72 -193 176c0 101 67 179 226 179c46 0 105 -3 148 -7c-3 59 -45 93 -128 93c-49 0 -111 -19 -151 -50l-66 114c67 49 155 72 235 72zM275 118c66 0 119 45 125 110v12c-32 4 -65 6 -107 6c-81 0 -109 -27 -109 -67s34 -61 91 -61z
" />
    <glyph glyph-name="aringacute" unicode="&#x1fb;" horiz-adv-x="629" 
d="M333 1041l154 -29l-126 -133l-117 8zM304 592c-79 0 -135 52 -135 123c0 72 56 123 135 123c78 0 135 -51 135 -123c0 -71 -57 -123 -135 -123zM304 768c-31 0 -54 -23 -54 -53c0 -31 23 -52 54 -52c30 0 54 21 54 52c0 30 -24 53 -54 53zM290 565
c192 0 276 -93 276 -242v-323h-165v64c-32 -39 -93 -76 -182 -76c-116 0 -193 72 -193 176c0 101 67 179 226 179c46 0 105 -3 148 -7c-3 59 -45 93 -128 93c-49 0 -111 -19 -151 -50l-66 114c67 49 155 72 235 72zM275 118c66 0 119 45 125 110v12c-32 4 -65 6 -107 6
c-81 0 -109 -27 -109 -67s34 -61 91 -61z" />
    <glyph glyph-name="atilde" unicode="&#xe3;" horiz-adv-x="621" 
d="M239 637c-25 0 -42 -17 -42 -42l-75 18c0 71 41 116 100 116c55 0 100 -32 133 -32c25 0 43 16 43 41l75 -17c0 -72 -41 -116 -101 -116c-55 0 -98 32 -133 32zM290 565c192 0 276 -93 276 -242v-323h-165v64c-32 -39 -93 -76 -182 -76c-116 0 -193 72 -193 176
c0 101 67 179 226 179c46 0 105 -3 148 -7c-3 59 -45 93 -128 93c-49 0 -111 -19 -151 -50l-66 114c67 49 155 72 235 72zM275 118c66 0 119 45 125 110v12c-32 4 -65 6 -107 6c-81 0 -109 -27 -109 -67s34 -61 91 -61z" />
    <glyph glyph-name="aeacute" unicode="&#x1fd;" horiz-adv-x="992" 
d="M535 760l154 -29l-125 -133l-118 8zM964 227h-403c14 -67 72 -105 152 -105c56 0 95 16 129 53l97 -86c-56 -60 -130 -100 -234 -100c-109 0 -200 45 -254 118c-44 -63 -120 -119 -232 -119c-111 0 -200 69 -200 176c0 103 79 172 225 172c46 0 106 -2 149 -6v7
c-1 62 -43 99 -129 99c-48 0 -117 -21 -150 -51l-68 110c67 44 156 70 237 70c98 0 161 -32 200 -79c52 49 126 78 214 78c162 0 275 -111 275 -261c0 -23 -3 -45 -8 -76zM695 432c-70 0 -119 -40 -133 -104h251c-10 69 -55 104 -118 104zM263 115c71 0 128 46 131 116v10
c-30 3 -71 5 -109 5c-68 0 -108 -26 -108 -67c0 -39 33 -64 86 -64z" />
    <glyph glyph-name="cacute" unicode="&#x107;" horiz-adv-x="590" 
d="M529 731l-125 -133l-118 8l89 154zM346 -12c-175 0 -309 119 -309 288c0 170 134 289 309 289c86 0 169 -31 227 -101l-109 -95c-33 41 -72 55 -117 55c-79 0 -142 -52 -142 -147s64 -148 145 -148c42 0 80 13 114 55l109 -95c-57 -69 -141 -101 -227 -101z" />
    <glyph glyph-name="ccaron" unicode="&#x10d;" horiz-adv-x="590" 
d="M276 597l-103 145l127 8l46 -85l46 85l127 -8l-103 -145h-140zM350 129c42 0 80 13 114 55l109 -95c-57 -69 -141 -101 -227 -101c-175 0 -309 119 -309 288c0 170 134 289 309 289c86 0 169 -31 227 -101l-109 -95c-33 41 -72 55 -117 55c-79 0 -142 -52 -142 -147
s64 -148 145 -148z" />
    <glyph glyph-name="ccedilla" unicode="&#xe7;" horiz-adv-x="590" 
d="M350 129c42 0 80 13 114 55l109 -95c-48 -58 -115 -90 -187 -99l-7 -23c45 -8 72 -35 72 -69c0 -48 -49 -77 -130 -77c-28 0 -50 2 -70 6l15 70c12 -3 27 -5 38 -5c18 0 29 5 29 16c0 13 -12 23 -53 20l17 63c-150 20 -260 132 -260 285c0 170 134 289 309 289
c86 0 169 -31 227 -101l-109 -95c-33 41 -72 55 -117 55c-79 0 -142 -52 -142 -147s64 -148 145 -148z" />
    <glyph glyph-name="ccircumflex" unicode="&#x109;" horiz-adv-x="590" 
d="M392 597l-46 85l-46 -85l-127 8l103 145h140l103 -145zM350 129c42 0 80 13 114 55l109 -95c-57 -69 -141 -101 -227 -101c-175 0 -309 119 -309 288c0 170 134 289 309 289c86 0 169 -31 227 -101l-109 -95c-33 41 -72 55 -117 55c-79 0 -142 -52 -142 -147
s64 -148 145 -148z" />
    <glyph glyph-name="cdotaccent" unicode="&#x10b;" horiz-adv-x="590" 
d="M432 610h-171v130h171v-130zM346 -12c-175 0 -309 119 -309 288c0 170 134 289 309 289c86 0 169 -31 227 -101l-109 -95c-33 41 -72 55 -117 55c-79 0 -142 -52 -142 -147s64 -148 145 -148c42 0 80 13 114 55l109 -95c-57 -69 -141 -101 -227 -101z" />
    <glyph glyph-name="dcaron" unicode="&#x10f;" horiz-adv-x="822" 
d="M483 492v246h165v-738h-165v62c-46 -50 -110 -74 -181 -74c-147 0 -264 120 -264 291c0 170 115 286 265 286c70 0 134 -23 180 -73zM703 513v225h125l-40 -225h-85zM340 130c83 0 143 56 143 147c0 90 -59 146 -143 146c-81 0 -137 -59 -137 -145
c0 -89 55 -148 137 -148z" />
    <glyph glyph-name="dcroat" unicode="&#x111;" horiz-adv-x="717" 
d="M648 670h53v-80h-53v-590h-165v62c-46 -50 -110 -74 -181 -74c-147 0 -264 120 -264 291c0 170 115 286 265 286c70 0 134 -23 180 -73v98h-146v80h146v68h165v-68zM340 130c83 0 143 56 143 147c0 90 -59 146 -143 146c-81 0 -137 -59 -137 -145c0 -89 55 -148 137 -148
z" />
    <glyph glyph-name="uni1E0D" unicode="&#x1e0d;" horiz-adv-x="717" 
d="M483 492v246h165v-738h-165v62c-46 -50 -110 -74 -181 -74c-147 0 -264 120 -264 291c0 170 115 286 265 286c70 0 134 -23 180 -73zM340 130c83 0 143 56 143 147c0 90 -59 146 -143 146c-81 0 -137 -59 -137 -145c0 -89 55 -148 137 -148zM435 -173h-171v130h171v-130z
" />
    <glyph glyph-name="uni1E0F" unicode="&#x1e0f;" horiz-adv-x="717" 
d="M483 492v246h165v-738h-165v62c-46 -50 -110 -74 -181 -74c-147 0 -264 120 -264 291c0 170 115 286 265 286c70 0 134 -23 180 -73zM340 130c83 0 143 56 143 147c0 90 -59 146 -143 146c-81 0 -137 -59 -137 -145c0 -89 55 -148 137 -148zM531 -136h-347v95h347v-95z
" />
    <glyph glyph-name="eacute" unicode="&#xe9;" horiz-adv-x="633" 
d="M354 760l154 -29l-125 -133l-118 8zM605 227h-403c14 -67 72 -105 152 -105c55 0 95 16 128 53l98 -86c-56 -60 -130 -100 -234 -100c-179 0 -309 121 -309 288c0 166 121 287 301 287c162 0 274 -111 274 -261c0 -23 -2 -45 -7 -76zM335 432c-70 0 -119 -40 -132 -104
h251c-10 69 -55 104 -119 104z" />
    <glyph glyph-name="ebreve" unicode="&#x115;" horiz-adv-x="633" 
d="M325 590c-102 0 -167 57 -167 146l116 2c0 -42 15 -61 51 -61s52 19 52 61l116 -2c0 -89 -65 -146 -168 -146zM605 227h-403c14 -67 72 -105 152 -105c55 0 95 16 128 53l98 -86c-56 -60 -130 -100 -234 -100c-179 0 -309 121 -309 288c0 166 121 287 301 287
c162 0 274 -111 274 -261c0 -23 -2 -45 -7 -76zM335 432c-70 0 -119 -40 -132 -104h251c-10 69 -55 104 -119 104z" />
    <glyph glyph-name="ecaron" unicode="&#x11b;" horiz-adv-x="633" 
d="M255 597l-103 145l127 8l46 -85l46 85l127 -8l-103 -145h-140zM605 227h-403c14 -67 72 -105 152 -105c55 0 95 16 128 53l98 -86c-56 -60 -130 -100 -234 -100c-179 0 -309 121 -309 288c0 166 121 287 301 287c162 0 274 -111 274 -261c0 -23 -2 -45 -7 -76zM335 432
c-70 0 -119 -40 -132 -104h251c-10 69 -55 104 -119 104z" />
    <glyph glyph-name="ecircumflex" unicode="&#xea;" horiz-adv-x="633" 
d="M371 597l-46 85l-46 -85l-127 8l103 145h140l103 -145zM605 227h-403c14 -67 72 -105 152 -105c55 0 95 16 128 53l98 -86c-56 -60 -130 -100 -234 -100c-179 0 -309 121 -309 288c0 166 121 287 301 287c162 0 274 -111 274 -261c0 -23 -2 -45 -7 -76zM335 432
c-70 0 -119 -40 -132 -104h251c-10 69 -55 104 -119 104z" />
    <glyph glyph-name="uni1EBF" unicode="&#x1ebf;" horiz-adv-x="633" 
d="M354 957l154 -29l-125 -133l-118 8zM371 597l-46 85l-46 -85l-127 8l103 145h140l103 -145zM605 227h-403c14 -67 72 -105 152 -105c55 0 95 16 128 53l98 -86c-56 -60 -130 -100 -234 -100c-179 0 -309 121 -309 288c0 166 121 287 301 287c162 0 274 -111 274 -261
c0 -23 -2 -45 -7 -76zM335 432c-70 0 -119 -40 -132 -104h251c-10 69 -55 104 -119 104z" />
    <glyph glyph-name="uni1EC7" unicode="&#x1ec7;" horiz-adv-x="633" 
d="M371 597l-46 85l-46 -85l-127 8l103 145h140l103 -145zM605 227h-403c14 -67 72 -105 152 -105c55 0 95 16 128 53l98 -86c-56 -60 -130 -100 -234 -100c-179 0 -309 121 -309 288c0 166 121 287 301 287c162 0 274 -111 274 -261c0 -23 -2 -45 -7 -76zM335 432
c-70 0 -119 -40 -132 -104h251c-10 69 -55 104 -119 104zM404 -174h-171v130h171v-130z" />
    <glyph glyph-name="uni1EC1" unicode="&#x1ec1;" horiz-adv-x="633" 
d="M297 957l89 -154l-117 -8l-126 133zM255 750h140l103 -145l-127 -8l-46 85l-46 -85l-127 8zM605 227h-403c14 -67 72 -105 152 -105c55 0 95 16 128 53l98 -86c-56 -60 -130 -100 -234 -100c-179 0 -309 121 -309 288c0 166 121 287 301 287c162 0 274 -111 274 -261
c0 -23 -2 -45 -7 -76zM335 432c-70 0 -119 -40 -132 -104h251c-10 69 -55 104 -119 104z" />
    <glyph glyph-name="uni1EC3" unicode="&#x1ec3;" horiz-adv-x="633" 
d="M311 880c0 24 -26 44 -65 21l-8 68c108 55 175 6 175 -49c0 -57 -41 -107 -69 -132l-66 19c15 22 33 46 33 73zM371 597l-46 85l-46 -85l-127 8l103 145h140l103 -145zM605 227h-403c14 -67 72 -105 152 -105c55 0 95 16 128 53l98 -86c-56 -60 -130 -100 -234 -100
c-179 0 -309 121 -309 288c0 166 121 287 301 287c162 0 274 -111 274 -261c0 -23 -2 -45 -7 -76zM335 432c-70 0 -119 -40 -132 -104h251c-10 69 -55 104 -119 104z" />
    <glyph glyph-name="uni1EC5" unicode="&#x1ec5;" horiz-adv-x="633" 
d="M267 833c-25 0 -42 -17 -42 -42l-75 18c0 71 41 116 100 116c55 0 100 -32 133 -32c25 0 43 16 43 41l75 -17c0 -72 -41 -116 -101 -116c-55 0 -98 32 -133 32zM395 750l103 -145l-127 -8l-46 85l-46 -85l-127 8l103 145h140zM605 227h-403c14 -67 72 -105 152 -105
c55 0 95 16 128 53l98 -86c-56 -60 -130 -100 -234 -100c-179 0 -309 121 -309 288c0 166 121 287 301 287c162 0 274 -111 274 -261c0 -23 -2 -45 -7 -76zM335 432c-70 0 -119 -40 -132 -104h251c-10 69 -55 104 -119 104z" />
    <glyph glyph-name="edieresis" unicode="&#xeb;" horiz-adv-x="633" 
d="M184 740h110v-130h-110v130zM358 740h110v-130h-110v130zM605 227h-403c14 -67 72 -105 152 -105c55 0 95 16 128 53l98 -86c-56 -60 -130 -100 -234 -100c-179 0 -309 121 -309 288c0 166 121 287 301 287c162 0 274 -111 274 -261c0 -23 -2 -45 -7 -76zM335 432
c-70 0 -119 -40 -132 -104h251c-10 69 -55 104 -119 104z" />
    <glyph glyph-name="edotaccent" unicode="&#x117;" horiz-adv-x="633" 
d="M240 740h171v-130h-171v130zM605 227h-403c14 -67 72 -105 152 -105c55 0 95 16 128 53l98 -86c-56 -60 -130 -100 -234 -100c-179 0 -309 121 -309 288c0 166 121 287 301 287c162 0 274 -111 274 -261c0 -23 -2 -45 -7 -76zM335 432c-70 0 -119 -40 -132 -104h251
c-10 69 -55 104 -119 104z" />
    <glyph glyph-name="uni1EB9" unicode="&#x1eb9;" horiz-adv-x="633" 
d="M605 227h-403c14 -67 72 -105 152 -105c55 0 95 16 128 53l98 -86c-56 -60 -130 -100 -234 -100c-179 0 -309 121 -309 288c0 166 121 287 301 287c162 0 274 -111 274 -261c0 -23 -2 -45 -7 -76zM335 432c-70 0 -119 -40 -132 -104h251c-10 69 -55 104 -119 104z
M404 -174h-171v130h171v-130z" />
    <glyph glyph-name="egrave" unicode="&#xe8;" horiz-adv-x="633" 
d="M297 760l89 -154l-117 -8l-126 133zM605 227h-403c14 -67 72 -105 152 -105c55 0 95 16 128 53l98 -86c-56 -60 -130 -100 -234 -100c-179 0 -309 121 -309 288c0 166 121 287 301 287c162 0 274 -111 274 -261c0 -23 -2 -45 -7 -76zM335 432c-70 0 -119 -40 -132 -104
h251c-10 69 -55 104 -119 104z" />
    <glyph glyph-name="uni1EBB" unicode="&#x1ebb;" horiz-adv-x="633" 
d="M311 683c0 24 -26 44 -65 21l-8 68c108 55 175 6 175 -49c0 -57 -41 -107 -69 -132l-66 19c15 22 33 46 33 73zM605 227h-403c14 -67 72 -105 152 -105c55 0 95 16 128 53l98 -86c-56 -60 -130 -100 -234 -100c-179 0 -309 121 -309 288c0 166 121 287 301 287
c162 0 274 -111 274 -261c0 -23 -2 -45 -7 -76zM335 432c-70 0 -119 -40 -132 -104h251c-10 69 -55 104 -119 104z" />
    <glyph glyph-name="emacron" unicode="&#x113;" horiz-adv-x="633" 
d="M161 718h347v-95h-347v95zM605 227h-403c14 -67 72 -105 152 -105c55 0 95 16 128 53l98 -86c-56 -60 -130 -100 -234 -100c-179 0 -309 121 -309 288c0 166 121 287 301 287c162 0 274 -111 274 -261c0 -23 -2 -45 -7 -76zM335 432c-70 0 -119 -40 -132 -104h251
c-10 69 -55 104 -119 104z" />
    <glyph glyph-name="eogonek" unicode="&#x119;" horiz-adv-x="633" 
d="M605 227h-403c14 -67 72 -105 152 -105c55 0 95 16 128 53l98 -86c-12 -13 -24 -24 -38 -35h1c-1 -1 -2 -2 -4 -2c-7 -6 -15 -11 -23 -16c-23 -19 -35 -38 -35 -55c0 -32 30 -43 87 -32l7 -93c-162 -35 -239 15 -239 86c0 17 5 32 12 47h-2c-179 0 -309 121 -309 288
c0 166 121 287 301 287c162 0 274 -111 274 -261c0 -23 -2 -45 -7 -76zM335 432c-70 0 -119 -40 -132 -104h251c-10 69 -55 104 -119 104z" />
    <glyph glyph-name="uni1EBD" unicode="&#x1ebd;" horiz-adv-x="633" 
d="M267 636c-25 0 -42 -17 -42 -42l-75 18c0 71 41 116 100 116c55 0 100 -32 133 -32c25 0 43 16 43 41l75 -17c0 -72 -41 -116 -101 -116c-55 0 -98 32 -133 32zM605 227h-403c14 -67 72 -105 152 -105c55 0 95 16 128 53l98 -86c-56 -60 -130 -100 -234 -100
c-179 0 -309 121 -309 288c0 166 121 287 301 287c162 0 274 -111 274 -261c0 -23 -2 -45 -7 -76zM335 432c-70 0 -119 -40 -132 -104h251c-10 69 -55 104 -119 104z" />
    <glyph glyph-name="gbreve" unicode="&#x11f;" horiz-adv-x="647" 
d="M321 595c-102 0 -167 57 -167 146l116 2c0 -42 15 -61 51 -61s52 19 52 61l116 -2c0 -89 -65 -146 -168 -146zM258 149h118c174 2 244 -59 244 -152c0 -110 -107 -180 -316 -180c-169 0 -260 50 -260 142c0 43 31 76 67 96c-33 20 -49 52 -49 86c0 47 29 81 65 101
c-43 32 -65 79 -65 137c0 115 96 187 255 187c46 0 85 -6 116 -20l148 45l31 -111l-75 -11c23 -22 38 -54 38 -90c0 -117 -96 -190 -256 -190c-34 0 -66 3 -94 9c-7 -7 -11 -16 -11 -26c0 -20 19 -23 44 -23zM318 446c-62 0 -95 -23 -95 -66c0 -47 33 -72 95 -72
s95 25 95 71c0 44 -33 67 -95 67zM316 -58c96 0 143 12 143 52c0 32 -38 38 -112 38h-122c-16 -15 -24 -28 -24 -44c0 -39 46 -46 115 -46z" />
    <glyph glyph-name="gcaron" unicode="&#x1e7;" horiz-adv-x="647" 
d="M251 602l-103 145l127 8l46 -85l46 85l127 -8l-103 -145h-140zM258 149h118c174 2 244 -59 244 -152c0 -110 -107 -180 -316 -180c-169 0 -260 50 -260 142c0 43 31 76 67 96c-33 20 -49 52 -49 86c0 47 29 81 65 101c-43 32 -65 79 -65 137c0 115 96 187 255 187
c46 0 85 -6 116 -20l148 45l31 -111l-75 -11c23 -22 38 -54 38 -90c0 -117 -96 -190 -256 -190c-34 0 -66 3 -94 9c-7 -7 -11 -16 -11 -26c0 -20 19 -23 44 -23zM318 446c-62 0 -95 -23 -95 -66c0 -47 33 -72 95 -72s95 25 95 71c0 44 -33 67 -95 67zM316 -58
c96 0 143 12 143 52c0 32 -38 38 -112 38h-122c-16 -15 -24 -28 -24 -44c0 -39 46 -46 115 -46z" />
    <glyph glyph-name="gcircumflex" unicode="&#x11d;" horiz-adv-x="647" 
d="M367 602l-46 85l-46 -85l-127 8l103 145h140l103 -145zM258 149h118c174 2 244 -59 244 -152c0 -110 -107 -180 -316 -180c-169 0 -260 50 -260 142c0 43 31 76 67 96c-33 20 -49 52 -49 86c0 47 29 81 65 101c-43 32 -65 79 -65 137c0 115 96 187 255 187
c46 0 85 -6 116 -20l148 45l31 -111l-75 -11c23 -22 38 -54 38 -90c0 -117 -96 -190 -256 -190c-34 0 -66 3 -94 9c-7 -7 -11 -16 -11 -26c0 -20 19 -23 44 -23zM318 446c-62 0 -95 -23 -95 -66c0 -47 33 -72 95 -72s95 25 95 71c0 44 -33 67 -95 67zM316 -58
c96 0 143 12 143 52c0 32 -38 38 -112 38h-122c-16 -15 -24 -28 -24 -44c0 -39 46 -46 115 -46z" />
    <glyph glyph-name="uni0123" unicode="&#x123;" horiz-adv-x="647" 
d="M423 688v-90h-131c-31 123 25 177 103 203l24 -49c-40 -14 -52 -36 -51 -64h55zM258 149h118c174 2 244 -59 244 -152c0 -110 -107 -180 -316 -180c-169 0 -260 50 -260 142c0 43 31 76 67 96c-33 20 -49 52 -49 86c0 47 29 81 65 101c-43 32 -65 79 -65 137
c0 115 96 187 255 187c46 0 85 -6 116 -20l148 45l31 -111l-75 -11c23 -22 38 -54 38 -90c0 -117 -96 -190 -256 -190c-34 0 -66 3 -94 9c-7 -7 -11 -16 -11 -26c0 -20 19 -23 44 -23zM318 446c-62 0 -95 -23 -95 -66c0 -47 33 -72 95 -72s95 25 95 71c0 44 -33 67 -95 67z
M316 -58c96 0 143 12 143 52c0 32 -38 38 -112 38h-122c-16 -15 -24 -28 -24 -44c0 -39 46 -46 115 -46z" />
    <glyph glyph-name="gdotaccent" unicode="&#x121;" horiz-adv-x="647" 
d="M236 745h171v-130h-171v130zM258 149h118c174 2 244 -59 244 -152c0 -110 -107 -180 -316 -180c-169 0 -260 50 -260 142c0 43 31 76 67 96c-33 20 -49 52 -49 86c0 47 29 81 65 101c-43 32 -65 79 -65 137c0 115 96 187 255 187c46 0 85 -6 116 -20l148 45l31 -111
l-75 -11c23 -22 38 -54 38 -90c0 -117 -96 -190 -256 -190c-34 0 -66 3 -94 9c-7 -7 -11 -16 -11 -26c0 -20 19 -23 44 -23zM318 446c-62 0 -95 -23 -95 -66c0 -47 33 -72 95 -72s95 25 95 71c0 44 -33 67 -95 67zM316 -58c96 0 143 12 143 52c0 32 -38 38 -112 38h-122
c-16 -15 -24 -28 -24 -44c0 -39 46 -46 115 -46z" />
    <glyph glyph-name="uni1E21" unicode="&#x1e21;" horiz-adv-x="647" 
d="M157 723h347v-95h-347v95zM258 149h118c174 2 244 -59 244 -152c0 -110 -107 -180 -316 -180c-169 0 -260 50 -260 142c0 43 31 76 67 96c-33 20 -49 52 -49 86c0 47 29 81 65 101c-43 32 -65 79 -65 137c0 115 96 187 255 187c46 0 85 -6 116 -20l148 45l31 -111
l-75 -11c23 -22 38 -54 38 -90c0 -117 -96 -190 -256 -190c-34 0 -66 3 -94 9c-7 -7 -11 -16 -11 -26c0 -20 19 -23 44 -23zM318 446c-62 0 -95 -23 -95 -66c0 -47 33 -72 95 -72s95 25 95 71c0 44 -33 67 -95 67zM316 -58c96 0 143 12 143 52c0 32 -38 38 -112 38h-122
c-16 -15 -24 -28 -24 -44c0 -39 46 -46 115 -46z" />
    <glyph glyph-name="hbar" unicode="&#x127;" horiz-adv-x="689" 
d="M415 565c134 0 219 -85 219 -230v-335h-165v307c0 73 -35 113 -105 113c-75 0 -130 -61 -130 -146v-274h-165v584h-59v80h59v74h165v-74h140v-80h-140v-99c41 47 102 80 181 80z" />
    <glyph glyph-name="uni1E2B" unicode="&#x1e2b;" horiz-adv-x="689" 
d="M415 565c134 0 219 -85 219 -230v-335h-165v307c0 73 -35 113 -105 113c-75 0 -130 -61 -130 -146v-274h-165v738h165v-253c41 47 102 80 181 80zM351 -80c30 0 43 15 43 46l98 -1c0 -68 -55 -112 -141 -112s-141 44 -141 112l98 1c0 -31 13 -46 43 -46z" />
    <glyph glyph-name="hcircumflex" unicode="&#x125;" horiz-adv-x="689" 
d="M397 784l-47 77l-48 -77l-133 6l108 132h146l107 -132zM415 565c134 0 219 -85 219 -230v-335h-165v307c0 73 -35 113 -105 113c-75 0 -130 -61 -130 -146v-274h-165v738h165v-253c41 47 102 80 181 80z" />
    <glyph glyph-name="uni1E25" unicode="&#x1e25;" horiz-adv-x="689" 
d="M415 565c134 0 219 -85 219 -230v-335h-165v307c0 73 -35 113 -105 113c-75 0 -130 -61 -130 -146v-274h-165v738h165v-253c41 47 102 80 181 80zM424 -173h-171v130h171v-130z" />
    <glyph glyph-name="iacute" unicode="&#xed;" horiz-adv-x="291" 
d="M328 731l-125 -133l-118 8l89 154zM228 0h-165v553h165v-553z" />
    <glyph glyph-name="ibreve" unicode="&#x12d;" horiz-adv-x="291" 
d="M197 738l116 -2c0 -89 -65 -146 -168 -146c-102 0 -167 57 -167 146l116 2c0 -42 15 -61 51 -61s52 19 52 61zM228 0h-165v553h165v-553z" />
    <glyph glyph-name="uni01D0" unicode="&#x1d0;" horiz-adv-x="291" 
d="M75 597l-103 145l127 8l46 -85l46 85l127 -8l-103 -145h-140zM228 0h-165v553h165v-553z" />
    <glyph glyph-name="icircumflex" unicode="&#xee;" horiz-adv-x="291" 
d="M191 597l-46 85l-46 -85l-127 8l103 145h140l103 -145zM228 0h-165v553h165v-553z" />
    <glyph glyph-name="idieresis" unicode="&#xef;" horiz-adv-x="291" 
d="M113 610h-110v130h110v-130zM287 610h-110v130h110v-130zM228 0h-165v553h165v-553z" />
    <glyph glyph-name="i.loclTRK" horiz-adv-x="291" 
d="M231 610h-171v130h171v-130zM228 0h-165v553h165v-553z" />
    <glyph glyph-name="uni1ECB" unicode="&#x1ecb;" horiz-adv-x="291" 
d="M231 610h-171v130h171v-130zM228 0h-165v553h165v-553zM44 -173v130h171v-130h-171z" />
    <glyph glyph-name="igrave" unicode="&#xec;" horiz-adv-x="291" 
d="M205 606l-117 -8l-126 133l154 29zM228 0h-165v553h165v-553z" />
    <glyph glyph-name="uni1EC9" unicode="&#x1ec9;" horiz-adv-x="291" 
d="M164 591l-66 19c15 22 33 46 33 73c0 24 -26 44 -65 21l-8 68c108 55 175 6 175 -49c0 -57 -41 -107 -69 -132zM228 0h-165v553h165v-553z" />
    <glyph glyph-name="ij" unicode="&#x133;" horiz-adv-x="593" 
d="M231 610h-171v130h171v-130zM532 610h-171v130h171v-130zM228 0h-165v553h165v-553zM221 -159l33 119c11 -5 27 -8 44 -8c42 0 66 23 66 63v538h166v-543c0 -129 -94 -189 -206 -189c-35 0 -71 7 -103 20z" />
    <glyph glyph-name="imacron" unicode="&#x12b;" horiz-adv-x="291" 
d="M328 623h-347v95h347v-95zM228 0h-165v553h165v-553z" />
    <glyph glyph-name="iogonek" unicode="&#x12f;" horiz-adv-x="291" 
d="M60 740h171v-130h-171v130zM254 -105l7 -93c-162 -35 -239 15 -239 86c0 46 35 86 79 112h-38v553h165v-553h1c-40 -24 -62 -50 -62 -73c0 -32 30 -43 87 -32z" />
    <glyph glyph-name="itilde" unicode="&#x129;" horiz-adv-x="291" 
d="M45 594l-76 18c0 71 42 116 101 116c55 0 100 -32 133 -32c25 0 43 16 43 41l75 -17c0 -72 -41 -116 -101 -116c-55 0 -98 32 -133 32c-25 0 -42 -17 -42 -42zM228 0h-165v553h165v-553z" />
    <glyph glyph-name="jcircumflex" unicode="&#x135;" horiz-adv-x="302" 
d="M201 597l-46 85l-46 -85l-127 8l103 145h140l103 -145zM73 15v538h166v-543c0 -129 -94 -189 -206 -189c-35 0 -71 7 -103 20l33 119c11 -5 27 -8 44 -8c42 0 66 23 66 63z" />
    <glyph glyph-name="uni0137" unicode="&#x137;" horiz-adv-x="687" 
d="M654 553l-224 -234l252 -319h-188l-165 214l-95 -99v-115h-165v738h165v-435l219 250h201zM274 -126v90h131c32 -123 -24 -178 -102 -204l-25 49c41 15 53 37 52 65h-56z" />
    <glyph glyph-name="kgreenlandic" unicode="&#x138;" horiz-adv-x="698" 
d="M682 0h-188l-165 214l-95 -99v-115h-165v553h165v-250l219 250h201l-224 -234z" />
    <glyph glyph-name="lacute" unicode="&#x13a;" horiz-adv-x="303" 
d="M334 916l-125 -133l-118 8l89 154zM234 0h-165v738h165v-738z" />
    <glyph glyph-name="lcaron" unicode="&#x13e;" horiz-adv-x="392" 
d="M234 0h-165v738h165v-738zM276 513v225h123l-39 -225h-84z" />
    <glyph glyph-name="uni013C" unicode="&#x13c;" horiz-adv-x="303" 
d="M234 0h-165v738h165v-738zM110 -240l-25 49c41 15 53 37 52 65h-56v90h131c32 -123 -24 -178 -102 -204z" />
    <glyph glyph-name="ldot" unicode="&#x140;" horiz-adv-x="402" 
d="M234 0h-165v738h165v-738zM289 326v107h123v-107h-123z" />
    <glyph glyph-name="uni1E37" unicode="&#x1e37;" horiz-adv-x="303" 
d="M234 0h-165v738h165v-738zM57 -173v130h171v-130h-171z" />
    <glyph glyph-name="uni1E39" unicode="&#x1e39;" horiz-adv-x="303" 
d="M320 804h-347v94h347v-94zM234 0h-165v738h165v-738zM57 -173v130h171v-130h-171z" />
    <glyph glyph-name="uni1E3B" unicode="&#x1e3b;" horiz-adv-x="303" 
d="M234 0h-165v738h165v-738zM324 -136h-347v95h347v-95z" />
    <glyph glyph-name="lslash" unicode="&#x142;" horiz-adv-x="303" 
d="M288 485l35 -71l-89 -44v-370h-165v287l-57 -28l-36 71l93 46v362h165v-280z" />
    <glyph glyph-name="uni1E43" unicode="&#x1e43;" horiz-adv-x="1048" 
d="M789 565c125 0 204 -85 204 -227v-338h-166v310c0 70 -29 110 -91 110c-68 0 -126 -60 -126 -144v-276h-165v310c0 70 -29 110 -91 110c-69 0 -126 -60 -126 -144v-276h-165v553h165v-69c41 47 104 81 179 81c86 0 149 -40 181 -111c38 62 110 111 201 111zM600 -173
h-171v130h171v-130z" />
    <glyph glyph-name="nacute" unicode="&#x144;" horiz-adv-x="683" 
d="M371 760l154 -29l-125 -133l-118 8zM410 565c133 0 218 -85 218 -230v-335h-165v307c0 73 -35 113 -105 113c-75 0 -130 -61 -130 -146v-274h-165v553h165v-68c41 47 102 80 182 80z" />
    <glyph glyph-name="ncaron" unicode="&#x148;" horiz-adv-x="683" 
d="M272 597l-103 145l127 8l46 -85l46 85l127 -8l-103 -145h-140zM410 565c133 0 218 -85 218 -230v-335h-165v307c0 73 -35 113 -105 113c-75 0 -130 -61 -130 -146v-274h-165v553h165v-68c41 47 102 80 182 80z" />
    <glyph glyph-name="uni0146" unicode="&#x146;" horiz-adv-x="683" 
d="M410 565c133 0 218 -85 218 -230v-335h-165v307c0 73 -35 113 -105 113c-75 0 -130 -61 -130 -146v-274h-165v553h165v-68c41 47 102 80 182 80zM272 -126v90h131c32 -123 -24 -178 -102 -204l-25 49c41 15 53 37 52 65h-56z" />
    <glyph glyph-name="uni1E45" unicode="&#x1e45;" horiz-adv-x="683" 
d="M257 740h171v-130h-171v130zM410 565c133 0 218 -85 218 -230v-335h-165v307c0 73 -35 113 -105 113c-75 0 -130 -61 -130 -146v-274h-165v553h165v-68c41 47 102 80 182 80z" />
    <glyph glyph-name="uni1E47" unicode="&#x1e47;" horiz-adv-x="683" 
d="M410 565c133 0 218 -85 218 -230v-335h-165v307c0 73 -35 113 -105 113c-75 0 -130 -61 -130 -146v-274h-165v553h165v-68c41 47 102 80 182 80zM419 -173h-171v130h171v-130z" />
    <glyph glyph-name="uni1E49" unicode="&#x1e49;" horiz-adv-x="683" 
d="M410 565c133 0 218 -85 218 -230v-335h-165v307c0 73 -35 113 -105 113c-75 0 -130 -61 -130 -146v-274h-165v553h165v-68c41 47 102 80 182 80zM515 -136h-347v95h347v-95z" />
    <glyph glyph-name="ntilde" unicode="&#xf1;" horiz-adv-x="683" 
d="M284 636c-25 0 -42 -17 -42 -42l-75 18c0 71 41 116 100 116c55 0 100 -32 133 -32c25 0 43 16 43 41l75 -17c0 -72 -41 -116 -101 -116c-55 0 -98 32 -133 32zM410 565c133 0 218 -85 218 -230v-335h-165v307c0 73 -35 113 -105 113c-75 0 -130 -61 -130 -146v-274h-165
v553h165v-68c41 47 102 80 182 80z" />
    <glyph glyph-name="oacute" unicode="&#xf3;" 
d="M529 731l-125 -133l-118 8l89 154zM346 -12c-179 0 -309 122 -309 289s131 288 310 288s309 -121 309 -287c0 -167 -130 -290 -310 -290zM347 130c82 0 142 59 142 147c0 89 -60 147 -143 147c-82 0 -142 -58 -142 -145c0 -90 60 -149 143 -149z" />
    <glyph glyph-name="obreve" unicode="&#x14f;" 
d="M347 590c-102 0 -167 57 -167 146l116 2c0 -42 15 -61 51 -61s52 19 52 61l116 -2c0 -89 -65 -146 -168 -146zM347 565c179 0 309 -121 309 -287c0 -167 -130 -290 -310 -290c-179 0 -309 122 -309 289s131 288 310 288zM347 130c82 0 142 59 142 147
c0 89 -60 147 -143 147c-82 0 -142 -58 -142 -145c0 -90 60 -149 143 -149z" />
    <glyph glyph-name="uni01D2" unicode="&#x1d2;" 
d="M277 597l-103 145l127 8l46 -85l46 85l127 -8l-103 -145h-140zM347 565c179 0 309 -121 309 -287c0 -167 -130 -290 -310 -290c-179 0 -309 122 -309 289s131 288 310 288zM347 130c82 0 142 59 142 147c0 89 -60 147 -143 147c-82 0 -142 -58 -142 -145
c0 -90 60 -149 143 -149z" />
    <glyph glyph-name="ocircumflex" unicode="&#xf4;" 
d="M393 597l-46 85l-46 -85l-127 8l103 145h140l103 -145zM347 565c179 0 309 -121 309 -287c0 -167 -130 -290 -310 -290c-179 0 -309 122 -309 289s131 288 310 288zM347 130c82 0 142 59 142 147c0 89 -60 147 -143 147c-82 0 -142 -58 -142 -145c0 -90 60 -149 143 -149
z" />
    <glyph glyph-name="uni1ED1" unicode="&#x1ed1;" 
d="M375 957l154 -29l-125 -133l-118 8zM393 597l-46 85l-46 -85l-127 8l103 145h140l103 -145zM347 565c179 0 309 -121 309 -287c0 -167 -130 -290 -310 -290c-179 0 -309 122 -309 289s131 288 310 288zM347 130c82 0 142 59 142 147c0 89 -60 147 -143 147
c-82 0 -142 -58 -142 -145c0 -90 60 -149 143 -149z" />
    <glyph glyph-name="uni1ED9" unicode="&#x1ed9;" 
d="M393 597l-46 85l-46 -85l-127 8l103 145h140l103 -145zM347 565c179 0 309 -121 309 -287c0 -167 -130 -290 -310 -290c-179 0 -309 122 -309 289s131 288 310 288zM347 130c82 0 142 59 142 147c0 89 -60 147 -143 147c-82 0 -142 -58 -142 -145c0 -90 60 -149 143 -149
zM424 -173h-171v130h171v-130z" />
    <glyph glyph-name="uni1ED3" unicode="&#x1ed3;" 
d="M318 957l89 -154l-117 -8l-126 133zM277 750h140l103 -145l-127 -8l-46 85l-46 -85l-127 8zM347 565c179 0 309 -121 309 -287c0 -167 -130 -290 -310 -290c-179 0 -309 122 -309 289s131 288 310 288zM347 130c82 0 142 59 142 147c0 89 -60 147 -143 147
c-82 0 -142 -58 -142 -145c0 -90 60 -149 143 -149z" />
    <glyph glyph-name="uni1ED5" unicode="&#x1ed5;" 
d="M332 880c0 24 -26 44 -65 21l-8 68c108 55 175 6 175 -49c0 -57 -41 -107 -69 -132l-66 19c15 22 33 46 33 73zM393 597l-46 85l-46 -85l-127 8l103 145h140l103 -145zM347 565c179 0 309 -121 309 -287c0 -167 -130 -290 -310 -290c-179 0 -309 122 -309 289
s131 288 310 288zM347 130c82 0 142 59 142 147c0 89 -60 147 -143 147c-82 0 -142 -58 -142 -145c0 -90 60 -149 143 -149z" />
    <glyph glyph-name="uni1ED7" unicode="&#x1ed7;" 
d="M289 833c-25 0 -42 -17 -42 -42l-75 18c0 71 41 116 100 116c55 0 100 -32 133 -32c25 0 43 16 43 41l75 -17c0 -72 -41 -116 -101 -116c-55 0 -98 32 -133 32zM417 750l103 -145l-127 -8l-46 85l-46 -85l-127 8l103 145h140zM347 565c179 0 309 -121 309 -287
c0 -167 -130 -290 -310 -290c-179 0 -309 122 -309 289s131 288 310 288zM347 130c82 0 142 59 142 147c0 89 -60 147 -143 147c-82 0 -142 -58 -142 -145c0 -90 60 -149 143 -149z" />
    <glyph glyph-name="odieresis" unicode="&#xf6;" 
d="M315 610h-110v130h110v-130zM489 610h-110v130h110v-130zM346 -12c-179 0 -309 122 -309 289s131 288 310 288s309 -121 309 -287c0 -167 -130 -290 -310 -290zM347 130c82 0 142 59 142 147c0 89 -60 147 -143 147c-82 0 -142 -58 -142 -145c0 -90 60 -149 143 -149z
" />
    <glyph glyph-name="uni1ECD" unicode="&#x1ecd;" 
d="M346 -12c-179 0 -309 122 -309 289s131 288 310 288s309 -121 309 -287c0 -167 -130 -290 -310 -290zM347 130c82 0 142 59 142 147c0 89 -60 147 -143 147c-82 0 -142 -58 -142 -145c0 -90 60 -149 143 -149zM253 -173v130h171v-130h-171z" />
    <glyph glyph-name="ograve" unicode="&#xf2;" 
d="M407 606l-117 -8l-126 133l154 29zM346 -12c-179 0 -309 122 -309 289s131 288 310 288s309 -121 309 -287c0 -167 -130 -290 -310 -290zM347 130c82 0 142 59 142 147c0 89 -60 147 -143 147c-82 0 -142 -58 -142 -145c0 -90 60 -149 143 -149z" />
    <glyph glyph-name="uni1ECF" unicode="&#x1ecf;" 
d="M365 591l-66 19c15 22 33 46 33 73c0 24 -26 44 -65 21l-8 68c108 55 175 6 175 -49c0 -57 -41 -107 -69 -132zM346 -12c-179 0 -309 122 -309 289s131 288 310 288s309 -121 309 -287c0 -167 -130 -290 -310 -290zM347 130c82 0 142 59 142 147c0 89 -60 147 -143 147
c-82 0 -142 -58 -142 -145c0 -90 60 -149 143 -149z" />
    <glyph glyph-name="ohorn" unicode="&#x1a1;" 
d="M533 631l142 7c37 -104 -4 -173 -76 -188c36 -47 57 -106 57 -172c0 -167 -130 -290 -310 -290c-179 0 -309 122 -309 289s131 288 310 288c46 0 89 -8 127 -23c54 3 79 24 59 89zM347 130c82 0 142 59 142 147c0 89 -60 147 -143 147c-82 0 -142 -58 -142 -145
c0 -90 60 -149 143 -149z" />
    <glyph glyph-name="uni1EDB" unicode="&#x1edb;" 
d="M375 760l154 -29l-125 -133l-118 8zM533 631l142 7c37 -104 -4 -173 -76 -188c36 -47 57 -106 57 -172c0 -167 -130 -290 -310 -290c-179 0 -309 122 -309 289s131 288 310 288c46 0 89 -8 127 -23c54 3 79 24 59 89zM347 130c82 0 142 59 142 147c0 89 -60 147 -143 147
c-82 0 -142 -58 -142 -145c0 -90 60 -149 143 -149z" />
    <glyph glyph-name="uni1EE3" unicode="&#x1ee3;" 
d="M533 631l142 7c37 -104 -4 -173 -76 -188c36 -47 57 -106 57 -172c0 -167 -130 -290 -310 -290c-179 0 -309 122 -309 289s131 288 310 288c46 0 89 -8 127 -23c54 3 79 24 59 89zM347 130c82 0 142 59 142 147c0 89 -60 147 -143 147c-82 0 -142 -58 -142 -145
c0 -90 60 -149 143 -149zM424 -173h-171v130h171v-130z" />
    <glyph glyph-name="uni1EDD" unicode="&#x1edd;" 
d="M318 760l89 -154l-117 -8l-126 133zM533 631l142 7c37 -104 -4 -173 -76 -188c36 -47 57 -106 57 -172c0 -167 -130 -290 -310 -290c-179 0 -309 122 -309 289s131 288 310 288c46 0 89 -8 127 -23c54 3 79 24 59 89zM347 130c82 0 142 59 142 147c0 89 -60 147 -143 147
c-82 0 -142 -58 -142 -145c0 -90 60 -149 143 -149z" />
    <glyph glyph-name="uni1EDF" unicode="&#x1edf;" 
d="M332 683c0 24 -26 44 -65 21l-8 68c108 55 175 6 175 -49c0 -57 -41 -107 -69 -132l-66 19c15 22 33 46 33 73zM533 631l142 7c37 -104 -4 -173 -76 -188c36 -47 57 -106 57 -172c0 -167 -130 -290 -310 -290c-179 0 -309 122 -309 289s131 288 310 288
c46 0 89 -8 127 -23c54 3 79 24 59 89zM347 130c82 0 142 59 142 147c0 89 -60 147 -143 147c-82 0 -142 -58 -142 -145c0 -90 60 -149 143 -149z" />
    <glyph glyph-name="uni1EE1" unicode="&#x1ee1;" 
d="M289 636c-25 0 -42 -17 -42 -42l-75 18c0 71 41 116 100 116c55 0 100 -32 133 -32c25 0 43 16 43 41l75 -17c0 -72 -41 -116 -101 -116c-55 0 -98 32 -133 32zM533 631l142 7c37 -104 -4 -173 -76 -188c36 -47 57 -106 57 -172c0 -167 -130 -290 -310 -290
c-179 0 -309 122 -309 289s131 288 310 288c46 0 89 -8 127 -23c54 3 79 24 59 89zM347 130c82 0 142 59 142 147c0 89 -60 147 -143 147c-82 0 -142 -58 -142 -145c0 -90 60 -149 143 -149z" />
    <glyph glyph-name="ohungarumlaut" unicode="&#x151;" 
d="M350 727l-106 -133l-113 8l68 154zM555 727l-105 -133l-114 8l68 154zM346 -12c-179 0 -309 122 -309 289s131 288 310 288s309 -121 309 -287c0 -167 -130 -290 -310 -290zM347 130c82 0 142 59 142 147c0 89 -60 147 -143 147c-82 0 -142 -58 -142 -145
c0 -90 60 -149 143 -149z" />
    <glyph glyph-name="omacron" unicode="&#x14d;" 
d="M529 623h-347v95h347v-95zM346 -12c-179 0 -309 122 -309 289s131 288 310 288s309 -121 309 -287c0 -167 -130 -290 -310 -290zM347 130c82 0 142 59 142 147c0 89 -60 147 -143 147c-82 0 -142 -58 -142 -145c0 -90 60 -149 143 -149z" />
    <glyph glyph-name="uni01EB" unicode="&#x1eb;" 
d="M656 278c0 -104 -51 -191 -132 -242c-40 -24 -62 -50 -62 -73c0 -32 30 -43 87 -32l7 -93c-162 -35 -239 15 -239 86c0 23 9 45 23 64c-176 3 -303 124 -303 289c0 167 131 288 310 288s309 -121 309 -287zM204 279c0 -90 60 -149 143 -149c82 0 142 59 142 147
c0 89 -60 147 -143 147c-82 0 -142 -58 -142 -145z" />
    <glyph glyph-name="oslash" unicode="&#xf8;" 
d="M641 492l-42 -42c36 -47 57 -106 57 -172c0 -167 -130 -290 -310 -290c-63 0 -120 15 -167 42l-43 -43l-79 78l38 38c-37 47 -58 107 -58 174c0 167 131 288 310 288c63 0 120 -15 167 -42l48 48zM347 130c82 0 142 59 142 147c0 89 -60 147 -143 147
c-82 0 -142 -58 -142 -145c0 -90 60 -149 143 -149z" />
    <glyph glyph-name="oslashacute" unicode="&#x1ff;" 
d="M369 760l154 -29l-125 -133l-118 8zM641 492l-42 -42c36 -47 57 -106 57 -172c0 -167 -130 -290 -310 -290c-63 0 -120 15 -167 42l-43 -43l-79 78l38 38c-37 47 -58 107 -58 174c0 167 131 288 310 288c63 0 120 -15 167 -42l48 48zM347 130c82 0 142 59 142 147
c0 89 -60 147 -143 147c-82 0 -142 -58 -142 -145c0 -90 60 -149 143 -149z" />
    <glyph glyph-name="otilde" unicode="&#xf5;" 
d="M247 594l-75 18c0 71 41 116 100 116c55 0 100 -32 133 -32c25 0 43 16 43 41l75 -17c0 -72 -41 -116 -101 -116c-55 0 -98 32 -133 32c-25 0 -42 -17 -42 -42zM346 -12c-179 0 -309 122 -309 289s131 288 310 288s309 -121 309 -287c0 -167 -130 -290 -310 -290z
M347 130c82 0 142 59 142 147c0 89 -60 147 -143 147c-82 0 -142 -58 -142 -145c0 -90 60 -149 143 -149z" />
    <glyph glyph-name="racute" unicode="&#x155;" horiz-adv-x="447" 
d="M244 760l154 -29l-125 -133l-118 8zM378 561c19 0 37 -2 51 -4l-6 -158c-20 5 -41 8 -61 8c-83 0 -134 -73 -134 -181v-226h-165v553h165v-75c38 57 94 83 150 83z" />
    <glyph glyph-name="rcaron" unicode="&#x159;" horiz-adv-x="447" 
d="M145 597l-103 145l127 8l46 -85l46 85l127 -8l-103 -145h-140zM378 561c19 0 37 -2 51 -4l-6 -158c-20 5 -41 8 -61 8c-83 0 -134 -73 -134 -181v-226h-165v553h165v-75c38 57 94 83 150 83z" />
    <glyph glyph-name="uni0157" unicode="&#x157;" horiz-adv-x="447" 
d="M378 561c19 0 37 -2 51 -4l-6 -158c-20 5 -41 8 -61 8c-83 0 -134 -73 -134 -181v-226h-165v553h165v-75c38 57 94 83 150 83zM146 -126v90h131c32 -123 -24 -178 -102 -204l-25 49c41 15 53 37 52 65h-56z" />
    <glyph glyph-name="uni1E5B" unicode="&#x1e5b;" horiz-adv-x="447" 
d="M378 561c19 0 37 -2 51 -4l-6 -158c-20 5 -41 8 -61 8c-83 0 -134 -73 -134 -181v-226h-165v553h165v-75c38 57 94 83 150 83zM293 -173h-171v130h171v-130z" />
    <glyph glyph-name="uni1E5D" unicode="&#x1e5d;" horiz-adv-x="447" 
d="M51 718h347v-95h-347v95zM378 561c19 0 37 -2 51 -4l-6 -158c-20 5 -41 8 -61 8c-83 0 -134 -73 -134 -181v-226h-165v553h165v-75c38 57 94 83 150 83zM293 -173h-171v130h171v-130z" />
    <glyph glyph-name="uni1E5F" unicode="&#x1e5f;" horiz-adv-x="447" 
d="M378 561c19 0 37 -2 51 -4l-6 -158c-20 5 -41 8 -61 8c-83 0 -134 -73 -134 -181v-226h-165v553h165v-75c38 57 94 83 150 83zM388 -136h-347v95h347v-95z" />
    <glyph glyph-name="sacute" unicode="&#x15b;" horiz-adv-x="549" 
d="M458 731l-125 -133l-118 8l89 154zM269 -12c-97 0 -186 29 -250 63l55 119c68 -34 135 -50 205 -50c52 0 86 10 86 44c0 29 -27 41 -112 55c-161 26 -217 74 -217 168c0 115 91 178 231 178c77 0 180 -23 237 -57l-56 -119c-55 27 -124 45 -190 45c-44 0 -63 -14 -63 -37
s19 -35 102 -50c167 -31 225 -83 225 -178c0 -116 -103 -181 -253 -181z" />
    <glyph glyph-name="scaron" unicode="&#x161;" horiz-adv-x="549" 
d="M205 597l-103 145l127 8l46 -85l46 85l127 -8l-103 -145h-140zM297 347c167 -31 225 -83 225 -178c0 -116 -103 -181 -253 -181c-97 0 -186 29 -250 63l55 119c68 -34 135 -50 205 -50c52 0 86 10 86 44c0 29 -27 41 -112 55c-161 26 -217 74 -217 168
c0 115 91 178 231 178c77 0 180 -23 237 -57l-56 -119c-55 27 -124 45 -190 45c-44 0 -63 -14 -63 -37s19 -35 102 -50z" />
    <glyph glyph-name="scedilla" unicode="&#x15f;" horiz-adv-x="549" 
d="M522 169c0 -104 -82 -167 -207 -179l-7 -23c45 -8 72 -35 72 -69c0 -48 -49 -77 -130 -77c-28 0 -50 2 -70 6l15 70c12 -3 27 -5 38 -5c18 0 29 5 29 16c0 13 -12 23 -53 20l17 62c-80 7 -153 32 -207 61l55 119c68 -34 135 -50 205 -50c52 0 86 10 86 44
c0 29 -27 41 -112 55c-161 26 -217 74 -217 168c0 115 91 178 231 178c77 0 180 -23 237 -57l-56 -119c-55 27 -124 45 -190 45c-44 0 -63 -14 -63 -37s19 -35 102 -50c167 -31 225 -83 225 -178z" />
    <glyph glyph-name="scircumflex" unicode="&#x15d;" horiz-adv-x="549" 
d="M321 597l-46 85l-46 -85l-127 8l103 145h140l103 -145zM297 347c167 -31 225 -83 225 -178c0 -116 -103 -181 -253 -181c-97 0 -186 29 -250 63l55 119c68 -34 135 -50 205 -50c52 0 86 10 86 44c0 29 -27 41 -112 55c-161 26 -217 74 -217 168c0 115 91 178 231 178
c77 0 180 -23 237 -57l-56 -119c-55 27 -124 45 -190 45c-44 0 -63 -14 -63 -37s19 -35 102 -50z" />
    <glyph glyph-name="uni0219" unicode="&#x219;" horiz-adv-x="549" 
d="M269 -12c-97 0 -186 29 -250 63l55 119c68 -34 135 -50 205 -50c52 0 86 10 86 44c0 29 -27 41 -112 55c-161 26 -217 74 -217 168c0 115 91 178 231 178c77 0 180 -23 237 -57l-56 -119c-55 27 -124 45 -190 45c-44 0 -63 -14 -63 -37s19 -35 102 -50
c167 -31 225 -83 225 -178c0 -116 -103 -181 -253 -181zM235 -240l-25 49c41 15 53 37 52 65h-56v90h131c32 -123 -24 -178 -102 -204z" />
    <glyph glyph-name="uni1E61" unicode="&#x1e61;" horiz-adv-x="549" 
d="M361 610h-171v130h171v-130zM269 -12c-97 0 -186 29 -250 63l55 119c68 -34 135 -50 205 -50c52 0 86 10 86 44c0 29 -27 41 -112 55c-161 26 -217 74 -217 168c0 115 91 178 231 178c77 0 180 -23 237 -57l-56 -119c-55 27 -124 45 -190 45c-44 0 -63 -14 -63 -37
s19 -35 102 -50c167 -31 225 -83 225 -178c0 -116 -103 -181 -253 -181z" />
    <glyph glyph-name="uni1E63" unicode="&#x1e63;" horiz-adv-x="549" 
d="M269 -12c-97 0 -186 29 -250 63l55 119c68 -34 135 -50 205 -50c52 0 86 10 86 44c0 29 -27 41 -112 55c-161 26 -217 74 -217 168c0 115 91 178 231 178c77 0 180 -23 237 -57l-56 -119c-55 27 -124 45 -190 45c-44 0 -63 -14 -63 -37s19 -35 102 -50
c167 -31 225 -83 225 -178c0 -116 -103 -181 -253 -181zM182 -173v130h171v-130h-171z" />
    <glyph glyph-name="tbar" unicode="&#x167;" horiz-adv-x="525" 
d="M462 151l31 -124c-48 -27 -119 -39 -168 -39c-124 0 -197 67 -197 193v93h-72v80h72v63h-98v136h102l10 140h150v-140h180v-136h-180v-63h128v-80h-128v-71c0 -46 25 -73 66 -73c29 0 73 7 104 21z" />
    <glyph glyph-name="tcaron" unicode="&#x165;" horiz-adv-x="525" 
d="M358 813h123l-39 -225h-84v225zM462 151l31 -124c-48 -27 -119 -39 -168 -39c-124 0 -197 67 -197 193v236h-98v136h102l10 140h150v-140h180v-136h-180v-214c0 -46 25 -73 66 -73c29 0 73 7 104 21z" />
    <glyph glyph-name="uni0163" unicode="&#x163;" horiz-adv-x="525" 
d="M365 -10l-7 -24c45 -8 72 -35 72 -69c0 -48 -49 -77 -130 -77c-28 0 -50 2 -70 6l15 70c12 -3 27 -5 38 -5c18 0 29 5 29 16c0 13 -12 23 -53 20l18 65c-95 16 -149 80 -149 189v236h-98v136h102l10 140h150v-140h180v-136h-180v-214c0 -46 25 -73 66 -73
c29 0 73 7 104 21l31 -124c-36 -20 -85 -32 -128 -37z" />
    <glyph glyph-name="uni021B" unicode="&#x21b;" horiz-adv-x="525" 
d="M462 151l31 -124c-48 -27 -119 -39 -168 -39c-124 0 -197 67 -197 193v236h-98v136h102l10 140h150v-140h180v-136h-180v-214c0 -46 25 -73 66 -73c29 0 73 7 104 21zM256 -127v90h131c32 -123 -24 -178 -102 -204l-25 49c41 15 53 37 52 65h-56z" />
    <glyph glyph-name="uni1E97" unicode="&#x1e97;" horiz-adv-x="525" 
d="M77 880h110v-130h-110v130zM251 880h110v-130h-110v130zM462 151l31 -124c-48 -27 -119 -39 -168 -39c-124 0 -197 67 -197 193v236h-98v136h102l10 140h150v-140h180v-136h-180v-214c0 -46 25 -73 66 -73c29 0 73 7 104 21z" />
    <glyph glyph-name="uni1E6D" unicode="&#x1e6d;" horiz-adv-x="525" 
d="M462 151l31 -124c-48 -27 -119 -39 -168 -39c-124 0 -197 67 -197 193v236h-98v136h102l10 140h150v-140h180v-136h-180v-214c0 -46 25 -73 66 -73c29 0 73 7 104 21zM402 -174h-171v130h171v-130z" />
    <glyph glyph-name="uni1E6F" unicode="&#x1e6f;" horiz-adv-x="525" 
d="M325 -12c-124 0 -197 67 -197 193v236h-98v136h102l10 140h150v-140h180v-136h-180v-214c0 -46 25 -73 66 -73c29 0 73 7 104 21l31 -124c-48 -27 -119 -39 -168 -39zM151 -137v95h347v-95h-347z" />
    <glyph glyph-name="uacute" unicode="&#xfa;" horiz-adv-x="684" 
d="M356 760l154 -29l-125 -133l-118 8zM455 279v274h165v-553h-165v68c-41 -47 -102 -80 -182 -80c-133 0 -218 85 -218 230v335h165v-307c0 -73 35 -113 105 -113c75 0 130 61 130 146z" />
    <glyph glyph-name="ubreve" unicode="&#x16d;" horiz-adv-x="684" 
d="M327 590c-102 0 -167 57 -167 146l116 2c0 -42 15 -61 51 -61s52 19 52 61l116 -2c0 -89 -65 -146 -168 -146zM455 279v274h165v-553h-165v68c-41 -47 -102 -80 -182 -80c-133 0 -218 85 -218 230v335h165v-307c0 -73 35 -113 105 -113c75 0 130 61 130 146z" />
    <glyph glyph-name="uni01D4" unicode="&#x1d4;" horiz-adv-x="684" 
d="M257 597l-103 145l127 8l46 -85l46 85l127 -8l-103 -145h-140zM455 279v274h165v-553h-165v68c-41 -47 -102 -80 -182 -80c-133 0 -218 85 -218 230v335h165v-307c0 -73 35 -113 105 -113c75 0 130 61 130 146z" />
    <glyph glyph-name="ucircumflex" unicode="&#xfb;" horiz-adv-x="684" 
d="M373 597l-46 85l-46 -85l-127 8l103 145h140l103 -145zM455 279v274h165v-553h-165v68c-41 -47 -102 -80 -182 -80c-133 0 -218 85 -218 230v335h165v-307c0 -73 35 -113 105 -113c75 0 130 61 130 146z" />
    <glyph glyph-name="udieresis" unicode="&#xfc;" horiz-adv-x="684" 
d="M185 740h110v-130h-110v130zM359 740h110v-130h-110v130zM455 279v274h165v-553h-165v68c-41 -47 -102 -80 -182 -80c-133 0 -218 85 -218 230v335h165v-307c0 -73 35 -113 105 -113c75 0 130 61 130 146z" />
    <glyph glyph-name="uni01D8" unicode="&#x1d8;" horiz-adv-x="683" 
d="M377 947l154 -29l-126 -133l-118 8zM222 740h110v-130h-110v130zM505 610h-109v130h109v-130zM455 279v274h165v-553h-165v68c-41 -47 -102 -80 -182 -80c-133 0 -218 85 -218 230v335h165v-307c0 -73 35 -113 105 -113c75 0 130 61 130 146z" />
    <glyph glyph-name="uni01DA" unicode="&#x1da;" horiz-adv-x="683" 
d="M277 783l-102 146l127 7l46 -85l45 85l128 -7l-103 -146h-141zM332 610h-110v130h110v-130zM505 610h-109v130h109v-130zM455 279v274h165v-553h-165v68c-41 -47 -102 -80 -182 -80c-133 0 -218 85 -218 230v335h165v-307c0 -73 35 -113 105 -113c75 0 130 61 130 146z
" />
    <glyph glyph-name="uni01D6" unicode="&#x1d6;" horiz-adv-x="683" 
d="M183 904h347v-94h-347v94zM332 740v-130h-110v130h110zM505 740v-130h-109v130h109zM455 279v274h165v-553h-165v68c-41 -47 -102 -80 -182 -80c-133 0 -218 85 -218 230v335h165v-307c0 -73 35 -113 105 -113c75 0 130 61 130 146z" />
    <glyph glyph-name="uni1EE5" unicode="&#x1ee5;" horiz-adv-x="684" 
d="M455 279v274h165v-553h-165v68c-41 -47 -102 -80 -182 -80c-133 0 -218 85 -218 230v335h165v-307c0 -73 35 -113 105 -113c75 0 130 61 130 146zM421 -173h-171v130h171v-130z" />
    <glyph glyph-name="ugrave" unicode="&#xf9;" horiz-adv-x="684" 
d="M298 760l89 -154l-117 -8l-126 133zM455 279v274h165v-553h-165v68c-41 -47 -102 -80 -182 -80c-133 0 -218 85 -218 230v335h165v-307c0 -73 35 -113 105 -113c75 0 130 61 130 146z" />
    <glyph glyph-name="uni1EE7" unicode="&#x1ee7;" horiz-adv-x="684" 
d="M313 683c0 24 -26 44 -65 21l-8 68c108 55 175 6 175 -49c0 -57 -41 -107 -69 -132l-66 19c15 22 33 46 33 73zM455 279v274h165v-553h-165v68c-41 -47 -102 -80 -182 -80c-133 0 -218 85 -218 230v335h165v-307c0 -73 35 -113 105 -113c75 0 130 61 130 146z" />
    <glyph glyph-name="uhorn" unicode="&#x1b0;" horiz-adv-x="745" 
d="M633 636l123 7c42 -120 -33 -187 -136 -159v-484h-165v68c-41 -47 -102 -80 -182 -80c-133 0 -218 85 -218 230v335h165v-307c0 -73 35 -113 105 -113c75 0 130 61 130 146v274h121l2 6c49 2 74 20 55 77z" />
    <glyph glyph-name="uni1EE9" unicode="&#x1ee9;" horiz-adv-x="745" 
d="M356 760l154 -29l-125 -133l-118 8zM633 636l123 7c42 -120 -33 -187 -136 -159v-484h-165v68c-41 -47 -102 -80 -182 -80c-133 0 -218 85 -218 230v335h165v-307c0 -73 35 -113 105 -113c75 0 130 61 130 146v274h121l2 6c49 2 74 20 55 77z" />
    <glyph glyph-name="uni1EF1" unicode="&#x1ef1;" horiz-adv-x="745" 
d="M633 636l123 7c42 -120 -33 -187 -136 -159v-484h-165v68c-41 -47 -102 -80 -182 -80c-133 0 -218 85 -218 230v335h165v-307c0 -73 35 -113 105 -113c75 0 130 61 130 146v274h121l2 6c49 2 74 20 55 77zM421 -173h-171v130h171v-130z" />
    <glyph glyph-name="uni1EEB" unicode="&#x1eeb;" horiz-adv-x="745" 
d="M298 760l89 -154l-117 -8l-126 133zM633 636l123 7c42 -120 -33 -187 -136 -159v-484h-165v68c-41 -47 -102 -80 -182 -80c-133 0 -218 85 -218 230v335h165v-307c0 -73 35 -113 105 -113c75 0 130 61 130 146v274h121l2 6c49 2 74 20 55 77z" />
    <glyph glyph-name="uni1EED" unicode="&#x1eed;" horiz-adv-x="745" 
d="M313 683c0 24 -26 44 -65 21l-8 68c108 55 175 6 175 -49c0 -57 -41 -107 -69 -132l-66 19c15 22 33 46 33 73zM633 636l123 7c42 -120 -33 -187 -136 -159v-484h-165v68c-41 -47 -102 -80 -182 -80c-133 0 -218 85 -218 230v335h165v-307c0 -73 35 -113 105 -113
c75 0 130 61 130 146v274h121l2 6c49 2 74 20 55 77z" />
    <glyph glyph-name="uni1EEF" unicode="&#x1eef;" horiz-adv-x="745" 
d="M269 636c-25 0 -42 -17 -42 -42l-75 18c0 71 41 116 100 116c55 0 100 -32 133 -32c25 0 43 16 43 41l75 -17c0 -72 -41 -116 -101 -116c-55 0 -98 32 -133 32zM633 636l123 7c42 -120 -33 -187 -136 -159v-484h-165v68c-41 -47 -102 -80 -182 -80
c-133 0 -218 85 -218 230v335h165v-307c0 -73 35 -113 105 -113c75 0 130 61 130 146v274h121l2 6c49 2 74 20 55 77z" />
    <glyph glyph-name="uhungarumlaut" unicode="&#x171;" horiz-adv-x="684" 
d="M179 756l151 -29l-106 -133l-113 8zM535 727l-105 -133l-114 8l68 154zM455 279v274h165v-553h-165v68c-41 -47 -102 -80 -182 -80c-133 0 -218 85 -218 230v335h165v-307c0 -73 35 -113 105 -113c75 0 130 61 130 146z" />
    <glyph glyph-name="umacron" unicode="&#x16b;" horiz-adv-x="684" 
d="M163 718h347v-95h-347v95zM455 279v274h165v-553h-165v68c-41 -47 -102 -80 -182 -80c-133 0 -218 85 -218 230v335h165v-307c0 -73 35 -113 105 -113c75 0 130 61 130 146z" />
    <glyph glyph-name="uogonek" unicode="&#x173;" horiz-adv-x="684" 
d="M639 -105l7 -93c-162 -35 -239 15 -239 86c0 46 35 86 79 112h-31v68c-41 -47 -102 -80 -182 -80c-133 0 -218 85 -218 230v335h165v-307c0 -73 35 -113 105 -113c75 0 130 61 130 146v274h165v-553h-6c-40 -24 -62 -50 -62 -73c0 -32 30 -43 87 -32z" />
    <glyph glyph-name="uring" unicode="&#x16f;" horiz-adv-x="683" 
d="M348 590c-79 0 -135 53 -135 124s56 123 135 123c78 0 135 -52 135 -123s-57 -124 -135 -124zM348 767c-31 0 -55 -23 -55 -53c0 -31 24 -53 55 -53c30 0 54 22 54 53c0 30 -24 53 -54 53zM455 279v274h165v-553h-165v68c-41 -47 -102 -80 -182 -80
c-133 0 -218 85 -218 230v335h165v-307c0 -73 35 -113 105 -113c75 0 130 61 130 146z" />
    <glyph glyph-name="utilde" unicode="&#x169;" horiz-adv-x="684" 
d="M269 636c-25 0 -42 -17 -42 -42l-75 18c0 71 41 116 100 116c55 0 100 -32 133 -32c25 0 43 16 43 41l75 -17c0 -72 -41 -116 -101 -116c-55 0 -98 32 -133 32zM455 279v274h165v-553h-165v68c-41 -47 -102 -80 -182 -80c-133 0 -218 85 -218 230v335h165v-307
c0 -73 35 -113 105 -113c75 0 130 61 130 146z" />
    <glyph glyph-name="wacute" unicode="&#x1e83;" horiz-adv-x="953" 
d="M505 760l154 -29l-125 -133l-118 8zM651 191l108 362h174l-188 -553h-169l-99 336l-100 -336h-168l-189 553h174l108 -362l103 362h142z" />
    <glyph glyph-name="wcircumflex" unicode="&#x175;" horiz-adv-x="953" 
d="M522 597l-46 85l-46 -85l-127 8l103 145h140l103 -145zM651 191l108 362h174l-188 -553h-169l-99 336l-100 -336h-168l-189 553h174l108 -362l103 362h142z" />
    <glyph glyph-name="wdieresis" unicode="&#x1e85;" horiz-adv-x="953" 
d="M335 740h110v-130h-110v130zM509 740h110v-130h-110v130zM651 191l108 362h174l-188 -553h-169l-99 336l-100 -336h-168l-189 553h174l108 -362l103 362h142z" />
    <glyph glyph-name="wgrave" unicode="&#x1e81;" horiz-adv-x="953" 
d="M448 760l89 -154l-117 -8l-126 133zM651 191l108 362h174l-188 -553h-169l-99 336l-100 -336h-168l-189 553h174l108 -362l103 362h142z" />
    <glyph glyph-name="yacute" unicode="&#xfd;" horiz-adv-x="665" 
d="M371 760l154 -29l-125 -133l-118 8zM336 182l137 371h178l-229 -553l-14 -33c-47 -107 -101 -150 -219 -150c-53 0 -114 18 -144 35l38 112c30 -12 61 -18 86 -18c43 0 62 16 78 55l3 7l-228 545h177z" />
    <glyph glyph-name="ycircumflex" unicode="&#x177;" horiz-adv-x="665" 
d="M388 597l-46 85l-46 -85l-127 8l103 145h140l103 -145zM336 182l137 371h178l-229 -553l-14 -33c-47 -107 -101 -150 -219 -150c-53 0 -114 18 -144 35l38 112c30 -12 61 -18 86 -18c43 0 62 16 78 55l3 7l-228 545h177z" />
    <glyph glyph-name="ydieresis" unicode="&#xff;" horiz-adv-x="665" 
d="M200 740h110v-130h-110v130zM374 740h110v-130h-110v130zM336 182l137 371h178l-229 -553l-14 -33c-47 -107 -101 -150 -219 -150c-53 0 -114 18 -144 35l38 112c30 -12 61 -18 86 -18c43 0 62 16 78 55l3 7l-228 545h177z" />
    <glyph glyph-name="uni1E8F" unicode="&#x1e8f;" horiz-adv-x="665" 
d="M257 740h171v-130h-171v130zM336 182l137 371h178l-229 -553l-14 -33c-47 -107 -101 -150 -219 -150c-53 0 -114 18 -144 35l38 112c30 -12 61 -18 86 -18c43 0 62 16 78 55l3 7l-228 545h177z" />
    <glyph glyph-name="uni1EF5" unicode="&#x1ef5;" horiz-adv-x="665" 
d="M422 0l-14 -33l-12 -25h127v-103h-136v86c-43 -77 -97 -108 -198 -108c-53 0 -114 18 -144 35l38 112c30 -12 61 -18 86 -18c43 0 62 16 78 55l3 7l-228 545h177l137 -371l137 371h178z" />
    <glyph glyph-name="ygrave" unicode="&#x1ef3;" horiz-adv-x="665" 
d="M313 760l89 -154l-117 -8l-126 133zM336 182l137 371h178l-229 -553l-14 -33c-47 -107 -101 -150 -219 -150c-53 0 -114 18 -144 35l38 112c30 -12 61 -18 86 -18c43 0 62 16 78 55l3 7l-228 545h177z" />
    <glyph glyph-name="uni1EF7" unicode="&#x1ef7;" horiz-adv-x="665" 
d="M327 683c0 24 -26 44 -65 21l-8 68c108 55 175 6 175 -49c0 -57 -41 -107 -69 -132l-66 19c15 22 33 46 33 73zM336 182l137 371h178l-229 -553l-14 -33c-47 -107 -101 -150 -219 -150c-53 0 -114 18 -144 35l38 112c30 -12 61 -18 86 -18c43 0 62 16 78 55l3 7l-228 545
h177z" />
    <glyph glyph-name="uni0233" unicode="&#x233;" horiz-adv-x="665" 
d="M178 718h347v-95h-347v95zM336 182l137 371h178l-229 -553l-14 -33c-47 -107 -101 -150 -219 -150c-53 0 -114 18 -144 35l38 112c30 -12 61 -18 86 -18c43 0 62 16 78 55l3 7l-228 545h177z" />
    <glyph glyph-name="uni1EF9" unicode="&#x1ef9;" horiz-adv-x="665" 
d="M284 636c-25 0 -42 -17 -42 -42l-75 18c0 71 41 116 100 116c55 0 100 -32 133 -32c25 0 43 16 43 41l75 -17c0 -72 -41 -116 -101 -116c-55 0 -98 32 -133 32zM336 182l137 371h178l-229 -553l-14 -33c-47 -107 -101 -150 -219 -150c-53 0 -114 18 -144 35l38 112
c30 -12 61 -18 86 -18c43 0 62 16 78 55l3 7l-228 545h177z" />
    <glyph glyph-name="zacute" unicode="&#x17a;" horiz-adv-x="575" 
d="M467 731l-125 -133l-118 8l89 154zM543 0h-510v99l284 316h-276v138h497v-99l-286 -315h291v-139z" />
    <glyph glyph-name="zcaron" unicode="&#x17e;" horiz-adv-x="575" 
d="M214 597l-103 145l127 8l46 -85l46 85l127 -8l-103 -145h-140zM538 454l-286 -315h291v-139h-510v99l284 316h-276v138h497v-99z" />
    <glyph glyph-name="zdotaccent" unicode="&#x17c;" horiz-adv-x="575" 
d="M370 610h-171v130h171v-130zM543 0h-510v99l284 316h-276v138h497v-99l-286 -315h291v-139z" />
    <glyph glyph-name="uni1E93" unicode="&#x1e93;" horiz-adv-x="575" 
d="M543 0h-510v99l284 316h-276v138h497v-99l-286 -315h291v-139zM190 -173v130h171v-130h-171z" />
    <glyph glyph-name="aacute.ss01" horiz-adv-x="710" 
d="M384 760l154 -29l-125 -133l-118 8zM482 492v61h165v-553h-165v60c-46 -49 -109 -72 -179 -72c-150 0 -266 116 -266 287c0 170 118 290 265 290c70 0 134 -23 180 -73zM340 130c83 0 142 56 142 146c0 91 -59 147 -142 147c-82 0 -138 -59 -138 -148
c0 -86 57 -145 138 -145z" />
    <glyph glyph-name="abreve.ss01" horiz-adv-x="710" 
d="M355 590c-102 0 -167 57 -167 146l116 2c0 -42 15 -61 51 -61s52 19 52 61l116 -2c0 -89 -65 -146 -168 -146zM482 492v61h165v-553h-165v60c-46 -49 -109 -72 -179 -72c-150 0 -266 116 -266 287c0 170 118 290 265 290c70 0 134 -23 180 -73zM340 130
c83 0 142 56 142 146c0 91 -59 147 -142 147c-82 0 -138 -59 -138 -148c0 -86 57 -145 138 -145z" />
    <glyph glyph-name="uni1EAF.ss01" horiz-adv-x="710" 
d="M384 949l154 -29l-125 -133l-118 8zM355 590c-102 0 -167 57 -167 146l116 2c0 -42 15 -61 51 -61s52 19 52 61l116 -2c0 -89 -65 -146 -168 -146zM482 492v61h165v-553h-165v60c-46 -49 -109 -72 -179 -72c-150 0 -266 116 -266 287c0 170 118 290 265 290
c70 0 134 -23 180 -73zM340 130c83 0 142 56 142 146c0 91 -59 147 -142 147c-82 0 -138 -59 -138 -148c0 -86 57 -145 138 -145z" />
    <glyph glyph-name="uni1EB7.ss01" horiz-adv-x="710" 
d="M355 590c-102 0 -167 57 -167 146l116 2c0 -42 15 -61 51 -61s52 19 52 61l116 -2c0 -89 -65 -146 -168 -146zM482 492v61h165v-553h-165v60c-46 -49 -109 -72 -179 -72c-150 0 -266 116 -266 287c0 170 118 290 265 290c70 0 134 -23 180 -73zM340 130
c83 0 142 56 142 146c0 91 -59 147 -142 147c-82 0 -138 -59 -138 -148c0 -86 57 -145 138 -145zM432 -173h-171v130h171v-130z" />
    <glyph glyph-name="uni1EB1.ss01" horiz-adv-x="710" 
d="M326 949l89 -154l-117 -8l-126 133zM355 677c36 0 52 19 52 61l116 -2c0 -89 -65 -146 -168 -146c-102 0 -167 57 -167 146l116 2c0 -42 15 -61 51 -61zM482 492v61h165v-553h-165v60c-46 -49 -109 -72 -179 -72c-150 0 -266 116 -266 287c0 170 118 290 265 290
c70 0 134 -23 180 -73zM340 130c83 0 142 56 142 146c0 91 -59 147 -142 147c-82 0 -138 -59 -138 -148c0 -86 57 -145 138 -145z" />
    <glyph glyph-name="uni1EB3.ss01" horiz-adv-x="710" 
d="M341 872c0 24 -26 44 -65 21l-8 68c108 55 175 6 175 -49c0 -57 -41 -107 -69 -132l-66 19c15 22 33 46 33 73zM355 590c-102 0 -167 57 -167 146l116 2c0 -42 15 -61 51 -61s52 19 52 61l116 -2c0 -89 -65 -146 -168 -146zM482 492v61h165v-553h-165v60
c-46 -49 -109 -72 -179 -72c-150 0 -266 116 -266 287c0 170 118 290 265 290c70 0 134 -23 180 -73zM340 130c83 0 142 56 142 146c0 91 -59 147 -142 147c-82 0 -138 -59 -138 -148c0 -86 57 -145 138 -145z" />
    <glyph glyph-name="uni1EB5.ss01" horiz-adv-x="710" 
d="M297 825c-25 0 -42 -17 -42 -42l-75 18c0 71 41 116 100 116c55 0 100 -32 133 -32c25 0 43 16 43 41l75 -17c0 -72 -41 -116 -101 -116c-55 0 -98 32 -133 32zM355 677c36 0 52 19 52 61l116 -2c0 -89 -65 -146 -168 -146c-102 0 -167 57 -167 146l116 2
c0 -42 15 -61 51 -61zM482 492v61h165v-553h-165v60c-46 -49 -109 -72 -179 -72c-150 0 -266 116 -266 287c0 170 118 290 265 290c70 0 134 -23 180 -73zM340 130c83 0 142 56 142 146c0 91 -59 147 -142 147c-82 0 -138 -59 -138 -148c0 -86 57 -145 138 -145z" />
    <glyph glyph-name="uni01CE.ss01" horiz-adv-x="710" 
d="M285 597l-103 145l127 8l46 -85l46 85l127 -8l-103 -145h-140zM482 492v61h165v-553h-165v60c-46 -49 -109 -72 -179 -72c-150 0 -266 116 -266 287c0 170 118 290 265 290c70 0 134 -23 180 -73zM340 130c83 0 142 56 142 146c0 91 -59 147 -142 147
c-82 0 -138 -59 -138 -148c0 -86 57 -145 138 -145z" />
    <glyph glyph-name="acircumflex.ss01" horiz-adv-x="710" 
d="M401 597l-46 85l-46 -85l-127 8l103 145h140l103 -145zM482 492v61h165v-553h-165v60c-46 -49 -109 -72 -179 -72c-150 0 -266 116 -266 287c0 170 118 290 265 290c70 0 134 -23 180 -73zM340 130c83 0 142 56 142 146c0 91 -59 147 -142 147c-82 0 -138 -59 -138 -148
c0 -86 57 -145 138 -145z" />
    <glyph glyph-name="uni1EA5.ss01" horiz-adv-x="710" 
d="M384 957l154 -29l-125 -133l-118 8zM401 597l-46 85l-46 -85l-127 8l103 145h140l103 -145zM482 492v61h165v-553h-165v60c-46 -49 -109 -72 -179 -72c-150 0 -266 116 -266 287c0 170 118 290 265 290c70 0 134 -23 180 -73zM340 130c83 0 142 56 142 146
c0 91 -59 147 -142 147c-82 0 -138 -59 -138 -148c0 -86 57 -145 138 -145z" />
    <glyph glyph-name="uni1EAD.ss01" horiz-adv-x="710" 
d="M401 597l-46 85l-46 -85l-127 8l103 145h140l103 -145zM482 492v61h165v-553h-165v60c-46 -49 -109 -72 -179 -72c-150 0 -266 116 -266 287c0 170 118 290 265 290c70 0 134 -23 180 -73zM340 130c83 0 142 56 142 146c0 91 -59 147 -142 147c-82 0 -138 -59 -138 -148
c0 -86 57 -145 138 -145zM432 -173h-171v130h171v-130z" />
    <glyph glyph-name="uni1EA7.ss01" horiz-adv-x="710" 
d="M326 957l89 -154l-117 -8l-126 133zM285 750h140l103 -145l-127 -8l-46 85l-46 -85l-127 8zM482 492v61h165v-553h-165v60c-46 -49 -109 -72 -179 -72c-150 0 -266 116 -266 287c0 170 118 290 265 290c70 0 134 -23 180 -73zM340 130c83 0 142 56 142 146
c0 91 -59 147 -142 147c-82 0 -138 -59 -138 -148c0 -86 57 -145 138 -145z" />
    <glyph glyph-name="uni1EA9.ss01" horiz-adv-x="710" 
d="M341 880c0 24 -26 44 -65 21l-8 68c108 55 175 6 175 -49c0 -57 -41 -107 -69 -132l-66 19c15 22 33 46 33 73zM401 597l-46 85l-46 -85l-127 8l103 145h140l103 -145zM482 492v61h165v-553h-165v60c-46 -49 -109 -72 -179 -72c-150 0 -266 116 -266 287
c0 170 118 290 265 290c70 0 134 -23 180 -73zM340 130c83 0 142 56 142 146c0 91 -59 147 -142 147c-82 0 -138 -59 -138 -148c0 -86 57 -145 138 -145z" />
    <glyph glyph-name="uni1EAB.ss01" horiz-adv-x="710" 
d="M297 833c-25 0 -42 -17 -42 -42l-75 18c0 71 41 116 100 116c55 0 100 -32 133 -32c25 0 43 16 43 41l75 -17c0 -72 -41 -116 -101 -116c-55 0 -98 32 -133 32zM425 750l103 -145l-127 -8l-46 85l-46 -85l-127 8l103 145h140zM482 492v61h165v-553h-165v60
c-46 -49 -109 -72 -179 -72c-150 0 -266 116 -266 287c0 170 118 290 265 290c70 0 134 -23 180 -73zM340 130c83 0 142 56 142 146c0 91 -59 147 -142 147c-82 0 -138 -59 -138 -148c0 -86 57 -145 138 -145z" />
    <glyph glyph-name="adieresis.ss01" horiz-adv-x="710" 
d="M213 740h110v-130h-110v130zM387 740h110v-130h-110v130zM482 492v61h165v-553h-165v60c-46 -49 -109 -72 -179 -72c-150 0 -266 116 -266 287c0 170 118 290 265 290c70 0 134 -23 180 -73zM340 130c83 0 142 56 142 146c0 91 -59 147 -142 147
c-82 0 -138 -59 -138 -148c0 -86 57 -145 138 -145z" />
    <glyph glyph-name="uni1EA1.ss01" horiz-adv-x="710" 
d="M482 492v61h165v-553h-165v60c-46 -49 -109 -72 -179 -72c-150 0 -266 116 -266 287c0 170 118 290 265 290c70 0 134 -23 180 -73zM340 130c83 0 142 56 142 146c0 91 -59 147 -142 147c-82 0 -138 -59 -138 -148c0 -86 57 -145 138 -145zM432 -173h-171v130h171v-130z
" />
    <glyph glyph-name="agrave.ss01" horiz-adv-x="710" 
d="M326 760l89 -154l-117 -8l-126 133zM482 492v61h165v-553h-165v60c-46 -49 -109 -72 -179 -72c-150 0 -266 116 -266 287c0 170 118 290 265 290c70 0 134 -23 180 -73zM340 130c83 0 142 56 142 146c0 91 -59 147 -142 147c-82 0 -138 -59 -138 -148
c0 -86 57 -145 138 -145z" />
    <glyph glyph-name="uni1EA3.ss01" horiz-adv-x="710" 
d="M341 683c0 24 -26 44 -65 21l-8 68c108 55 175 6 175 -49c0 -57 -41 -107 -69 -132l-66 19c15 22 33 46 33 73zM482 492v61h165v-553h-165v60c-46 -49 -109 -72 -179 -72c-150 0 -266 116 -266 287c0 170 118 290 265 290c70 0 134 -23 180 -73zM340 130
c83 0 142 56 142 146c0 91 -59 147 -142 147c-82 0 -138 -59 -138 -148c0 -86 57 -145 138 -145z" />
    <glyph glyph-name="amacron.ss01" horiz-adv-x="710" 
d="M191 718h347v-95h-347v95zM482 492v61h165v-553h-165v60c-46 -49 -109 -72 -179 -72c-150 0 -266 116 -266 287c0 170 118 290 265 290c70 0 134 -23 180 -73zM340 130c83 0 142 56 142 146c0 91 -59 147 -142 147c-82 0 -138 -59 -138 -148c0 -86 57 -145 138 -145z" />
    <glyph glyph-name="aogonek.ss01" horiz-adv-x="710" 
d="M672 -105l7 -93c-162 -35 -239 15 -239 86c0 46 35 86 79 112h-37v60c-46 -49 -109 -72 -179 -72c-150 0 -266 116 -266 287c0 170 118 290 265 290c70 0 134 -23 180 -73v61h165v-553c-40 -24 -62 -50 -62 -73c0 -32 30 -43 87 -32zM340 130c83 0 142 56 142 146
c0 91 -59 147 -142 147c-82 0 -138 -59 -138 -148c0 -86 57 -145 138 -145z" />
    <glyph glyph-name="aring.ss01" horiz-adv-x="710" 
d="M355 590c-79 0 -135 53 -135 124s56 123 135 123s136 -52 136 -123s-57 -124 -136 -124zM355 767c-31 0 -54 -23 -54 -53c0 -31 23 -53 54 -53s54 22 54 53c0 30 -23 53 -54 53zM482 492v61h165v-553h-165v60c-46 -49 -109 -72 -179 -72c-150 0 -266 116 -266 287
c0 170 118 290 265 290c70 0 134 -23 180 -73zM340 130c83 0 142 56 142 146c0 91 -59 147 -142 147c-82 0 -138 -59 -138 -148c0 -86 57 -145 138 -145z" />
    <glyph glyph-name="aringacute.ss01" horiz-adv-x="710" 
d="M384 1039l154 -29l-125 -133l-118 8zM355 590c-79 0 -135 53 -135 124s56 123 135 123s136 -52 136 -123s-57 -124 -136 -124zM355 767c-31 0 -54 -23 -54 -53c0 -31 23 -53 54 -53s54 22 54 53c0 30 -23 53 -54 53zM482 492v61h165v-553h-165v60
c-46 -49 -109 -72 -179 -72c-150 0 -266 116 -266 287c0 170 118 290 265 290c70 0 134 -23 180 -73zM340 130c83 0 142 56 142 146c0 91 -59 147 -142 147c-82 0 -138 -59 -138 -148c0 -86 57 -145 138 -145z" />
    <glyph glyph-name="atilde.ss01" horiz-adv-x="710" 
d="M297 636c-25 0 -42 -17 -42 -42l-75 18c0 71 41 116 100 116c55 0 100 -32 133 -32c25 0 43 16 43 41l75 -17c0 -72 -41 -116 -101 -116c-55 0 -98 32 -133 32zM482 492v61h165v-553h-165v60c-46 -49 -109 -72 -179 -72c-150 0 -266 116 -266 287c0 170 118 290 265 290
c70 0 134 -23 180 -73zM340 130c83 0 142 56 142 146c0 91 -59 147 -142 147c-82 0 -138 -59 -138 -148c0 -86 57 -145 138 -145z" />
    <glyph glyph-name="gbreve.ss01" horiz-adv-x="712" 
d="M362 590c-102 0 -167 57 -167 146l116 2c0 -42 15 -61 51 -61s52 19 52 61l116 -2c0 -89 -65 -146 -168 -146zM484 485v68h165v-440c0 -189 -116 -296 -313 -296c-107 0 -199 24 -275 73l58 115c53 -37 125 -59 197 -59c105 0 165 56 165 147v17
c-43 -53 -105 -77 -184 -77c-151 0 -260 112 -260 262c0 157 109 271 258 271c82 0 145 -25 189 -81zM340 155c83 0 142 54 142 141c0 88 -59 141 -142 141c-80 0 -137 -60 -137 -142c0 -81 57 -140 137 -140z" />
    <glyph glyph-name="gcaron.ss01" horiz-adv-x="712" 
d="M292 597l-103 145l127 8l46 -85l46 85l127 -8l-103 -145h-140zM484 485v68h165v-440c0 -189 -116 -296 -313 -296c-107 0 -199 24 -275 73l58 115c53 -37 125 -59 197 -59c105 0 165 56 165 147v17c-43 -53 -105 -77 -184 -77c-151 0 -260 112 -260 262
c0 157 109 271 258 271c82 0 145 -25 189 -81zM340 155c83 0 142 54 142 141c0 88 -59 141 -142 141c-80 0 -137 -60 -137 -142c0 -81 57 -140 137 -140z" />
    <glyph glyph-name="gcircumflex.ss01" horiz-adv-x="712" 
d="M408 597l-46 85l-46 -85l-127 8l103 145h140l103 -145zM484 485v68h165v-440c0 -189 -116 -296 -313 -296c-107 0 -199 24 -275 73l58 115c53 -37 125 -59 197 -59c105 0 165 56 165 147v17c-43 -53 -105 -77 -184 -77c-151 0 -260 112 -260 262c0 157 109 271 258 271
c82 0 145 -25 189 -81zM340 155c83 0 142 54 142 141c0 88 -59 141 -142 141c-80 0 -137 -60 -137 -142c0 -81 57 -140 137 -140z" />
    <glyph glyph-name="uni0123.ss01" horiz-adv-x="712" 
d="M463 683v-90h-131c-31 123 25 177 103 203l24 -49c-40 -14 -52 -36 -51 -64h55zM484 485v68h165v-440c0 -189 -116 -296 -313 -296c-107 0 -199 24 -275 73l58 115c53 -37 125 -59 197 -59c105 0 165 56 165 147v17c-43 -53 -105 -77 -184 -77c-151 0 -260 112 -260 262
c0 157 109 271 258 271c82 0 145 -25 189 -81zM340 155c83 0 142 54 142 141c0 88 -59 141 -142 141c-80 0 -137 -60 -137 -142c0 -81 57 -140 137 -140z" />
    <glyph glyph-name="gdotaccent.ss01" horiz-adv-x="712" 
d="M276 740h171v-130h-171v130zM484 485v68h165v-440c0 -189 -116 -296 -313 -296c-107 0 -199 24 -275 73l58 115c53 -37 125 -59 197 -59c105 0 165 56 165 147v17c-43 -53 -105 -77 -184 -77c-151 0 -260 112 -260 262c0 157 109 271 258 271c82 0 145 -25 189 -81z
M340 155c83 0 142 54 142 141c0 88 -59 141 -142 141c-80 0 -137 -60 -137 -142c0 -81 57 -140 137 -140z" />
    <glyph glyph-name="uni1E21.ss01" horiz-adv-x="712" 
d="M198 718h347v-95h-347v95zM484 485v68h165v-440c0 -189 -116 -296 -313 -296c-107 0 -199 24 -275 73l58 115c53 -37 125 -59 197 -59c105 0 165 56 165 147v17c-43 -53 -105 -77 -184 -77c-151 0 -260 112 -260 262c0 157 109 271 258 271c82 0 145 -25 189 -81z
M340 155c83 0 142 54 142 141c0 88 -59 141 -142 141c-80 0 -137 -60 -137 -142c0 -81 57 -140 137 -140z" />
    <glyph glyph-name="yacute.ss02" horiz-adv-x="665" 
d="M365 760l154 -29l-125 -133l-118 8zM336 177l140 376h175l-234 -553l-71 -171h-169l77 174l-232 550h174z" />
    <glyph glyph-name="ycircumflex.ss02" horiz-adv-x="665" 
d="M382 597l-46 85l-46 -85l-127 8l103 145h140l103 -145zM336 177l140 376h175l-234 -553l-71 -171h-169l77 174l-232 550h174z" />
    <glyph glyph-name="ydieresis.ss02" horiz-adv-x="665" 
d="M195 740h110v-130h-110v130zM369 740h110v-130h-110v130zM336 177l140 376h175l-234 -553l-71 -171h-169l77 174l-232 550h174z" />
    <glyph glyph-name="uni1E8F.ss02" horiz-adv-x="665" 
d="M251 740h171v-130h-171v130zM336 177l140 376h175l-234 -553l-71 -171h-169l77 174l-232 550h174z" />
    <glyph glyph-name="uni1EF5.ss02" horiz-adv-x="665" 
d="M476 553h175l-234 -553l-71 -171h-169l77 174l-232 550h174l140 -376zM561 -161h-158v121h158v-121z" />
    <glyph glyph-name="ygrave.ss02" horiz-adv-x="665" 
d="M308 760l89 -154l-117 -8l-126 133zM336 177l140 376h175l-234 -553l-71 -171h-169l77 174l-232 550h174z" />
    <glyph glyph-name="uni1EF7.ss02" horiz-adv-x="665" 
d="M322 683c0 24 -26 44 -65 21l-8 68c108 55 175 6 175 -49c0 -57 -41 -107 -69 -132l-66 19c15 22 33 46 33 73zM336 177l140 376h175l-234 -553l-71 -171h-169l77 174l-232 550h174z" />
    <glyph glyph-name="uni0233.ss02" horiz-adv-x="665" 
d="M172 718h347v-95h-347v95zM336 177l140 376h175l-234 -553l-71 -171h-169l77 174l-232 550h174z" />
    <glyph glyph-name="uni1EF9.ss02" horiz-adv-x="665" 
d="M279 636c-25 0 -42 -17 -42 -42l-75 18c0 71 41 116 100 116c55 0 100 -32 133 -32c25 0 43 16 43 41l75 -17c0 -72 -41 -116 -101 -116c-55 0 -98 32 -133 32zM336 177l140 376h175l-234 -553l-71 -171h-169l77 174l-232 550h174z" />
    <glyph glyph-name="tbar.ss03" horiz-adv-x="486" 
d="M424 151l30 -125c-47 -26 -106 -38 -154 -38c-125 0 -198 67 -198 193v81h-81v80h81v75h-72v74l172 183h65v-121h169v-136h-169v-75h118v-80h-118v-58c0 -46 24 -73 66 -73c28 0 59 6 91 20z" />
    <glyph glyph-name="tcaron.ss03" horiz-adv-x="486" 
d="M340 630v225h123l-39 -225h-84zM300 -12c-125 0 -198 67 -198 193v236h-72v74l172 183h65v-121h169v-136h-169v-213c0 -46 24 -73 66 -73c28 0 59 6 91 20l30 -125c-47 -26 -106 -38 -154 -38z" />
    <glyph glyph-name="uni0163.ss03" horiz-adv-x="486" 
d="M306 -12l-7 -22c45 -8 72 -35 72 -69c0 -48 -49 -77 -130 -77c-28 0 -50 2 -70 6l15 70c12 -3 27 -5 38 -5c18 0 29 5 29 16c0 13 -12 23 -53 20l20 72c-76 24 -118 86 -118 182v236h-72v74l172 183h65v-121h169v-136h-169v-213c0 -46 24 -73 66 -73c28 0 59 6 91 20
l30 -125c-45 -25 -101 -37 -148 -38z" />
    <glyph glyph-name="uni021B.ss03" horiz-adv-x="486" 
d="M300 -12c-125 0 -198 67 -198 193v236h-72v74l172 183h65v-121h169v-136h-169v-213c0 -46 24 -73 66 -73c28 0 59 6 91 20l30 -125c-47 -26 -106 -38 -154 -38zM225 -241l-25 49c41 15 53 37 52 65h-56v90h131c32 -123 -24 -178 -102 -204z" />
    <glyph glyph-name="uni1E97.ss03" horiz-adv-x="486" 
d="M181 715h-110v130h110v-130zM355 715h-110v130h110v-130zM300 -12c-125 0 -198 67 -198 193v236h-72v74l172 183h65v-121h169v-136h-169v-213c0 -46 24 -73 66 -73c28 0 59 6 91 20l30 -125c-47 -26 -106 -38 -154 -38z" />
    <glyph glyph-name="uni1E6D.ss03" horiz-adv-x="486" 
d="M300 -12c-125 0 -198 67 -198 193v236h-72v74l172 183h65v-121h169v-136h-169v-213c0 -46 24 -73 66 -73c28 0 59 6 91 20l30 -125c-47 -26 -106 -38 -154 -38zM172 -174v130h171v-130h-171z" />
    <glyph glyph-name="uni1E6F.ss03" horiz-adv-x="486" 
d="M300 -12c-125 0 -198 67 -198 193v236h-72v74l172 183h65v-121h169v-136h-169v-213c0 -46 24 -73 66 -73c28 0 59 6 91 20l30 -125c-47 -26 -106 -38 -154 -38zM439 -137h-347v95h347v-95z" />
    <glyph glyph-name="gbreve.ss04" horiz-adv-x="674" 
d="M327 590c-102 0 -167 57 -167 146l116 2c0 -42 15 -61 51 -61s52 19 52 61l116 -2c0 -89 -65 -146 -168 -146zM347 100c267 0 307 -216 300 -272h-165c6 31 -20 141 -139 141c-64 0 -121 -41 -131 -114l-168 10c9 97 61 150 97 173c-37 17 -58 45 -58 82
c0 33 18 64 46 86c-38 37 -59 88 -59 145c0 124 102 215 256 215c40 0 78 -8 109 -22l155 47l31 -111l-82 -13c28 -24 45 -69 45 -117c0 -125 -102 -217 -256 -217c-36 0 -70 5 -100 14c-3 -5 -5 -10 -5 -16c0 -24 17 -38 46 -43c14 3 40 12 78 12zM327 434
c-56 0 -95 -35 -95 -82c0 -50 39 -87 95 -87s96 36 96 86c0 47 -40 83 -96 83z" />
    <glyph glyph-name="gcaron.ss04" horiz-adv-x="674" 
d="M257 597l-103 145l127 8l46 -85l46 85l127 -8l-103 -145h-140zM347 100c267 0 307 -216 300 -272h-165c6 31 -20 141 -139 141c-64 0 -121 -41 -131 -114l-168 10c9 97 61 150 97 173c-37 17 -58 45 -58 82c0 33 18 64 46 86c-38 37 -59 88 -59 145
c0 124 102 215 256 215c40 0 78 -8 109 -22l155 47l31 -111l-82 -13c28 -24 45 -69 45 -117c0 -125 -102 -217 -256 -217c-36 0 -70 5 -100 14c-3 -5 -5 -10 -5 -16c0 -24 17 -38 46 -43c14 3 40 12 78 12zM327 434c-56 0 -95 -35 -95 -82c0 -50 39 -87 95 -87s96 36 96 86
c0 47 -40 83 -96 83z" />
    <glyph glyph-name="gcircumflex.ss04" horiz-adv-x="674" 
d="M373 597l-46 85l-46 -85l-127 8l103 145h140l103 -145zM347 100c267 0 307 -216 300 -272h-165c6 31 -20 141 -139 141c-64 0 -121 -41 -131 -114l-168 10c9 97 61 150 97 173c-37 17 -58 45 -58 82c0 33 18 64 46 86c-38 37 -59 88 -59 145c0 124 102 215 256 215
c40 0 78 -8 109 -22l155 47l31 -111l-82 -13c28 -24 45 -69 45 -117c0 -125 -102 -217 -256 -217c-36 0 -70 5 -100 14c-3 -5 -5 -10 -5 -16c0 -24 17 -38 46 -43c14 3 40 12 78 12zM327 434c-56 0 -95 -35 -95 -82c0 -50 39 -87 95 -87s96 36 96 86c0 47 -40 83 -96 83z
" />
    <glyph glyph-name="uni0123.ss04" horiz-adv-x="674" 
d="M428 683v-90h-131c-31 123 25 177 103 203l24 -49c-40 -14 -52 -36 -51 -64h55zM347 100c267 0 307 -216 300 -272h-165c6 31 -20 141 -139 141c-64 0 -121 -41 -131 -114l-168 10c9 97 61 150 97 173c-37 17 -58 45 -58 82c0 33 18 64 46 86c-38 37 -59 88 -59 145
c0 124 102 215 256 215c40 0 78 -8 109 -22l155 47l31 -111l-82 -13c28 -24 45 -69 45 -117c0 -125 -102 -217 -256 -217c-36 0 -70 5 -100 14c-3 -5 -5 -10 -5 -16c0 -24 17 -38 46 -43c14 3 40 12 78 12zM327 434c-56 0 -95 -35 -95 -82c0 -50 39 -87 95 -87s96 36 96 86
c0 47 -40 83 -96 83z" />
    <glyph glyph-name="gdotaccent.ss04" horiz-adv-x="674" 
d="M242 740h171v-130h-171v130zM347 100c267 0 307 -216 300 -272h-165c6 31 -20 141 -139 141c-64 0 -121 -41 -131 -114l-168 10c9 97 61 150 97 173c-37 17 -58 45 -58 82c0 33 18 64 46 86c-38 37 -59 88 -59 145c0 124 102 215 256 215c40 0 78 -8 109 -22l155 47
l31 -111l-82 -13c28 -24 45 -69 45 -117c0 -125 -102 -217 -256 -217c-36 0 -70 5 -100 14c-3 -5 -5 -10 -5 -16c0 -24 17 -38 46 -43c14 3 40 12 78 12zM327 434c-56 0 -95 -35 -95 -82c0 -50 39 -87 95 -87s96 36 96 86c0 47 -40 83 -96 83z" />
    <glyph glyph-name="uni1E21.ss04" horiz-adv-x="674" 
d="M163 718h347v-95h-347v95zM347 100c267 0 307 -216 300 -272h-165c6 31 -20 141 -139 141c-64 0 -121 -41 -131 -114l-168 10c9 97 61 150 97 173c-37 17 -58 45 -58 82c0 33 18 64 46 86c-38 37 -59 88 -59 145c0 124 102 215 256 215c40 0 78 -8 109 -22l155 47
l31 -111l-82 -13c28 -24 45 -69 45 -117c0 -125 -102 -217 -256 -217c-36 0 -70 5 -100 14c-3 -5 -5 -10 -5 -16c0 -24 17 -38 46 -43c14 3 40 12 78 12zM327 434c-56 0 -95 -35 -95 -82c0 -50 39 -87 95 -87s96 36 96 86c0 47 -40 83 -96 83z" />
    <glyph glyph-name="eacute.ss05" horiz-adv-x="590" 
d="M346 760l154 -29l-125 -133l-118 8zM350 122c45 0 83 14 121 56l102 -89c-57 -69 -141 -101 -227 -101c-175 0 -309 119 -309 288c0 170 134 289 309 289c86 0 169 -31 227 -101l-102 -88c-38 40 -76 55 -124 55c-69 0 -123 -32 -143 -94h218v-106h-222
c17 -72 74 -109 150 -109z" />
    <glyph glyph-name="ebreve.ss05" horiz-adv-x="590" 
d="M317 590c-102 0 -167 57 -167 146l116 2c0 -42 15 -61 51 -61s52 19 52 61l116 -2c0 -89 -65 -146 -168 -146zM350 122c45 0 83 14 121 56l102 -89c-57 -69 -141 -101 -227 -101c-175 0 -309 119 -309 288c0 170 134 289 309 289c86 0 169 -31 227 -101l-102 -88
c-38 40 -76 55 -124 55c-69 0 -123 -32 -143 -94h218v-106h-222c17 -72 74 -109 150 -109z" />
    <glyph glyph-name="ecaron.ss05" horiz-adv-x="590" 
d="M247 597l-103 145l127 8l46 -85l46 85l127 -8l-103 -145h-140zM350 122c45 0 83 14 121 56l102 -89c-57 -69 -141 -101 -227 -101c-175 0 -309 119 -309 288c0 170 134 289 309 289c86 0 169 -31 227 -101l-102 -88c-38 40 -76 55 -124 55c-69 0 -123 -32 -143 -94h218
v-106h-222c17 -72 74 -109 150 -109z" />
    <glyph glyph-name="ecircumflex.ss05" horiz-adv-x="590" 
d="M363 597l-46 85l-46 -85l-127 8l103 145h140l103 -145zM350 122c45 0 83 14 121 56l102 -89c-57 -69 -141 -101 -227 -101c-175 0 -309 119 -309 288c0 170 134 289 309 289c86 0 169 -31 227 -101l-102 -88c-38 40 -76 55 -124 55c-69 0 -123 -32 -143 -94h218v-106
h-222c17 -72 74 -109 150 -109z" />
    <glyph glyph-name="uni1EBF.ss05" horiz-adv-x="590" 
d="M346 957l154 -29l-125 -133l-118 8zM363 597l-46 85l-46 -85l-127 8l103 145h140l103 -145zM350 122c45 0 83 14 121 56l102 -89c-57 -69 -141 -101 -227 -101c-175 0 -309 119 -309 288c0 170 134 289 309 289c86 0 169 -31 227 -101l-102 -88c-38 40 -76 55 -124 55
c-69 0 -123 -32 -143 -94h218v-106h-222c17 -72 74 -109 150 -109z" />
    <glyph glyph-name="uni1EC7.ss05" horiz-adv-x="590" 
d="M363 597l-46 85l-46 -85l-127 8l103 145h140l103 -145zM350 122c45 0 83 14 121 56l102 -89c-57 -69 -141 -101 -227 -101c-175 0 -309 119 -309 288c0 170 134 289 309 289c86 0 169 -31 227 -101l-102 -88c-38 40 -76 55 -124 55c-69 0 -123 -32 -143 -94h218v-106
h-222c17 -72 74 -109 150 -109zM394 -173h-171v130h171v-130z" />
    <glyph glyph-name="uni1EC1.ss05" horiz-adv-x="590" 
d="M288 957l89 -154l-117 -8l-126 133zM247 750h140l103 -145l-127 -8l-46 85l-46 -85l-127 8zM350 122c45 0 83 14 121 56l102 -89c-57 -69 -141 -101 -227 -101c-175 0 -309 119 -309 288c0 170 134 289 309 289c86 0 169 -31 227 -101l-102 -88c-38 40 -76 55 -124 55
c-69 0 -123 -32 -143 -94h218v-106h-222c17 -72 74 -109 150 -109z" />
    <glyph glyph-name="uni1EC3.ss05" horiz-adv-x="590" 
d="M302 880c0 24 -26 44 -65 21l-8 68c108 55 175 6 175 -49c0 -57 -41 -107 -69 -132l-66 19c15 22 33 46 33 73zM363 597l-46 85l-46 -85l-127 8l103 145h140l103 -145zM350 122c45 0 83 14 121 56l102 -89c-57 -69 -141 -101 -227 -101c-175 0 -309 119 -309 288
c0 170 134 289 309 289c86 0 169 -31 227 -101l-102 -88c-38 40 -76 55 -124 55c-69 0 -123 -32 -143 -94h218v-106h-222c17 -72 74 -109 150 -109z" />
    <glyph glyph-name="uni1EC5.ss05" horiz-adv-x="590" 
d="M259 833c-25 0 -42 -17 -42 -42l-75 18c0 71 41 116 100 116c55 0 100 -32 133 -32c25 0 43 16 43 41l75 -17c0 -72 -41 -116 -101 -116c-55 0 -98 32 -133 32zM387 750l103 -145l-127 -8l-46 85l-46 -85l-127 8l103 145h140zM350 122c45 0 83 14 121 56l102 -89
c-57 -69 -141 -101 -227 -101c-175 0 -309 119 -309 288c0 170 134 289 309 289c86 0 169 -31 227 -101l-102 -88c-38 40 -76 55 -124 55c-69 0 -123 -32 -143 -94h218v-106h-222c17 -72 74 -109 150 -109z" />
    <glyph glyph-name="edieresis.ss05" horiz-adv-x="590" 
d="M175 740h110v-130h-110v130zM349 740h110v-130h-110v130zM350 122c45 0 83 14 121 56l102 -89c-57 -69 -141 -101 -227 -101c-175 0 -309 119 -309 288c0 170 134 289 309 289c86 0 169 -31 227 -101l-102 -88c-38 40 -76 55 -124 55c-69 0 -123 -32 -143 -94h218v-106
h-222c17 -72 74 -109 150 -109z" />
    <glyph glyph-name="edotaccent.ss05" horiz-adv-x="590" 
d="M232 740h171v-130h-171v130zM350 122c45 0 83 14 121 56l102 -89c-57 -69 -141 -101 -227 -101c-175 0 -309 119 -309 288c0 170 134 289 309 289c86 0 169 -31 227 -101l-102 -88c-38 40 -76 55 -124 55c-69 0 -123 -32 -143 -94h218v-106h-222c17 -72 74 -109 150 -109
z" />
    <glyph glyph-name="uni1EB9.ss05" horiz-adv-x="590" 
d="M350 122c45 0 83 14 121 56l102 -89c-57 -69 -141 -101 -227 -101c-175 0 -309 119 -309 288c0 170 134 289 309 289c86 0 169 -31 227 -101l-102 -88c-38 40 -76 55 -124 55c-69 0 -123 -32 -143 -94h218v-106h-222c17 -72 74 -109 150 -109zM394 -173h-171v130h171
v-130z" />
    <glyph glyph-name="egrave.ss05" horiz-adv-x="590" 
d="M288 760l89 -154l-117 -8l-126 133zM350 122c45 0 83 14 121 56l102 -89c-57 -69 -141 -101 -227 -101c-175 0 -309 119 -309 288c0 170 134 289 309 289c86 0 169 -31 227 -101l-102 -88c-38 40 -76 55 -124 55c-69 0 -123 -32 -143 -94h218v-106h-222
c17 -72 74 -109 150 -109z" />
    <glyph glyph-name="uni1EBB.ss05" horiz-adv-x="590" 
d="M302 683c0 24 -26 44 -65 21l-8 68c108 55 175 6 175 -49c0 -57 -41 -107 -69 -132l-66 19c15 22 33 46 33 73zM350 122c45 0 83 14 121 56l102 -89c-57 -69 -141 -101 -227 -101c-175 0 -309 119 -309 288c0 170 134 289 309 289c86 0 169 -31 227 -101l-102 -88
c-38 40 -76 55 -124 55c-69 0 -123 -32 -143 -94h218v-106h-222c17 -72 74 -109 150 -109z" />
    <glyph glyph-name="emacron.ss05" horiz-adv-x="590" 
d="M153 718h347v-95h-347v95zM350 122c45 0 83 14 121 56l102 -89c-57 -69 -141 -101 -227 -101c-175 0 -309 119 -309 288c0 170 134 289 309 289c86 0 169 -31 227 -101l-102 -88c-38 40 -76 55 -124 55c-69 0 -123 -32 -143 -94h218v-106h-222c17 -72 74 -109 150 -109z
" />
    <glyph glyph-name="eogonek.ss05" horiz-adv-x="590" 
d="M350 122c45 0 83 14 121 56l102 -89c-22 -27 -48 -48 -77 -64h1c-40 -24 -62 -50 -62 -73c0 -32 30 -43 87 -32l7 -93c-162 -35 -239 15 -239 86c0 28 13 54 33 76c-164 10 -286 125 -286 287c0 170 134 289 309 289c86 0 169 -31 227 -101l-102 -88
c-38 40 -76 55 -124 55c-69 0 -123 -32 -143 -94h218v-106h-222c17 -72 74 -109 150 -109z" />
    <glyph glyph-name="uni1EBD.ss05" horiz-adv-x="590" 
d="M259 636c-25 0 -42 -17 -42 -42l-75 18c0 71 41 116 100 116c55 0 100 -32 133 -32c25 0 43 16 43 41l75 -17c0 -72 -41 -116 -101 -116c-55 0 -98 32 -133 32zM350 122c45 0 83 14 121 56l102 -89c-57 -69 -141 -101 -227 -101c-175 0 -309 119 -309 288
c0 170 134 289 309 289c86 0 169 -31 227 -101l-102 -88c-38 40 -76 55 -124 55c-69 0 -123 -32 -143 -94h218v-106h-222c17 -72 74 -109 150 -109z" />
    <glyph glyph-name="gbreve.ss05" horiz-adv-x="640" 
d="M318 590c-102 0 -167 57 -167 146l116 2c0 -42 15 -61 51 -61s52 19 52 61l116 -2c0 -89 -65 -146 -168 -146zM430 138v132h147v-441h-147v174c-28 -10 -59 -15 -93 -15c-170 0 -300 116 -300 289c0 167 130 288 309 288c86 0 169 -30 227 -101l-105 -92
c-26 37 -72 57 -118 57c-86 0 -149 -55 -149 -152c0 -100 63 -155 149 -155c29 0 55 5 80 16z" />
    <glyph glyph-name="gcaron.ss05" horiz-adv-x="640" 
d="M248 597l-103 145l127 8l46 -85l46 85l127 -8l-103 -145h-140zM430 138v132h147v-441h-147v174c-28 -10 -59 -15 -93 -15c-170 0 -300 116 -300 289c0 167 130 288 309 288c86 0 169 -30 227 -101l-105 -92c-26 37 -72 57 -118 57c-86 0 -149 -55 -149 -152
c0 -100 63 -155 149 -155c29 0 55 5 80 16z" />
    <glyph glyph-name="gcircumflex.ss05" horiz-adv-x="640" 
d="M364 597l-46 85l-46 -85l-127 8l103 145h140l103 -145zM430 138v132h147v-441h-147v174c-28 -10 -59 -15 -93 -15c-170 0 -300 116 -300 289c0 167 130 288 309 288c86 0 169 -30 227 -101l-105 -92c-26 37 -72 57 -118 57c-86 0 -149 -55 -149 -152
c0 -100 63 -155 149 -155c29 0 55 5 80 16z" />
    <glyph glyph-name="uni0123.ss05" horiz-adv-x="640" 
d="M420 683v-90h-131c-31 123 25 177 103 203l24 -49c-40 -14 -52 -36 -51 -64h55zM430 138v132h147v-441h-147v174c-28 -10 -59 -15 -93 -15c-170 0 -300 116 -300 289c0 167 130 288 309 288c86 0 169 -30 227 -101l-105 -92c-26 37 -72 57 -118 57
c-86 0 -149 -55 -149 -152c0 -100 63 -155 149 -155c29 0 55 5 80 16z" />
    <glyph glyph-name="gdotaccent.ss05" horiz-adv-x="640" 
d="M233 740h171v-130h-171v130zM430 138v132h147v-441h-147v174c-28 -10 -59 -15 -93 -15c-170 0 -300 116 -300 289c0 167 130 288 309 288c86 0 169 -30 227 -101l-105 -92c-26 37 -72 57 -118 57c-86 0 -149 -55 -149 -152c0 -100 63 -155 149 -155c29 0 55 5 80 16z" />
    <glyph glyph-name="uni1E21.ss05" horiz-adv-x="640" 
d="M154 718h347v-95h-347v95zM430 138v132h147v-441h-147v174c-28 -10 -59 -15 -93 -15c-170 0 -300 116 -300 289c0 167 130 288 309 288c86 0 169 -30 227 -101l-105 -92c-26 37 -72 57 -118 57c-86 0 -149 -55 -149 -152c0 -100 63 -155 149 -155c29 0 55 5 80 16z" />
    <glyph glyph-name="tbar.ss05" horiz-adv-x="457" 
d="M425 553v-136h-147v-110h104v-80h-104v-227h-164v227h-96v80h96v110h-84v136h84v100l164 40v-140h147z" />
    <glyph glyph-name="tcaron.ss05" horiz-adv-x="457" 
d="M329 880h123l-39 -225h-84v225zM114 653l164 40v-140h147v-136h-147v-417h-164v417h-84v136h84v100z" />
    <glyph glyph-name="uni0163.ss05" horiz-adv-x="457" 
d="M278 417v-417h-33l-10 -33c45 -8 72 -35 72 -69c0 -48 -49 -77 -130 -77c-28 0 -50 2 -70 6l15 70c12 -3 27 -5 38 -5c18 0 29 5 29 16c0 13 -12 23 -53 20l20 72h-42v417h-84v136h84v100l164 40v-140h147v-136h-147z" />
    <glyph glyph-name="uni021B.ss05" horiz-adv-x="457" 
d="M278 553h147v-136h-147v-417h-164v417h-84v136h84v100l164 40v-140zM133 -126v90h131c32 -123 -24 -178 -102 -204l-25 49c41 15 53 37 52 65h-56z" />
    <glyph glyph-name="uni1E97.ss05" horiz-adv-x="457" 
d="M58 856h110v-130h-110v130zM232 856h110v-130h-110v130zM278 553h147v-136h-147v-417h-164v417h-84v136h84v100l164 40v-140z" />
    <glyph glyph-name="uni1E6D.ss05" horiz-adv-x="457" 
d="M278 693v-140h147v-136h-147v-417h-164v417h-84v136h84v100zM280 -173h-171v130h171v-130z" />
    <glyph glyph-name="uni1E6F.ss05" horiz-adv-x="457" 
d="M278 693v-140h147v-136h-147v-417h-164v417h-84v136h84v100zM376 -136h-347v95h347v-95z" />
    <glyph glyph-name="yacute.ss05" horiz-adv-x="659" 
d="M357 760l154 -29l-125 -133l-118 8zM330 235l136 318h178l-232 -465v-259h-165v259l-232 465h177l137 -318h1z" />
    <glyph glyph-name="ycircumflex.ss05" horiz-adv-x="659" 
d="M374 597l-46 85l-46 -85l-127 8l103 145h140l103 -145zM330 235l136 318h178l-232 -465v-259h-165v259l-232 465h177l137 -318h1z" />
    <glyph glyph-name="ydieresis.ss05" horiz-adv-x="659" 
d="M187 740h110v-130h-110v130zM361 740h110v-130h-110v130zM330 235l136 318h178l-232 -465v-259h-165v259l-232 465h177l137 -318h1z" />
    <glyph glyph-name="uni1E8F.ss05" horiz-adv-x="659" 
d="M243 740h171v-130h-171v130zM330 235l136 318h178l-232 -465v-259h-165v259l-232 465h177l137 -318h1z" />
    <glyph glyph-name="uni1EF5.ss05" horiz-adv-x="659" 
d="M330 235l136 318h178l-232 -465v-259h-7v-2h-171v130h13v131l-232 465h177l137 -318h1z" />
    <glyph glyph-name="ygrave.ss05" horiz-adv-x="659" 
d="M299 760l89 -154l-117 -8l-126 133zM330 235l136 318h178l-232 -465v-259h-165v259l-232 465h177l137 -318h1z" />
    <glyph glyph-name="uni1EF7.ss05" horiz-adv-x="659" 
d="M314 683c0 24 -26 44 -65 21l-8 68c108 55 175 6 175 -49c0 -57 -41 -107 -69 -132l-66 19c15 22 33 46 33 73zM330 235l136 318h178l-232 -465v-259h-165v259l-232 465h177l137 -318h1z" />
    <glyph glyph-name="uni0233.ss05" horiz-adv-x="659" 
d="M164 718h347v-95h-347v95zM330 235l136 318h178l-232 -465v-259h-165v259l-232 465h177l137 -318h1z" />
    <glyph glyph-name="uni1EF9.ss05" horiz-adv-x="659" 
d="M270 636c-25 0 -42 -17 -42 -42l-75 18c0 71 41 116 100 116c55 0 100 -32 133 -32c25 0 43 16 43 41l75 -17c0 -72 -41 -116 -101 -116c-55 0 -98 32 -133 32zM330 235l136 318h178l-232 -465v-259h-165v259l-232 465h177l137 -318h1z" />
    <glyph glyph-name="aacute.ss06" horiz-adv-x="719" 
d="M389 760l154 -29l-125 -133l-118 8zM347 565c180 0 309 -122 309 -299v-266h-151l-3 60c-42 -46 -105 -72 -177 -72c-162 0 -288 115 -288 284c0 171 130 293 310 293zM347 129c83 0 142 58 142 146c0 89 -60 148 -143 148s-142 -59 -142 -147c0 -89 60 -147 143 -147z
" />
    <glyph glyph-name="abreve.ss06" horiz-adv-x="719" 
d="M360 590c-102 0 -167 57 -167 146l116 2c0 -42 15 -61 51 -61s52 19 52 61l116 -2c0 -89 -65 -146 -168 -146zM347 565c180 0 309 -122 309 -299v-266h-151l-3 60c-42 -46 -105 -72 -177 -72c-162 0 -288 115 -288 284c0 171 130 293 310 293zM347 129
c83 0 142 58 142 146c0 89 -60 148 -143 148s-142 -59 -142 -147c0 -89 60 -147 143 -147z" />
    <glyph glyph-name="uni1EAF.ss06" horiz-adv-x="719" 
d="M389 949l154 -29l-125 -133l-118 8zM360 590c-102 0 -167 57 -167 146l116 2c0 -42 15 -61 51 -61s52 19 52 61l116 -2c0 -89 -65 -146 -168 -146zM347 565c180 0 309 -122 309 -299v-266h-151l-3 60c-42 -46 -105 -72 -177 -72c-162 0 -288 115 -288 284
c0 171 130 293 310 293zM347 129c83 0 142 58 142 146c0 89 -60 148 -143 148s-142 -59 -142 -147c0 -89 60 -147 143 -147z" />
    <glyph glyph-name="uni1EB7.ss06" horiz-adv-x="719" 
d="M360 590c-102 0 -167 57 -167 146l116 2c0 -42 15 -61 51 -61s52 19 52 61l116 -2c0 -89 -65 -146 -168 -146zM347 565c180 0 309 -122 309 -299v-266h-151l-3 60c-42 -46 -105 -72 -177 -72c-162 0 -288 115 -288 284c0 171 130 293 310 293zM347 129
c83 0 142 58 142 146c0 89 -60 148 -143 148s-142 -59 -142 -147c0 -89 60 -147 143 -147zM437 -173h-171v130h171v-130z" />
    <glyph glyph-name="uni1EB1.ss06" horiz-adv-x="719" 
d="M331 949l89 -154l-117 -8l-126 133zM360 677c36 0 52 19 52 61l116 -2c0 -89 -65 -146 -168 -146c-102 0 -167 57 -167 146l116 2c0 -42 15 -61 51 -61zM347 565c180 0 309 -122 309 -299v-266h-151l-3 60c-42 -46 -105 -72 -177 -72c-162 0 -288 115 -288 284
c0 171 130 293 310 293zM347 129c83 0 142 58 142 146c0 89 -60 148 -143 148s-142 -59 -142 -147c0 -89 60 -147 143 -147z" />
    <glyph glyph-name="uni1EB3.ss06" horiz-adv-x="719" 
d="M345 872c0 24 -26 44 -65 21l-8 68c108 55 175 6 175 -49c0 -57 -41 -107 -69 -132l-66 19c15 22 33 46 33 73zM360 590c-102 0 -167 57 -167 146l116 2c0 -42 15 -61 51 -61s52 19 52 61l116 -2c0 -89 -65 -146 -168 -146zM347 565c180 0 309 -122 309 -299v-266h-151
l-3 60c-42 -46 -105 -72 -177 -72c-162 0 -288 115 -288 284c0 171 130 293 310 293zM347 129c83 0 142 58 142 146c0 89 -60 148 -143 148s-142 -59 -142 -147c0 -89 60 -147 143 -147z" />
    <glyph glyph-name="uni1EB5.ss06" horiz-adv-x="719" 
d="M302 825c-25 0 -42 -17 -42 -42l-75 18c0 71 41 116 100 116c55 0 100 -32 133 -32c25 0 43 16 43 41l75 -17c0 -72 -41 -116 -101 -116c-55 0 -98 32 -133 32zM360 677c36 0 52 19 52 61l116 -2c0 -89 -65 -146 -168 -146c-102 0 -167 57 -167 146l116 2
c0 -42 15 -61 51 -61zM347 565c180 0 309 -122 309 -299v-266h-151l-3 60c-42 -46 -105 -72 -177 -72c-162 0 -288 115 -288 284c0 171 130 293 310 293zM347 129c83 0 142 58 142 146c0 89 -60 148 -143 148s-142 -59 -142 -147c0 -89 60 -147 143 -147z" />
    <glyph glyph-name="uni01CE.ss06" horiz-adv-x="719" 
d="M290 597l-103 145l127 8l46 -85l46 85l127 -8l-103 -145h-140zM347 565c180 0 309 -122 309 -299v-266h-151l-3 60c-42 -46 -105 -72 -177 -72c-162 0 -288 115 -288 284c0 171 130 293 310 293zM347 129c83 0 142 58 142 146c0 89 -60 148 -143 148s-142 -59 -142 -147
c0 -89 60 -147 143 -147z" />
    <glyph glyph-name="acircumflex.ss06" horiz-adv-x="719" 
d="M406 597l-46 85l-46 -85l-127 8l103 145h140l103 -145zM347 565c180 0 309 -122 309 -299v-266h-151l-3 60c-42 -46 -105 -72 -177 -72c-162 0 -288 115 -288 284c0 171 130 293 310 293zM347 129c83 0 142 58 142 146c0 89 -60 148 -143 148s-142 -59 -142 -147
c0 -89 60 -147 143 -147z" />
    <glyph glyph-name="uni1EA5.ss06" horiz-adv-x="719" 
d="M389 957l154 -29l-125 -133l-118 8zM406 597l-46 85l-46 -85l-127 8l103 145h140l103 -145zM347 565c180 0 309 -122 309 -299v-266h-151l-3 60c-42 -46 -105 -72 -177 -72c-162 0 -288 115 -288 284c0 171 130 293 310 293zM347 129c83 0 142 58 142 146
c0 89 -60 148 -143 148s-142 -59 -142 -147c0 -89 60 -147 143 -147z" />
    <glyph glyph-name="uni1EAD.ss06" horiz-adv-x="719" 
d="M406 597l-46 85l-46 -85l-127 8l103 145h140l103 -145zM347 565c180 0 309 -122 309 -299v-266h-151l-3 60c-42 -46 -105 -72 -177 -72c-162 0 -288 115 -288 284c0 171 130 293 310 293zM347 129c83 0 142 58 142 146c0 89 -60 148 -143 148s-142 -59 -142 -147
c0 -89 60 -147 143 -147zM437 -173h-171v130h171v-130z" />
    <glyph glyph-name="uni1EA7.ss06" horiz-adv-x="719" 
d="M331 957l89 -154l-117 -8l-126 133zM290 750h140l103 -145l-127 -8l-46 85l-46 -85l-127 8zM347 565c180 0 309 -122 309 -299v-266h-151l-3 60c-42 -46 -105 -72 -177 -72c-162 0 -288 115 -288 284c0 171 130 293 310 293zM347 129c83 0 142 58 142 146
c0 89 -60 148 -143 148s-142 -59 -142 -147c0 -89 60 -147 143 -147z" />
    <glyph glyph-name="uni1EA9.ss06" horiz-adv-x="719" 
d="M345 880c0 24 -26 44 -65 21l-8 68c108 55 175 6 175 -49c0 -57 -41 -107 -69 -132l-66 19c15 22 33 46 33 73zM406 597l-46 85l-46 -85l-127 8l103 145h140l103 -145zM347 565c180 0 309 -122 309 -299v-266h-151l-3 60c-42 -46 -105 -72 -177 -72
c-162 0 -288 115 -288 284c0 171 130 293 310 293zM347 129c83 0 142 58 142 146c0 89 -60 148 -143 148s-142 -59 -142 -147c0 -89 60 -147 143 -147z" />
    <glyph glyph-name="uni1EAB.ss06" horiz-adv-x="719" 
d="M302 833c-25 0 -42 -17 -42 -42l-75 18c0 71 41 116 100 116c55 0 100 -32 133 -32c25 0 43 16 43 41l75 -17c0 -72 -41 -116 -101 -116c-55 0 -98 32 -133 32zM430 750l103 -145l-127 -8l-46 85l-46 -85l-127 8l103 145h140zM347 565c180 0 309 -122 309 -299v-266h-151
l-3 60c-42 -46 -105 -72 -177 -72c-162 0 -288 115 -288 284c0 171 130 293 310 293zM347 129c83 0 142 58 142 146c0 89 -60 148 -143 148s-142 -59 -142 -147c0 -89 60 -147 143 -147z" />
    <glyph glyph-name="adieresis.ss06" horiz-adv-x="719" 
d="M218 740h110v-130h-110v130zM392 740h110v-130h-110v130zM347 565c180 0 309 -122 309 -299v-266h-151l-3 60c-42 -46 -105 -72 -177 -72c-162 0 -288 115 -288 284c0 171 130 293 310 293zM347 129c83 0 142 58 142 146c0 89 -60 148 -143 148s-142 -59 -142 -147
c0 -89 60 -147 143 -147z" />
    <glyph glyph-name="uni1EA1.ss06" horiz-adv-x="719" 
d="M347 565c180 0 309 -122 309 -299v-266h-151l-3 60c-42 -46 -105 -72 -177 -72c-162 0 -288 115 -288 284c0 171 130 293 310 293zM347 129c83 0 142 58 142 146c0 89 -60 148 -143 148s-142 -59 -142 -147c0 -89 60 -147 143 -147zM437 -173h-171v130h171v-130z" />
    <glyph glyph-name="agrave.ss06" horiz-adv-x="719" 
d="M331 760l89 -154l-117 -8l-126 133zM347 565c180 0 309 -122 309 -299v-266h-151l-3 60c-42 -46 -105 -72 -177 -72c-162 0 -288 115 -288 284c0 171 130 293 310 293zM347 129c83 0 142 58 142 146c0 89 -60 148 -143 148s-142 -59 -142 -147c0 -89 60 -147 143 -147z
" />
    <glyph glyph-name="uni1EA3.ss06" horiz-adv-x="719" 
d="M345 683c0 24 -26 44 -65 21l-8 68c108 55 175 6 175 -49c0 -57 -41 -107 -69 -132l-66 19c15 22 33 46 33 73zM347 565c180 0 309 -122 309 -299v-266h-151l-3 60c-42 -46 -105 -72 -177 -72c-162 0 -288 115 -288 284c0 171 130 293 310 293zM347 129
c83 0 142 58 142 146c0 89 -60 148 -143 148s-142 -59 -142 -147c0 -89 60 -147 143 -147z" />
    <glyph glyph-name="amacron.ss06" horiz-adv-x="719" 
d="M196 718h347v-95h-347v95zM347 565c180 0 309 -122 309 -299v-266h-151l-3 60c-42 -46 -105 -72 -177 -72c-162 0 -288 115 -288 284c0 171 130 293 310 293zM347 129c83 0 142 58 142 146c0 89 -60 148 -143 148s-142 -59 -142 -147c0 -89 60 -147 143 -147z" />
    <glyph glyph-name="aogonek.ss06" horiz-adv-x="719" 
d="M681 -105l7 -93c-162 -35 -239 15 -239 86c0 46 35 86 79 112h-23l-3 60c-42 -46 -105 -72 -177 -72c-162 0 -288 115 -288 284c0 171 130 293 310 293s309 -122 309 -299v-266c-40 -24 -62 -50 -62 -73c0 -32 30 -43 87 -32zM347 129c83 0 142 58 142 146
c0 89 -60 148 -143 148s-142 -59 -142 -147c0 -89 60 -147 143 -147z" />
    <glyph glyph-name="aring.ss06" horiz-adv-x="719" 
d="M360 590c-79 0 -135 53 -135 124s56 123 135 123s136 -52 136 -123s-57 -124 -136 -124zM360 767c-31 0 -54 -23 -54 -53c0 -31 23 -53 54 -53s54 22 54 53c0 30 -23 53 -54 53zM347 565c180 0 309 -122 309 -299v-266h-151l-3 60c-42 -46 -105 -72 -177 -72
c-162 0 -288 115 -288 284c0 171 130 293 310 293zM347 129c83 0 142 58 142 146c0 89 -60 148 -143 148s-142 -59 -142 -147c0 -89 60 -147 143 -147z" />
    <glyph glyph-name="aringacute.ss06" horiz-adv-x="719" 
d="M389 1039l154 -29l-125 -133l-118 8zM360 590c-79 0 -135 53 -135 124s56 123 135 123s136 -52 136 -123s-57 -124 -136 -124zM360 767c-31 0 -54 -23 -54 -53c0 -31 23 -53 54 -53s54 22 54 53c0 30 -23 53 -54 53zM347 565c180 0 309 -122 309 -299v-266h-151l-3 60
c-42 -46 -105 -72 -177 -72c-162 0 -288 115 -288 284c0 171 130 293 310 293zM347 129c83 0 142 58 142 146c0 89 -60 148 -143 148s-142 -59 -142 -147c0 -89 60 -147 143 -147z" />
    <glyph glyph-name="atilde.ss06" horiz-adv-x="719" 
d="M302 636c-25 0 -42 -17 -42 -42l-75 18c0 71 41 116 100 116c55 0 100 -32 133 -32c25 0 43 16 43 41l75 -17c0 -72 -41 -116 -101 -116c-55 0 -98 32 -133 32zM347 565c180 0 309 -122 309 -299v-266h-151l-3 60c-42 -46 -105 -72 -177 -72c-162 0 -288 115 -288 284
c0 171 130 293 310 293zM347 129c83 0 142 58 142 146c0 89 -60 148 -143 148s-142 -59 -142 -147c0 -89 60 -147 143 -147z" />
    <glyph glyph-name="gbreve.ss06" horiz-adv-x="653" 
d="M327 590c-102 0 -167 57 -167 146l116 2c0 -42 15 -61 51 -61s52 19 52 61l116 -2c0 -89 -65 -146 -168 -146zM519 196c40 -38 70 -95 70 -156c0 -134 -104 -223 -267 -223c-148 0 -235 81 -263 157l126 81c26 -45 65 -96 130 -96c62 0 104 31 104 87c0 28 -12 50 -35 80
c-20 -4 -42 -6 -65 -6c-151 0 -257 92 -257 224c0 130 105 221 255 221h285l2 -119l-66 4c23 -26 37 -65 37 -108c0 -58 -20 -108 -56 -146zM318 253c58 0 92 33 92 91c0 57 -36 88 -92 88s-91 -31 -91 -87c0 -58 35 -92 91 -92z" />
    <glyph glyph-name="gcaron.ss06" horiz-adv-x="653" 
d="M257 597l-103 145l127 8l46 -85l46 85l127 -8l-103 -145h-140zM519 196c40 -38 70 -95 70 -156c0 -134 -104 -223 -267 -223c-148 0 -235 81 -263 157l126 81c26 -45 65 -96 130 -96c62 0 104 31 104 87c0 28 -12 50 -35 80c-20 -4 -42 -6 -65 -6
c-151 0 -257 92 -257 224c0 130 105 221 255 221h285l2 -119l-66 4c23 -26 37 -65 37 -108c0 -58 -20 -108 -56 -146zM318 253c58 0 92 33 92 91c0 57 -36 88 -92 88s-91 -31 -91 -87c0 -58 35 -92 91 -92z" />
    <glyph glyph-name="gcircumflex.ss06" horiz-adv-x="653" 
d="M373 597l-46 85l-46 -85l-127 8l103 145h140l103 -145zM519 196c40 -38 70 -95 70 -156c0 -134 -104 -223 -267 -223c-148 0 -235 81 -263 157l126 81c26 -45 65 -96 130 -96c62 0 104 31 104 87c0 28 -12 50 -35 80c-20 -4 -42 -6 -65 -6c-151 0 -257 92 -257 224
c0 130 105 221 255 221h285l2 -119l-66 4c23 -26 37 -65 37 -108c0 -58 -20 -108 -56 -146zM318 253c58 0 92 33 92 91c0 57 -36 88 -92 88s-91 -31 -91 -87c0 -58 35 -92 91 -92z" />
    </font>
</defs>
</svg>
